<svg xmlns="http://www.w3.org/2000/svg" id="a" viewBox="0 0 900 320"><defs><style>.aa,.ab,.ac,.ad,.ae,.ag,.ah,.ai,.aj,.ak,.al,.am,.an,.ap,.at,.au,.av,.aw,.ax,.az,.ba,.bb,.bc,.bd,.be,.bf,.bg,.bh,.bi,.bj,.bm,.bo,.br,.bs,.bt,.bu,.bv,.bw,.by,.bz,.ca,.cb,.ce,.cf,.cg,.ci,.cj,.ck,.cl,.cm,.co,.cp,.cq,.m,.n,.o,.p,.q,.r,.s,.t,.u,.w,.y,.z{stroke-width:0}.aa,.ad,.ai,.am,.av,.aw,.az,.bc,.bm,.br,.bs,.bu,.cb,.co,.m,.r{fill-rule:evenodd}.bj,.m{fill:#404857}.n{fill:#576071}.o{fill:#735283}.p{fill:#e7dfea}.br,.q{fill:#543042}.r{fill:#e8cab6}.s{fill:#89909b}.t{fill:#1d2432;opacity:.1}.u{fill:#7a578a}.w{fill:#d0af96}.y{fill:#9f80ae}.z{fill:#9471a4}.aa,.an{fill:#c3987b}.ab,.bc{fill:#513a5c}.ac,.cb{fill:#8b6651}.ad,.ak{fill:#734d61}.ae{fill:#4a3554}.ai{fill:#68707f}.ag,.bs{fill:#dfbda5}.ah{fill:#583f64}.aj{fill:#9a9fa9}.al,.bu{fill:#b3889d}.am{fill:#785d88}.ap{fill:#eeeff1}.cf{fill:#5f6878}.at,.az{fill:#454d5d}.au{fill:#f7e6dc}.av,.cg{fill:#96637c}.aw{fill:#734d60}.ax{fill:#29303e}.cq{fill:#ab90b8}.ba{fill:#cccfd4}.bb{fill:#6c4d7b}.bd{fill:#e5b5cf}.be{fill:#51596a}.bf{fill:#bbbfc6}.bg{fill:#2e3544}.bh,.bm{fill:#343c4b}.bi{fill:#dddfe2}.bo{fill:#4b5464}.bt{fill:#654873}.bv{fill:#a9846c}.bw{fill:#d1a1b8}.by{fill:#5e436b}.bz{fill:#fbfafb}.ca{fill:#dbcfe0}.ce{fill:#787f8d}.ci{fill:#3d4554}.cj{fill:#b7a0c2}.ck{fill:#cfbfd6}.cl{fill:#232a38}.cm{fill:#efd3c2}.co,.cp{fill:#43304c}</style></defs><g id="b"><path d="M218.38 281.81 195.05 280l8.77-8.47-84.13-4.27-75.8 7.72 7.31 11.34 57.47 6.41 37.46-3.09 37.1 8.28 58.09 4.19 10.07-5.58 15.2-7.6-48.21-7.12zM271.1 275.02l28.02 7.5 60.36 2.73 13.62-8.31 13.25 5.47 40.04-4.01-22.52-7.08-43.95-2.81-45.83.47-42.99 6.04zM301.07 295.14l72.38-3.83 28.48 9.78-44.17 7.53-39.56-3.28-17.13-10.2zM414.1 300.09l20.72-3.65 31.96 5.55-16.76 5.94-22.9.24-13.02-8.08zM472.5 309.12l15.96-2.65 28.19-.92 9.27 2.85-15.92 7.48-25.17-.83-12.33-5.93zM558.93 290.36l59.36 7.36-21.38 6.47-13.57-2.6-13.58 2.6-34.42-5.88 9.28-5.22 14.31-2.73zM713.4 289.43l25.06-4.3-3.09-5.94-66.02-8.82-41.56 7.64-5.93 9.02-17.65 2.8 35.81 7 12.71-6.24 11.51 6.24 49.16-7.4zM704.45 249.65l16.05 2.79-3.45 7.14-32.69 3.35 2.21-13.54 17.88.26zM741.38 304.35l-2.16-3.78-1.55 3.78h-4.8l-6.01-2.4-12.05 2.4-9.72-3.78 30.99-9.74 38.08-3.9 45.99 1.29 36.57 8.31-39.36 9-75.98-1.18z" class="t"/></g><g id="c"><path d="m302.31 255.03 44.21-6.37 28.69 7.94-12.58 11.18-23.04.77-37.28-13.52z" class="ba"/><path d="m359.48 285.25-61-7.41 3.83-22.81 45.16 6.13 4.37-90.63 17.81 2.36 7.13 93.61-17.3 18.75z" class="ce"/><path d="m381.21 177.43 5.14 104.98-26.87 2.84 4.59-102.84 17.14-4.98z" style="fill:#abafb8;stroke-width:0"/><path d="m458.89 24.49-10.84-4.28-179.78 7.54 8.58 9.21 166.94-6.42 15.1-6.05z" class="ce"/><path d="m277.94 33-9.67-5.25 5.94 158.19 7.45 4.31 2.83-19.72-2.7-128.71-3.85-8.82z" class="bj"/><path d="m284.49 38.6 169.31-8.06 5.09 145.44-171.19 7.75-3.21-145.13z" style="fill:#f7f5f6;stroke-width:0"/><path d="m450.81 168.07-7.02-137.53h7.99l7.11 145.44-5.09-.92-2.99-6.99z" class="bj"/><path d="m287.7 175.98 163.11-7.91 5.41 3.61-9.27 5.34-159.25 6.71v-7.75z" class="aj"/><path d="M458.89 24.49 277.94 33l3.72 157.25 183.55-8.26-6.32-157.5ZM292.44 179.64l-3.8-135.96 161.39-9.76 6.19 137.75-163.78 7.96Z" style="fill:#545c6d;stroke-width:0"/><path d="m297.88 50.81 15.49-1.43.72 4.99-16.03.53-.18-4.09zM386.75 149.53l25.12-1.6.53 13.53-24.76 1.61-.89-13.54z" class="bf"/><path d="m380.16 149.89.89 13.71-29.92 1.78-1.07-14.07 30.1-1.42z" class="ba"/><path d="m413.05 58.24 23.34-1.44v3.38l-23.16 1.07-.18-3.01zM413.53 66.32l23.03-1.15.36 3.2-23.15.54-.24-2.59zM412.99 50.58l22.62-1.36.42 2.85-22.92 1.3-.12-2.79zM412.16 43.52l22.68-1.72.3 3.14-22.8 1.25-.18-2.67zM414 73.86l23.28-1.21.17 2.85-23.09 1.15-.36-2.79zM416.14 96.18l23.27-1.21.18 2.85-23.09 1.15-.36-2.79zM414.66 81.16l22.62-1.07.17 2.85-22.44 1.07-.35-2.85zM415.59 88.61l22.62-1.07.18 2.85-22.45 1.07-.35-2.85z" class="bf"/><path d="m404.48 43.64-24.22 1.43 6.32 95.91 24.57-1.42-6.67-95.92z" class="bi"/></g><g id="d"><path d="m664.28 252.36-1.46 6.6 21.54 2.78 20.73-3.81-.64-8.28-20.59 4.71-19.58-2z" class="ak"/><path d="m682.65 246.23-18.37 6.13 19.42 4.74 20.75-7.45-21.8-3.42z" class="cg"/><path d="m683.86 254.36 3.68-.68 5.03-85.48-7.63 10.1-3.14 17.12 1.15 53.91.91 5.03z" class="bt"/><path d="m684.94 178.3-1.08 76.06-4.26-1.11-.93-79.86 6.27 4.91z" class="o"/><path d="m696.89 37.63 25.47 9.76-12.74 47.08-26.97-25.85 5.48-21.23 8.76-9.76z" class="bw"/><path d="m658.37 45.52 38.52-7.89-2.36 24.55-18.08-1.58-18.08-15.08z" class="al"/><path d="m677.63 51.02 18.5-5.5 3.03 8.32-4.38 5.7-9.48-1.19-7.67-7.33z" class="bz"/><path d="m696.13 45.52 14.07 7.01-15.42 7.01 1.35-14.02z" class="ca"/><path d="m658.37 45.52 31.56 9.01 6.96 50.05-11.95 82.09-18.36-2.48-5.78-99.38 4.16-4.41-4.87-7.73-.44-7.49 3.66-3-4.35-7.65-.59-9.01z" class="bw"/><path d="m689.93 54.53 32.43-7.14-1.18 9.44-4.35 5.35 3.32 3-1.11 10.03-5.94 6.39 4.69 4.96-10.68 96.67-22.17 3.44 4.99-132.14z" class="al"/><path d="m658.96 54.53 30.65 7.65 3.13 3-3.53 6.55-29.56-6.55-.69-10.65z" class="cq"/><path d="m689.61 62.18 31.57-5.35-1.03 8.35-30.94 6.55.4-9.55z" class="z"/><path d="m660.09 72.67 28.87 7.38 4.62 5.22-5.01 5.26-27.77-5.72-.71-12.14z" class="cq"/><path d="m688.96 80.05 30.08-4.84-1.25 11.35-29.22 3.97.39-10.48z" class="z"/><path d="m195.35 256.72 1.46 6.61-21.54 1.85-20.73-2.89.64-6.41 20.59 2.85 19.58-2.01z" class="ak"/><path d="m176.98 252.45 18.37 4.27-19.42 2.88-20.75-3.72 21.8-3.43z" class="cg"/><path d="m175.76 257.14-5.18-1.11-5.38-64.85 9.5 10.09 3.13 17.13.05 29.16-2.12 9.58z" class="bt"/><path d="m174.7 201.27 1.06 55.87 5.2-.75.93-60.03-7.19 4.91z" class="o"/><path d="m174.15 55.11-35.01 7.81 10.87 54.53 28.83-33.3-.68-17.88-4.01-11.16z" class="bw"/><path d="m203.12 61.05-28.97-5.94-3.94 22.32 14.84-1.3 18.07-15.08z" class="al"/><path d="m183.86 66.55-10.93-5.5-10.59 8.32 4.37 5.69 9.48-1.18 7.67-7.33z" class="bz"/><path d="m172.93 61.05-21.64 7.01 20.28 2 1.36-9.01z" class="ca"/><path d="m203.12 61.05-31.55 9.01-8.83 57.5 11.96 82.09 18.35-2.49 7.63-110.61-2-3.1 2.5-4.19.59-8.53-2.39-3.3 2.94-4.7.8-11.68z" class="bw"/><path d="m171.57 70.06-32.43-7.14 1.21 13.01 3.23 3.98-2.63 2.48.77 8.23 3.4 5.56-2.6 2.95 10 107.07 22.18 3.45-3.13-139.59z" class="al"/><path d="m202.32 72.73-30.54 7.09-5.62 7.03 5.87 3.81 29.74-9.93.55-8z" class="cq"/><path d="m171.78 79.82-31.43-3.89.6 6.46 31.08 8.27-.25-10.84z" class="z"/><path d="m201.18 89.26-29.04 6.25-4.22 5.29 4.45 5.26 28.31-9.51.5-7.29z" class="cq"/><path d="m172.14 95.51-30.42-4.89.8 8.51 29.85 6.93-.23-10.55z" class="z"/></g><g id="e"><path d="m193.42 283.43-6.84-.75-7.15-28.46 18.53-2.79 3.2 12.47-7.74 19.53z" class="at"/><path d="m121.91 279.2 6.59-.71 3.74-28.05h-10.16l-4.98 10.51 4.81 18.25z" class="ce"/><path d="m111 259.66 2.85 18.65 8.06.89-.72-23.24-10.19 3.7z" class="n"/><path d="m68.71 283.81 8.67-1.43 8.55-31.66-15.68 1.96-3.56 11.4 2.02 19.73z" class="cf"/><path d="m146.13 289.64-7.84-.77-3-15.96-61.73-6.22-4.85 17.12-8.94-.89-1.63-40.22 93.33 1.43.54 13.54-5.88 31.97z" class="at"/><path d="m147.38 251.82-1.25 37.82 8.94-1.7 3.92-14.51 35.58-3.65-1.15 13.65 7.16-1.24 5.39-42.87-40.77 3.6-17.82 8.9z" class="cf"/><path d="m137.22 233.82 10.16 18 63.36-9.71 2.62-16.49-76.14 8.2z" class="u"/><path d="m147.38 251.82-97.37-5.89 1.96-14.8 65.66-1.93 27.57 8.64 2.18 13.98z" class="bb"/><path d="m51.97 231.13 70.87-14.54 90.52 9.03-68.16 12.22-93.23-6.71z" class="cq"/><path d="m73.62 226.69 9.64-1.98 5.87.91 1.17 2.99-9.85.62-6.83-2.54zM100.09 224.71l17.54-3.47 10.42 2.94-2.73 5.05-18.11.74-7.12-5.26zM152.89 224.18l-11.48.53-5.61-3.47 10.33-2.33 3.92 2.33 2.84 2.94z" class="t"/><path d="m112.66 198.95-7.25-1.34 2.82-25.17 11.98 1.46-.29 3.31-7.76-1.01-3.25 18.68 6.82 1.66-3.07 2.41z" class="aj"/><path d="m122.03 168.93 8.68 1.56 4.18 27.96-12.73 4.29-2.47-5.46 2.34-28.35z" class="bf"/><path d="m112.66 198.95 5.74-29.29 3.63-1.64 2.51 3.05-1.34 28.94-7.08 1.3-3.46-2.36z" class="ce"/><path d="m125.32 229.23 12.16-2.08 5.98-17.01-21.95.26 1.17 9.35 2.64 9.48z" class="bf"/><path d="m125.32 229.23-12.9-2.36-7.79-15.95 14.67-1.56 5.35 4.28.67 15.59z" class="ce"/><path d="m143.46 210.14-8.57-11.69-11.69 1.56-4.03 7.27 5.48 6.36 18.81-3.5z" class="bi"/><path d="m104.63 210.92 8.03-11.97 10.54 1.06 1.45 13.63-20.02-2.72z" class="bf"/><path d="m130.71 170.49 2.07-7.5-12.83.49 4.59 7.59 6.17-.58z" class="cg"/><path d="m123.23 164.35-1.33-1.13-6.46.26 2.96 6.18 6.14 1.41-1.31-6.72z" class="ak"/><path d="m132.78 162.99-8.93-1.98-8.41 2.47 7.79.87 9.55-1.36z" class="al"/><path d="m81.87 198.85 8.33-2.01 1.87 7.21-5.34.36-4.86-5.56z" class="ap"/><path d="m98.26 198.85-8.06-2.01-.61 4.14 3.91 3.43 4.76-5.56z" class="bf"/><path d="m98.26 198.85-.61 28.58-7.35 1.18L87.35 211l2.24-10.02 8.67-2.13z" class="ap"/><path d="m89.59 200.98-7.72-2.13 1.55 28.7 6.88 1.06-.71-27.63z" class="bf"/><path d="m151.45 193.62-6.92 1.54 4.54 6.67 3.74-3.11-1.36-5.1z" class="ap"/><path d="m160.28 194.62-8.83-1 .01 3.23 3.75 5.25 5.07-7.48z" class="bf"/><path d="m160.28 194.62-.7 28.4-6.69 1.16-2.04-16.65.61-10.68 8.82-2.23z" class="ap"/><path d="m151.46 196.85-6.93-1.69 1.78 26.97 6.58 2.05-1.43-27.33z" class="bf"/></g><g id="f"><path d="m704.14 283.11-9.18-1.56-4-26.5 10.69-1.19 5.34 10.02-2.85 19.23z" class="aj"/><path d="m634.39 285.25 6-.78 4.13-29.06-10.13-.36-7.59 15.1 7.59 15.1zM708.28 172.89l12.25-3.59-10.33 81.52 2.77 29.34-8.83 2.95-5.16-20.19-25.07 2.93-2.53 24.82-7.14 1.57-3.87-13.37 6.41-25.01L688.83 231l19.45-58.11z" class="ce"/><path d="m625.6 253.86 35.77 11.61 1.94-10.06-26.72-10.77-10.99 9.22zM710.2 173.61l-8.19-3.08-37.05-2.4L655.1 231l23.63 12.75h20.02l11.45-70.14z" class="aj"/><path d="m710.2 173.61 10.33-4.31-40.86-5.13-14.71 3.96 45.24 5.48zM698.75 243.75l-13.81 2.24-29.84 7.87-14.71-3.97-16.67-3.9 31.38-11.27 43.65 9.03z" class="ba"/><path d="m684.94 245.99 5.51-3.96 8.53-30.83-6.24-17.71 4.15-13.62-.93-7.98 7.73-4.7-24.02-3.02-10.04 21.48v39.37l15.31 20.97zM640.39 249.89l3.5 9.91-10.88-3.54 7.38-6.37z" class="t"/><path d="M634.39 276.07v9.18l-14.63 2.29-15.55-2.29 15.29-15.67 8.23-2.85 6.66 9.34zM646.98 279.17l-6.96 13.07 12.11 2.29 12.11-2.29-.93-8.7-6.14-4.67-10.19.3z" class="bt"/><path d="M640.02 292.24h24.22v4.58h-24.22zM604.21 285.25h30.17v4.58h-30.17z" class="ab"/><path d="m640.02 228.79-18.4 8.73 6.92 11.87 11.85.5 6.31-2.33 18.26-7.76-1.56-9.71-23.38-1.3z" class="ci"/><path d="m655.1 237.52-8.4 10.04 10.47 7.85 11.29-.93 16.48-8.49 1.91-15.9-23.92-1.72-7.83 9.15z" class="at"/><path d="m646.7 247.56.28 31.61 16.33 4.37 5.15-29.06-21.76-6.92z" class="bh"/><path d="m647.44 177.67-14.43 26.15 9.84 5.49 8.67-5.49-4.08-26.15zM655.1 177.02l11.88-1.33 15.79.29 7.16 2.11-7.16 15.43-29.54-1.86 1.87-14.64z" class="cg"/><path d="m647.44 177.67-7.42 51.12 15.08 8.73 31.75-7.43 10.04-50.22-6.96-1.78-27.46 11.51-7.37-12.58-7.66.65z" class="ak"/><path d="m669.05 195.87 13.72 4.8-.94 6.04-9.65.56-6.27-3.12 3.14-8.28zM631.75 114.6l-5.08 53.53 31.7 2.4 7.18 9.34 15.56-5.58 11.1-31.94-12.47-29.1-34.37-2.22-13.62 3.57z" class="cm"/><path d="m669.59 171.44 10.15-58.19 14.79 28.27-4.6 13.48-2.77 1.95.38 5.05-4.77 13.98-17.81 7.75 4.63-12.29z" class="w"/><path d="m630.25 130.4 11.61 10.28-12.73 1.48 14.46 5.23 3.91-1.78 3.74 2.85 22.67-1.79-18.81-4.68 17.08-7.43-2.55-4.49-6.54-2.39-5.92.43-1.07 3.16-6.37-.37-4.86-.36-.48-3.54-5.86-1.32-5.52 1.71-2.76 3.01z" class="w"/><path d="m687.54 162-4.77-8.28 7.16 1.28-2.39 7zM658.37 170.53l11.22.91 9.08-2.14-13.71 14.43-6.59-13.2zM685.3 149.54l1.05-6.67 4.61 1.56-5.66 5.11z" class="bv"/><path d="m643.59 147.39 3.26 1.1 4.39-.03.46-4.31 2.39-13.02-9.97-.36.04 12.84-.57 3.78z" class="au"/><path d="m643.59 147.39 3.26 3.86 4.39-2.79-7.65-1.07z" class="bv"/><circle cx="636.59" cy="136.02" r="1.94" class="cl"/><circle cx="661.37" cy="138.46" r="1.94" class="cl"/><path d="m638.9 154.99 7.95 2.2 9.2-.89-.95 2.61-8.31 1.01-7.48-2.37-.41-2.56z" class="bv"/><path d="m634.18 124.43 7.98-.46 2.23 3.03-11.38.39 1.17-2.96zM658.81 125.29l9.08 1.34 1.74 3.44-12.46-1.96 1.64-2.82zM638.9 169.06l7.54-3.99 6.52 5.05-7.47 3.49-6.59-4.55zM626.98 106.91l7.86 6.88 21.21 2.54 22.68 2.72 6.57 2.34 9.23-11.94-9.23-.65-1.66-3.35-6.33-2.34-7.68.26-1.11-3.49-7.77-2.86-11.91 5.37-2.91-1.03-18.95 5.55z" class="bt"/><path d="m678.73 119.05 15.8-9.6 4.45 18.59-4.45 4.15v9.33l-9.23-1.89-3.72 7.76-2.01-20 3.2-1.71-4.04-6.63zM626.98 106.91l24.26 4.5 26.07.84 1.42 6.8-13.77.41-6.59-2.85-6.35 3.24-20.27-5.25-4.77-7.69z" class="ah"/><path d="m652.02 119.85-.78-8.44 9.51-1.25 6.23 1.75-2.02 7.55-12.94.39z" class="ae"/><path d="m651.24 111.41 17.28-11.53 8.79 3.23-10.33 8.8-15.74-.5z" class="ah"/><path d="m678.73 119.05 20.25 8.99-4.45 13.48-14.96-14.13-.84-8.34z" class="ae"/><path d="m677.31 112.25 6.33-6.8 10.89 4-17.22 2.8zM660.75 97.02l-18.6 12.7 3.78-8.36 14.82-4.34z" class="ah"/><path d="m676.45 132.13 19.51 5.05-1.43 4.34-19.19-3.06-1.43-3.02 2.54-3.31z" class="at"/><path d="m625.08 127.68-1.37 13.95 20.45 1.97 1.54-10.14 2.87-.44 3.98 1.07-.85 10.06 22.22 2.52 2.54-14.53-23.54-2.04-4.6 1.12-1.98-1.69-21.24-1.84Zm16.78 13-15.06-1.54.83-8.95 15.24 1.24-1.01 9.26Zm28.98 3.21-15.73-1.9.83-8.96 16.24 1.53-1.34 9.33Z" class="n"/><path d="m645.7 133.47.62-3.95 6.59.6-.36 3.97-6.85-.62z" class="at"/><path d="m696.89 179.87 2.09 31.33-16.21 1.59-4.1-6.08 18.22-26.84z" class="cg"/><path d="m698.98 211.2-38.61-10.12 3.91 13.24 23.58 10.7 11.12-13.82z" class="w"/><path d="m669.63 203.51-5.35 10.81-8.05-3.65 4.52-5.64 8.88-1.52z" class="bv"/><path d="m664.28 201.08-12.76-9.42-5.59 4.67 1.49 10.09 10.95.85 5.91-6.19z" class="w"/><path d="m651.52 191.66-2.39 8.61-6.26 3.24-2.85-8.13 11.5-3.72z" class="cm"/><path d="m633.01 203.82 16.12-3.55 10.5 1.66-3.4 8.74-14.72 7.85-8.5-14.7z" class="w"/><path d="m669.05 195.87-19.92 4.4 7.1 10.4 13.4-7.16-.58-7.64z" class="u"/><path d="m621.62 237.52-2.12 32.06 14.89 6.49 6-26.18-18.77-12.37z" class="bg"/></g><g id="g"><path d="m779.76 276.64 1.25 14-12.35 1.6v-18.03l11.1 2.43z" class="s"/><path d="m810.22 296.03-9.86-1.66-5.17-25.35 12.35-.73 4.1 12.99-1.42 14.75z" class="aj"/><path d="m834.08 188.63-15.45 76.23 2.92 29.44-11.33 1.73-3.75-22.26-33.03 3.75-3.26 21.7-9.75 1.35-.53-28.76 8.76-14.21 37.81-37.7 12.16-28.24 2.81-3.03h12.64z" class="ce"/><path d="m763.74 272.95-3.31 27.62-8.97-2.14 2.38-28.4 9.9 2.92zM729.18 264.86l-3.02 26.45 7.59.93 5.47-30.01-10.04 2.63zM810.22 260.25l-23.43-1.36-15.05-6.89 10.2-69.25 32.73 3.6 3.96 5.31-8.41 68.59z" class="aj"/><path d="m818.63 191.66 15.45-3.03-48.18-10.62 12.56 8.9 12.94 3.27 7.23 1.48zM810.22 260.25l-19.73-4.39-27.97-5.07-1.88 16.2 30.65-3.38 18.93-3.36z" class="ba"/><path d="m791.29 263.61 5.7-6.3 3.23-15.42-3.23-14.96 5.64-22.85 8.77-13.9 9.99-4.35-23.28-5.13-13.72 20.71-10.95 46.61-1.14 15.59 1.14 13.91 13.35-1.52 4.5-12.39z" class="t"/><path d="m741.24 285.68 3.25 6.34-3.11 12.33h-3.71L736 289.71l5.24-4.03z" class="ci"/><path d="m733.75 262.07-.88 19.48 8.37 4.13 4.32-8.37-1.07-14.94-10.74-.3z" class="an"/><path d="m726.1 272.84-2.09 9.14-9.88 7.73-2.59-2.14 6.5-12.64 8.06-2.09z" class="ci"/><path d="m726.86 253.19-6.36 13.8 5.6 5.85 15.28-9.15-14.52-10.5z" class="ag"/><path d="m759.08 221.05-11.29 7.86 1.51 8.4 10.6.17 2.62-8.57-3.44-7.86z" class="bb"/><path d="m757.86 240.03-23.4-4.38-.71 17.16 14.04 20.01 23 8.86 20.5-18.07-.8-7.75-15.52-15.83h-17.11z" class="cg"/><path d="m773.44 196.47-6.62 5.25 4.92 12.72 17.34 2.22 4.57-17.44-20.21-2.75z" class="ag"/><path d="m793.65 199.22 8.98 4.86-8.98 22.43h-18.68l-20.28-15.17 12.13-9.62 19.08 9.47 7.75-11.97z" class="bb"/><path d="m811.4 190.18-15.61 2.37v-17.39l12.29-15.02 4.39 7.3-1.07 22.74z" class="bg"/><path d="m820.19 164.26-8.79 25.92-2.25-22.74 2.25-5.13 8.79 1.95z" class="bj"/><path d="m745.56 126.56-7.83 57.23 29.56 4.84 12.38 9.53 12.56-2.58 13.53-28.55-18.88-34.8-41.32-5.67z" class="ag"/><path d="m773.44 196.47 5.25-5.97 8.1-44.97 9.35-8.37 13.01 30.28-4.51 9.24-4.42 3.24-.29 6.43-6.28 12.87-14.96 3.95-5.25-6.7z" class="an"/><path d="m767.29 188.63 18.61 2.94-12.46 4.9-6.15-7.84zM804.64 176.68l-8.85-3.19 4.14 12.86 4.71-9.67zM799.5 171.75l1.9-6.88 4.36 2.16-6.26 4.72z" class="ac"/><path d="m745.3 143.66 14.6 19.95 16.08-15.59-4.24-2.49-7.26-1.09-2.6 3.5-2.69 1.6-1.62-2.4-1.28-3.97-4.05-1.47-6.94 1.96z" class="an"/><path d="m757.57 147.14-3.73 15.49 2.81 1.47 3.25-.49 1.98-15.67-4.31-.8z" style="fill:#e8cab6;stroke-width:0"/><path d="m753.84 162.63 2.5 3.25 3.56-2.27-6.06-.98z" class="ac"/><circle cx="750.96" cy="151.59" r="2.14" class="cl"/><circle cx="768.66" cy="154.56" r="2.14" class="cl"/><path d="m747.79 169.75 4.24 5.47 7.96 1.42 5.88-3.5-9.68-1.72-8.4-1.67z" class="u"/><path d="m747.79 169.75 8.4-.11 9.68 3.5-10.2.06-7.88-3.45z" class="ah"/><path d="m745.3 143.66 10.99-.49-4.49-3.52-6.5 4.01zM764.48 144.44l7.26-.78 4.24 4.36-11.5-3.58zM745.56 126.56l41.23 18.97 15.84-5.88 6.73-16.42-44.88-10.11v6.41h-9.02l-9.9 7.03z" class="bj"/><path d="m786.79 145.53 5.97 17.28 5.7-.5 10.69 5.13 11.04-3.18-7.72-12.41 3.8-2.46-6.91-26.16-22.57 22.3z" class="bh"/><path d="m764.48 113.12 35.02 19.85 1.99 5.56-8.75 1.12-37.28-20.12 9.02-6.41z" class="n"/><path d="m799.5 132.97 16.77 16.42 3.92 14.87-27.45-24.61 6.76-6.68z" class="bj"/><path d="m786.79 145.53 11.67 16.78-5.58 9.11-6.09-25.89z" class="bg"/><path d="m754.69 211.34 3.17 28.69 32.63 15.83-.94-13.43 4.1-15.92-38.96-15.17z" class="ah"/><path d="m791.29 263.61-26.81 3.38-30.02-31.34-7.6 17.54 18.7 21.02 26.74 10.86 18.99-21.46z" class="ak"/><path d="m726.86 253.19 45.44 31.88-26.74-7.76-18.7-24.12z" class="q"/><path d="m802.63 204.08-2.41 37.81-12.27-4.41-2.05-8.57 16.73-24.83z" class="ab"/><path d="m785.9 228.91-18.61 7.44-3.62 2.57 4.99 6.78 31.56-3.81-14.32-12.98z" class="bb"/><path d="m747.79 228.91 5.31 3.95-5.31 3.27v-7.22zM767.29 236.35l-14.19-3.49-.89 6.11 6.21 7.39 10.24-.66-1.37-9.35z" class="an"/><path d="m753.1 232.86-8.61 2.08 2.22 4.67 5.5 4.14 6.21 2.61-5.32-13.5z" class="ag"/><path d="m748.46 233.98 3.75 9.77-4.42-1.86.67-7.91z" class="an"/><path d="m747.79 228.91 1.82 13.75-16.2-4.58-.54-6.61 14.92-2.56z" class="ag"/><path d="m720.5 266.99-26.68 6.97 11.69 10.36 20.59-11.48-5.6-5.85zM732.87 281.55l-18.06 22.8h18.06l8.37-18.67-8.37-4.13z" class="be"/></g><g id="h"><path d="m224.1 287.26 9.5-1.22.46-12.84-11.84-2.45-3.22 6.19 5.1 10.32z" class="aj"/><path d="m213.65 275.27-.61 10.89 11.06 1.1 1.95-14.83-12.4 2.84z" class="s"/><path d="m189.93 294.05 9.87-1.71 4.02-20.81h-12.8l-6.28 9.42 5.19 13.1z" class="aj"/><path d="m167.76 192.43 12.74 67.56-2.1 32.61 11.53 1.45 3.25-18.96 37.18 5.53 2.37 16.63 8.59 1.01 3.95-14.2-14.91-21.38-36.47-39.93-10.95-31.59-15.18 1.27z" class="ce"/><path d="m180.5 193.75 4.24-4.52 26.18-5.37 12.54 69.43-15.65 4.72h-17.88l-9.43-64.26z" class="aj"/><path d="m180.5 193.75-12.74-1.32 24.22-7.71-5.51 7.14-5.97 1.89zM189.93 258.01l33.53-4.72 25.05 4.72-30.25 4.67h-12.4l-15.93-4.67z" class="ba"/><path d="m191.61 201.52-6.87-9.09-10.48-2.07 8.18-2.6 30.13-4.62 8.99 24.55 5.13 55.49-20.83-.5-7.37-5.91-6.44-23.1-.44-32.15z" class="t"/><path d="m263.66 276.94 8.54 5.14 4.37 4.04 6.06 9.16-21.5 1.54-9.79-8.77v-8.41l12.32-2.7z" class="ak"/><path d="m262.74 289.19-4.67-11.35-4.51 3.18 4.59 8.17h4.59z" class="q"/><path d="m272.2 282.08-2.23 1.98-7.23-5.68 4.88-.54 4.58 4.24z" class="y"/><path d="m276.57 286.12-5.34 9.26 7.99.88 6.21-1.93-8.86-8.21z" class="by"/><path d="M256.02 294.33h29.41v3.85h-29.41z" class="q"/><path d="m244.47 283.45-3.15 10.88v3.93l13.32 1.9 12.8-.12-4.7-10.85-3.19-3.62-6.62-5.11-8.46 2.99z" class="ak"/><path d="m245.27 284.06 2.34 7.11-6.29 3.16v-7.07l1.43-3.2h2.52zM262.74 289.19l-7.1 10.85h8.11l6.98-1.78-7.99-9.07z" class="by"/><path d="m252.03 281.53 5.32 5.73 2.2-1.69-5.22-5.93-2.3 1.89z" class="y"/><path d="m256.77 199.75-2.44-8.31 3.38-8.88 4.08 6.54-5.02 10.65z" class="bv"/><path d="m241.58 194.74 16.13 21.81-14.96 6.2-1.17-28.01z" class="ak"/><path d="m247.72 216.95 6.61-12.57 5.28-3.15 3.29 3.15-3.53 18.37-18.05 6.42 6.4-12.22zM259.37 137.67l3.64 31.91-1.4 6.79-6.4 3.27-21.04 2.92-9.3 7.91-4.07 5.53-11.84-4.55-5.38-8.89-5.87-9.36 3.42-39.38 32.55-16.86 13.94 5.06 11.75 15.65z" class="cm"/><path d="m225.97 187.04-8.2-2.2-6.85-34.99-9.18-4.77-4.03 28.12 3.18 14.82 7.72 8.44 13.57 2.54 6.85-5.85-3.06-6.11z" class="w"/><path d="m234.17 182.56-25.21 3.01 20.07 7.58 5.14-10.59z" class="bv"/><path d="m254.78 141.71-16.58 18.17-16.64-13.33 5.02-5.92 7.59 2.55 1.89 1.17 3.06 1.83 2.2-2.63 1.23-1.65 5.38-3.37 6.85 3.18z" class="w"/><path d="m238.2 159.88-2.14-15.53 5.26-.8 3.12 15.48-3.45 1.4-2.79-.55z" class="au"/><path d="m238.2 159.88 3.48 2.61 2.76-3.46-6.24.85zM208.96 173.2l-8.35 8.22v-7.44l3.12-2.66 5.23 1.88z" class="bv"/><circle cx="230.25" cy="151.99" r="2.47" class="ax"/><circle cx="249.06" cy="149.52" r="2.47" class="ax"/><path d="m229.15 168.57 10 3.85 6.79-.73 5.87-5.87-10.82 2.57-11.84.18z" class="cg"/><path d="m241.54 164.99-3.4 2.02-8.99 1.56 12.75 1.01 9.91-3.76-6.79.27-3.48-1.1z" class="ak"/><path d="m259.37 137.67-3.85-9.94-2.76-2.62 1.2-1.42-2.42-6.26-26.67-7.71 2.44 9.91 10.53 6.36 21.53 11.68z" class="bo"/><path d="m224.87 109.72-25.45 10.4-.74 17.74 12.24 11.99 26.92-23.86-12.97-16.27z" class="bj"/><path d="m221.56 146.55-.76-2.02 5.96-4.68 7.89 1.93-.48 1.4-7.13-.67-5.48 4.04zM242.55 141.9l-.74-1.5 6.06-2.84 7.34 2.75-.43 1.4-6.82-1.22-5.41 1.41z" class="bo"/><path d="m199.42 120.12-10.4 13.58-1.2 11.38 2.54 4.13-3.89 8.77-1.73 16.46 14.68-9.91 11.5-14.68-11.5-29.73z" class="bh"/><path d="M253.96 123.69 228 113.65l-1.35 3.31 6.44 3.08 22.43 7.69-1.56-4.04z" class="n"/><path d="m228 113.65-25.12 15.42v6.1l4.12 4.56 26.09-19.69-5.09-6.39z" class="bo"/><path d="m202.88 129.07-15.06 16.01-1.35 12.9L207 139.73l-4.12-10.66z" class="bj"/><path d="m204.79 160.76 4.17 12.44-8.35 3.17-1.93-7.98 6.11-7.63z" class="z"/><path d="m207.81 153.83-31.52 21.47 4.21 8.54 15.25.88 7.71-9.43 4.35-21.46z" class="bj"/><path d="m203.46 175.29-22.96 8.55 4.24 8.59 16.15-4.41 2.57-12.73z" class="bh"/><path d="m216.19 206.49 11.59-1.04 4.94-4.38-6.07-6.02-5.99-.55-5.4 3.03.93 8.96z" class="u"/><path d="m208.61 196.46 20.42-3.31 3.69 10.75-12.06-9.4-4.47 11.99-7.58-10.03z" class="y"/><path d="m229.03 193.15 5.14.6 7.15 9.91-2.36 6.49-26.95 8.02-9.82-15.5 1.63-4.96 4.79-1.25 15.38 5.67 5.04-8.98z" class="cg"/><path d="m203.82 197.71-5.99 1.66 4.36 18.8 6.77 6.37h20.07l18.69-7.59-6.14-22.21-7.41-.99 2.11 11.91-19.15 5.02-13.31-12.97z" class="bt"/><path d="m247.72 216.95-7.5 20.81-13.21 5.95-21.15-1.68 3.1-17.49 38.76-7.59z" class="ah"/><path d="m204.79 248.87 6.13 11.66 15.55 7.75 7.7 4.92 3.21-19.91-32.59-4.42z" class="ab"/><path d="m204.79 248.87 21.68 19.41 6.25-12.79 10.03 12.58-1.43 19.19-14.85-18.98-20.61-5.6-1.07-13.81z" class="ae"/><path d="m240.22 237.76 29.75 9.25-18.16 9.56-19.09-1.08-27.93-6.62 1.07-6.84 34.36-4.27z" class="bt"/><path d="m269.97 247.01-5.95 23.06-22.7 17.19-8.6-31.77 37.25-8.48z" class="ah"/><path d="m269.97 247.01-28.65 40.25 26.3-9.42 2.35-30.83z" class="ab"/><path d="m197.83 199.37 11.13 25.17-1.02 12.92-5.75.3-10.14-4.09 5.78-34.3z" class="ak"/><path d="m192.05 233.67 29.51 4.65 3.21 3.47-5.29 5.72-14.69 1.36-12.74-15.2z" class="cm"/><path d="m256.77 199.75 2.84 1.48 4.41-2.64 5.95-12.8-8.24-1.07-3.3 5.73-1.66 9.3z" class="w"/><path d="m256.77 199.75 7.25-1.16-1.12 5.79h-8.57l2.44-4.63z" class="cj"/><path d="m255.21 179.64 7.8-10.06 1.01 8.84-8.81 1.22z" class="w"/><path d="m269.97 185.79-6.51-12.26-8.25 6.11 3.22 10.81 11.54-4.66z" class="cm"/><path d="m227.78 239.3 12.44-1.54-2.84 7.5-4.66 3.61-7.85-1.86-1.41-3.56 4.32-4.15z" class="w"/><path d="m240.22 237.76 9.42 10.27-8.06 4.21-8.86-3.37 7.5-11.11z" class="cm"/><path d="m227.78 239.3-2.91 7.71-5.39.5 2.08-9.19 6.22.98z" class="cj"/><path d="M241.32 298.26h29.41v3.85h-29.41z" class="q"/></g><g id="i"><path d="m541.45 159.64-15.49 17.55 11.62 15.13 6.54-6.67-2.67-26.01z" class="bc"/><path d="m520.95 190.5 16.63 1.82 3.02-5.27-11.11-26.3-6.19-1.68-5.06 5.1 2.71 26.33zM610.73 209.31l-13.82 12.45-2.94-6.15.38-6.3 10.9-17.65 5.48 17.65z" class="co"/><path d="M544.62 280.12v12.97l-16.68 2.61-16.69-2.61 10.63-11.18 10.15-8.41 5.55-2.12 7.04 8.74z" class="az"/><path d="M511.25 293.09h33.37v5.21h-33.37z" class="bh"/><path d="m533.58 274.21-6.71 9.33-4.99-1.63 6.76-7.12 4.94-.58z" class="bm"/><path d="m533.71 222.46-2.28 28.36 11.45 18.12 13.28-6.23 8.57-13.32-9.72-14.28-21.3-12.65z" class="ad"/><path d="m533.71 222.46 21.3 26.93h12.53l21.24-28.56h-38.13l-16.94 1.63z" class="br"/><path d="m575.1 281.03-5.34 17.96 13.58 2.6 13.57-2.6-2.56-12.82-8.22-7-11.03 1.86z" class="az"/><path d="M569.76 298.99h27.15v5.21h-27.15z" class="bh"/><path d="m582.12 280.75-1.57 10.11 4.37 1.14 1.2-11.25h-4z" class="bm"/><path d="m594.35 162 28.49 36.96-12.11 10.35-20.23-11.18-4.37-20.94 8.22-15.19z" class="bc"/><path d="m540.6 166.8-3.02 25.52 20.74 12.71 32.18-6.9 3.85-36.13-15.07-4.82-38.68 9.62z" style="fill:#654873;fill-rule:evenodd;stroke-width:0"/><path d="m547.84 172.03 10.8 9.76 10.17-7.87-1.09-7.48-12.71-7.17-2.91 2.73-4.26 10.03z" style="fill:#7a578a;fill-rule:evenodd;stroke-width:0"/><path d="m551.12 156.21-9.67 3.43 6.39 12.39 7.13-10.03 13.84 11.92 10.47-16.74-28.16-.97z" style="fill:#ab90b8;fill-rule:evenodd;stroke-width:0"/><path d="m524.11 84.98-9.01 52.46 27.16 5.43 14.07 14.56 20.11-4.19 11.85-36.66-7.28-33.32-27.4-8.03-20.24 2.23-9.26 7.52z" class="bs"/><path d="m551.12 156.21 5.08-10.38 15.55-59.86 9.26-2.71 12.96 32.09-3.93 11.19-2.74 3.53-.51 5.72-7.51 21.39-24.31 4.82-3.85-5.79zM528.56 98.07l14.19 18.88 16.17-12.34-4.92-3.43-6.07.59-3.95 1.97-1.6 1.98-1.67-2.72-1.57-3.3-4.78-2.82-5.8 1.19z" class="aa"/><path d="m540.71 103-4.62 12.59 2.9 1.36h3.76l1.23-13.21-3.27-.74z" class="r"/><path d="m536.09 115.59 2.77 3.52 3.89-2.16-6.66-1.36zM590.04 126.54l-8.91-2.19 5.66 11.44 3.25-9.25zM542.26 142.87l23.2 4.56-14.34 8.78-8.86-13.34zM583.85 122.38l1.73-6.66 5.18 1.48-6.91 5.18z" class="cb"/><circle cx="532.14" cy="107.32" r="2.22" class="cl"/><circle cx="550.9" cy="111.03" r="2.22" class="cl"/><path d="m531.73 124.79 14.81.74-.92 3.05-13.05-.37-.84-3.42z" class="cb"/><path d="m528.56 98.07 10.58 1.63-1.2-3.36-7.16-.12-2.22 1.85zM547.93 101.77l2.1-2.84 8.27 3.09.62 2.59-10.99-2.84zM533.37 77.46l6.66 4.24 6.51.45 2.13 5.06 23.08-1.24 9.38-.25 8.91-8.26-26.43-9.88-7.78 2.31-2.4-1.79-8.71.44-11.35 8.92z" class="az"/><path d="m571.75 85.97.8 4.58 3.52 6.47-1.73 3.88 1.36 7.9-1.72 7.78 9.87-4.57 10.12 3.34 3.58-10.25-5.8-8.88 2.51-3.23-4.22-15.53-18.29 8.51z" class="bm"/><path d="m572.55 90.55 21.71 2.44 3.29 12.11-23.21-4.2-1.79-10.35zM575.7 108.8l8.15 3.21-8.15 12.34-5.92-4.19 5.92-11.36z" class="az"/><path d="m540.03 81.7 13.4-13.6 10.18-.52-14.94 19.63-8.64-5.51z" style="fill:#5f6878;fill-rule:evenodd;stroke-width:0"/><path d="m560.28 86.58 9.5-16.69 9.38 3.5-18.88 13.19z" class="bm"/><path d="m537.58 192.32-3.87 30.14 24.61 7.63 30.46-9.26 1.72-22.7-52.92-5.81z" class="bc"/><path d="m588.78 220.83-3.61-.23-1.34 4.42-28.82 24.37 9.72 15.31 19.82 6.68 7.28-14.78-3.05-35.77z" class="av"/><path d="m564.73 264.7 27.1-8.1 2.52 29.57-19.25-5.14-10.37-16.33z" class="ad"/><path d="m556.16 262.71-24.73-11.89-2.79 23.97 15.98 5.33 11.54-17.41z" class="br"/><path d="m594.35 209.31-4.28-5.49-3.12 8.4 1.83 8.61 8.13.93-2.56-12.45z" class="bs"/><path d="m590.07 203.82-14.19 11.49 7.95 9.71 4.95-4.19 1.29-17.01z" class="aa"/><path d="m541.45 159.64 16.87 18.92 20.96-21.38 7.67 2.45-28.63 28.97-17.72-21.8.85-7.16z" class="av"/><path d="m515.1 137.44 8.56-2.4 4.1 4.93-5.05 2.9-7.61-5.43z" class="aa"/><path d="m515.1 137.44-2.03 13.03 7.94.96 7.94-3.32-1.19-8.14-12.66-2.53z" class="bs"/><path d="m513.07 150.47 5.17 13.7 11.25-3.42-.96-1.68.13-1.64.29-9.32-15.88 2.36z" class="aa"/><path d="m528.66 157.43-4.32.56-.09-4.27-3.24 2.49 8.48 4.54-.83-3.32z" class="cb"/></g><g id="j"><path d="m350.98 261.56 8.87 11.99 12.35-3.1 9.01-7.3-9.84-37.68-21.61 20.47 1.22 15.62z" class="am"/><path d="m359.85 273.55 10.87 15.47 13.46-3.21 2.17-3.4-5.14-19.26-21.36 10.4z" style="fill:#594165;fill-rule:evenodd;stroke-width:0"/><path d="m323.59 226.01 47.78-.54-17.11 26.11-14.79-6.87-15.88-18.7z" style="fill:#9075a0;fill-rule:evenodd;stroke-width:0"/><path d="m354.26 251.58-4.5 18.87-12.44 5.14-12.43-4.53-5.16-25.12-1.01-10.2 4.87-9.73 30.67 25.57z" style="fill:#a688ba;fill-rule:evenodd;stroke-width:0"/><path d="m349.76 270.45-4 16.99-7.46 3.86-9.78-.66-3.63-19.58 24.87-.61z" class="am"/><path d="m345.76 287.44 5.46 12.74-11.3 1.23-11.7-1.23.3-9.54 17.24-3.2zM386.35 282.41l15.58 14.67-18.08 1.23-12.83-1.23-.3-8.06 15.63-6.61z" class="av"/><path d="M328.22 300.18h23v4.01h-23zM371.02 297.08h30.92v4.01h-30.92z" class="q"/><path d="M319.47 159.02 347.48 188l7.8-30.26-18.51-2.93-17.3 4.21z" style="fill:#fefefe;fill-rule:evenodd;stroke-width:0"/><path d="m354.64 87.81 6.6-7.14 7.51-1.41 10.91 59.87-19.73 5.02-25.3 3.01-9.57-42.09-2.28-19.18 16.26-1.97 15.6 3.89z" class="bs"/><path d="m350.58 148.43 29.08-9.3-43.2 7.86-8.77-43.78-4.91-17.32-9.62 11.76 2.72 9.12-13.31-1.42 1.82 14.96 5.74 4.73 2.6 5.75 1.66 3.62.85 7.26 4.23 17.35 35.81-1.28-4.7-9.31z" class="aa"/><path d="m371.92 96.66 2.82-20.83-10.67 1.73 7.85 19.1z" class="m"/><path d="m374.37 163.97 6.25 18.69-1.83 17.34-11.53 8.04-.63-28.08 7.74-15.99z" class="bu"/><path d="m376.42 196.73 2.37 3.27 13.22 1.57-2.56 13.49-20.35 1.04-1.33-15.03 8.65-4.34z" class="av"/><path d="m375.89 198.66-.76 7.03 9.35 8.84 7.53-12.96-6.97-1.03-9.15-1.88z" class="aw"/><path d="m383.05 192.7-3.43-3.7 12.56-16.29 3.71 1.9-5.69 9.77-2.06 6.34-5.09 1.98z" class="aa"/><path d="m382.06 188.6 9.95 12.97-6.06 6.03-5.61-4.98 1.72-14.02z" class="aa"/><path d="m380.62 182.66-3.37.12-1.36 15.88 4.45 3.96 2.71-9.92-2.43-10.04z" class="bs"/><path d="m383.05 192.7 7.15-8.32 7.27 11.99-5.46 5.2-8.96-8.87z" class="r"/><path d="m332.83 100.64 13.13 6.81 7.61 13.29-.91-12.36-2.08-6.67-17.75-1.07zM358.7 96.15l-1.92 4.7-.29 4.88 2.46 5.98 10.87-17.7-5.13-5.77-5.99 7.91z" class="aa"/><path d="m350.58 101.71-16.68-5.13-1.07 4.06 14.75 4.7 3-3.63zM356.78 93.58l7.91-5.34 5.13 5.77-2.99 2.35-3.53-4.06-4.6 3.85-1.92-2.57z" class="m"/><path d="m356.78 100.85 3.64 18.18-2.91 1.96-3.94-.25-2.99-19.03 6.2-.86z" class="r"/><path d="m363.6 133.86 2.02-6.18-20.43 1.43 4.4 6.29 14.01-1.54z" class="cb"/><path d="m317.86 122.02 1.5 3.43-6.63 5.34-8.34-10.48 7.06-7.05 6.41 8.76z" class="bs"/><path d="m354.64 87.81 20.1-11.98-21.38-13.47-1.66 13.95 2.94 11.5z" class="ai"/><path d="m354.64 87.81-1.28-25.45-55.6 20.96 11.99 3.66 13.03-1.09 31.86 1.92z" style="fill:#89909b;fill-rule:evenodd;stroke-width:0"/><path d="m297.76 83.32-2.14 32.5 9.7-8.19 7.84-9.98 9.62-11.76-25.02-2.57z" class="ai"/><path d="m313.16 97.65 9.4 20.31-4.7 4.06-6.41-8.76-7.06 7.05-8.77-4.49 17.54-18.17z" class="m"/><path d="m308.24 120.74 2.56-2.57 3.21 5.35-5.77-2.78zM312.73 130.79l4.7-3.85-2.11 15.06-2.59-11.21zM360.42 119.03l-3 4.92-3.85-3.21 6.85-1.71z" class="cb"/><path d="m319.47 159.02 26.4 19.66-15.19 12.07-18.7 11.52-6.35-14.5-4.32-20.68 18.16-8.07z" class="av"/><path d="m355.28 157.74 19.09 6.23-5.82 19.36-10.73 2.29-11.95-6.94 9.41-20.94z" class="av"/><path d="m311.98 202.27 5.2 18.24 6.41 5.5 27.5 2.82.13-27.26-5.35-22.89-33.89 23.59z" class="aw"/><path d="m345.87 178.68 22.68 4.65 2.82 42.14-20.28 3.36-5.22-50.15z" class="br"/><path d="M366.67 102.75a2.59 2.59 0 1 1-5.181-.001 2.59 2.59 0 0 1 5.181.001ZM345.96 107.45a2.59 2.59 0 1 1-5.181-.001 2.59 2.59 0 0 1 5.181.001Z" class="cl"/><path d="m329.06 146.72 50.6-7.59-24.38 10.69v7.92l-26.22-11.02z" class="cb"/><path d="m307.85 204.83 15.74 21.18-5.71 10.2-4.03 1.46-16.17-13.98 10.17-18.86z" class="av"/><path d="m319.73 245.94-5.88-8.27 9.74-11.66-3.86 19.93z" class="bs"/><path d="m301.31 167.09-14.08 47.66 10.45 8.94 14.3-21.42-10.67-35.18z" class="bu"/><path d="m348.4 130.53 14.72-1.07-.41 1.07-13.66 1.19-.65-1.19z" style="fill:#fff;fill-rule:evenodd;stroke-width:0"/></g><g id="k"><path d="m475.83 164.17-28.74 2.46-2.99 102.31 5.92 38.99 18.43-3.74.37-7.11-2.39-3.99 2.82-4.07 6.58-124.85z" class="bf"/><path d="m452.32 170.53-3.23-5.26-20.76-2.06 6.12 125.81 3.72 4.42-3.35 3 .38 7.75 14.82 3.74 2.3-137.4z" class="aj"/><path d="m475.83 164.17-25.5-4.43-22 3.47 23.99 7.32 23.51-6.36z" class="al"/><path d="m469.25 289.02-18.96 3.11-3.81 4.95 3.65 4.51 18.69-4.51.43-8.06z" class="bw"/><path d="m450.29 292.13-15.84-3.11.37 7.42 15.31 5.15.16-9.46z" class="al"/><path d="m541.25 240.15-5.91 58.16-3.91 3.28 2.97 5.03-.69 6.24-23.71 3.02-4.98-47.03 4.09-28.44 32.14-.26z" class="bf"/><path d="m514.1 243.81-4.99-3.4-23.99 5.28 2.9 53.4 3.28 5.1-2.84 2.28.35 5.85 21.19 3.56 4.1-72.07z" class="aj"/><path d="m541.25 240.15-30.09-4.1-26.04 9.64 28.54 5.84 27.59-11.38z" class="al"/><path d="m535.34 298.31-24.45 3.28-4.09 4.85 3.51 4.46 24.09-4.28.94-8.31z" class="bw"/><path d="m510.89 301.59-22.87-2.5.44 7.38 21.85 4.43.58-9.31z" class="al"/></g><g id="l"><path d="m447.02 93.91 3.73.71 2.73 1.95 3.36-.9 11.49 1.98 1.78 9.67-6.41 3.37-10.22 5.64-7.59-3.12-1.79-9.63 2.92-9.67z" class="o"/><path d="m468.33 97.65 10.76 12.61-.02 2.28 4.57 3.05-9.97 1.76-9.97-6.66 4.63-13.04zM447.02 93.91l-1.13 19.3-8.26 3.12-13.97-6.6 23.36-15.82z" class="bt"/><path d="m463.7 110.69 9.97 18.77-20.13 14.97-18.7-13.78 11.05-17.44 17.81-2.52z" class="bt"/><path d="m463.7 110.69 19.94 4.9-3.2 5.68 1.11 5.41-1.65 8.76-7.83-.4-3.39-6.46-4.98-17.89z" class="ah"/><path d="m441.61 130.59-3.98 5.43-11.16-.23 2.87-9.29-5.68-16.77 22.23 3.48-4.28 17.38zM468.68 128.58l11.22 6.86-8.95 2.75-3.77 6.24-7.21 5.11-6.43-5.11v-5.3l15.14-10.55z" class="ab"/><path d="m426.47 135.79 15.14-5.2 11.93 8.54-3.4 5.3-9.82 2.73-4.94-7.23-6.04-1.79-2.87-2.35z" class="ae"/><path d="m440.32 147.16 3.27.39 8.65-.18 7.73 2.17-6.43-10.41-13.22 8.03z" style="fill:#3d2b45;stroke-width:0"/><path d="m457.11 107.32 8.75-2.71 1.87 2.89-4.03 3.19-3.73 2.52-5.71-1.19 2.85-4.7z" class="bw"/><path d="m465.86 104.61 4.25 2.71-3.39 4.11-.86.7-2.16-1.44 2.16-6.08z" class="bd"/><path d="m454.26 112.02 9.44-1.33 1.51 1.44-.55 2.03-7.55 2.17-2.85-4.31z" class="al"/><path d="m463.7 110.69 3.02.74 2.33 3.86 3.4-2.45 5.79-.98 5.4 3.73-2.09 11.09-6.63-1.28-6.24 3.18-4.98-6.57 1.57-5.68-1.57-5.64z" class="bw"/><path d="m465.27 116.33-6.38 4.17 3.03 8.73 6.76-.65-3.41-12.25zM450.75 123.76l3.68-4.15 1.79 1.3-2.14 4.64-3.33-1.79z" class="al"/><path d="m467.18 144.43-5.18-4.52 4.72-7.21 9.46.46 3.72 2.28-12.72 8.99z" class="cg"/><path d="m472.45 112.84 11.19 2.75-4.55-5.33-6.64 2.58z" class="bd"/><path d="m446.56 101.81 4.19 2.8-1.72 2.89-2.79-.36-.89-2.53 1.21-2.8z" class="bw"/><path d="m446.56 101.81-2.97 3.34.31 2.35 2.34-.36.32-5.33z" class="al"/><path d="m423.66 109.73 7.2 5.43 4.7-2.24 5.18 2.24-3.11 6.29 3.45 4.1-5.61 7.15-.63 1.45-2.48-.38-5.89 2.02-2.81-26.06z" class="cg"/><path d="m432.36 133.77 3.11-1.07.71 2.11 3.83-.35 2.85 3.55-3.33 4.57.79 4.58-10.98-9.02 3.48-2.7-.46-1.67zM443.59 147.55l8.76-2.35 7.62 4.34-16.38-1.99z" class="ak"/><path d="m462.81 98.93-3.74 1.26-1.25-1.42 1.33-1.16 3.66 1.32zM455.68 100.37l1.16-1.24-1.6-.81-1.7.98 2.14 1.07zM450.75 94.62l1.81 2.99 4.28-1.94-6.09-1.05z" class="bw"/><path d="m513.03 228.37-27.01-4.92-4.98-12.03 34.9 6.37 3.33 7.23-6.24 3.35z" class="z"/><path d="m549.54 207.6-10.4 16.54-26.11 4.23 1.07-6.61 35.44-14.16z" class="y"/><path d="m531.29 218.99 1.8 11.1 8.86-5.07-7-12.23-3.66 6.2zM495.28 215.87l-4.73 14.78 8.86 2.63 3.05-18.75-7.18 1.34z" class="bt"/><path d="m542.01 199.22 7.53 8.38-11.96 3.82-6.29 7.57-8.05-2.89-9.14 5.66-8.85-5.66-9.97-.23-6.29-4.45h-7.95l3.74-9.08 57.23-3.12z" style="fill:#68707f;stroke-width:0"/><path d="m555.01 189.9-2.58 11.52-20.7 5.18-4.98-9.01 28.26-7.69z" class="cg"/><path d="m532.21 199.99-19.14-4.51-32.03 2.77 10.44 9.35 40.25-1 .48-6.61z" class="ak"/><path d="m491.48 207.6-23.75-6.03-3.2-9.91 16.51 3.82 7.95 5.94 2.49 6.18z" class="q"/><path d="m464.53 191.66 10.03-3.48 6.83-.06 4.63-3.91 13.39-4.64 25.84 1.54 13.2 3.9 3 3.36 6.63-.51 6.93 2.04-14.86 6.58-12.39 1.77-10.99 2.25-27.78.92-24.46-9.76z" class="y"/><path d="m538.45 185.01-6.24 2.87 6.24 4.97 9.63-4.99-9.63-2.85z" style="fill:#88619a;stroke-width:0"/><path d="m516.77 200.5 3.09-5.02 9.56-3.82 2.79 3.82 7.94 1-7.94 3.51-15.44.51zM503.95 198.25l3.8-3.72-14.37-4.63-7.36 4.18 2.69 3.51 8.17-2.11 7.07 2.77zM486.02 184.21l4.27 2.96-8.55 5.68-7.18-4.67 11.46-3.97zM509.29 196.11l1.07-2.41 2.67.62v2.85l-3.74-1.06z" class="u"/><path d="m508.67 192.85 9.05-.57-2.62-5.61-14.09-4.88-9.53 3.22 1.9 4.89 15.29 2.95z" class="t"/><path d="m529 186.34-4.15-7.36-6.65.12-3.33 3.08-1.66 5.23 4.51 4.87 11.28-5.94z" class="ck"/><path d="m517.72 192.28-11.63-3.57-.84-4.39 4.4-4.04h3.44l1.78 1.9 2.85 10.1z" class="cj"/><path d="m506.09 188.71-10.81-1.42 4.39-9.86 6.77.12 3.21 2.73-3.56 8.43z" style="fill:#c3b0cc;stroke-width:0"/><path d="m524.85 178.98-8.91-3.92-2.25 4.04 1.18 3.08 9.98-3.2z" class="p"/><path d="m515.94 175.06-6.53 2.14.24 3.08 5.22 1.9 1.07-7.12z" class="ck"/><path d="m515.94 175.06-7-1.78-9.27 4.15 9.98 2.85 6.29-5.22z" class="cj"/><path d="m515.94 175.06-4.63-8.19-1.9 5.73.24 3.09 6.29-.63z" class="p"/><path d="m511.31 166.87-6.95 8.46 5.29.36 1.66-8.82z" class="ck"/><path d="m531.29 218.99.44-12.39 17.81 1-18.25 11.39zM514.1 221.76l6.91-14.9 10.28 12.13-17.19 2.77z" class="bo"/><path d="m481.04 211.42 10.44-3.82 3.8 8.27 11.34-8.65 7.48 14.54-33.06-10.34z" class="bo"/><path d="m495.28 215.87-9.26 7.58-10.19-.8v-.89l-3.07.64-8.23-.64 3.8-12.45 12.71 2.11 6.88.33 7.36 4.12z" class="bb"/><circle cx="473.79" cy="214.6" r="1.66" class="cp"/><path d="m472.76 222.4 7.14-3.88.54 1.94-4.61 2.19-3.07-.25z" class="cp"/></g></svg>