<svg xmlns="http://www.w3.org/2000/svg" id="a" viewBox="0 0 900 320"><defs><style>.aa,.ab,.ad,.ae,.af,.ag,.ah,.ai,.aj,.al,.am,.an,.ao,.ar,.at,.au,.av,.aw,.ax,.bd,.bg,.bh,.bi,.bj,.bk,.bl,.bm,.bn,.bp,.bq,.br,.bt,.bv,.bw,.bx,.bz,.ca,.cb,.cc,.cd,.cf,.cg,.ch,.ci,.ck,.cl,.cm,.j,.k,.l,.n,.o,.q,.r,.s,.t,.u,.v,.w,.x,.y,.z{stroke-width:0}.au,.j{fill:#576071}.aa,.af,.ag,.ah,.ao,.ar,.au,.av,.aw,.ax,.bg,.bk,.bl,.bn,.bq,.bx,.ca,.cb,.cc,.cd,.cf,.ch,.ck,.cm,.k,.l,.n,.o,.r,.s,.u,.z{fill-rule:evenodd}.bp,.k{fill:#67acc3}.l{fill:#51596a}.n,.w{fill:#4298b4}.al,.o{fill:#4fa9aa}.bl{fill:#89909b}.cf,.q{fill:#1d2432;opacity:.1}.bv,.r{fill:#245362}.bw,.s{fill:#3b88a1}.t{fill:#545c6d}.u{fill:#347990}.af,.v{fill:#72cbcc}.ca,.x{fill:#359496}.bg,.y{fill:#317186}.bi,.z{fill:#dddfe2}.aa,.am{fill:#c3987b}.ab,.cb{fill:#8b6651}.ad{fill:#dfbda5}.ae,.cc{fill:#8dc1d2}.ag{fill:#68707f}.ah{fill:#787f8d}.ai{fill:#7bb7ca}.aj{fill:#9a9fa9}.bq{fill:#275b6c}.an,.av{fill:#2e6a7d}.ao{fill:#5f6878}.ar{fill:#d9eaf0}.at,.ax{fill:#454d5d}.aw,.bz{fill:#388199}.cl{fill:#55a2bb}.bd{fill:#bbbfc6}.bh,.bn{fill:#343c4b}.bj{fill:#404857}.bk,.bt{fill:#2a6275}.bm,.ck{fill:#3e90aa}.br,.cm{fill:#4b5464}.bx,.cg{fill:#1e7678}.cd{fill:#94d5d5}.ch{fill:#cccfd4}.ci{fill:#232a38}</style></defs><g id="b"><path d="m126.6 281.79 8.62-3.17 5.05 4.92 37.92 3.14 120.05-16.55-35.44-10.76-44.29-4.16-126.86 9.04-12.74 11.2 47.69 6.34zM438.27 266.68l39.34-12.48 16.94-9.97-36.65-3.52-84.49 9.59-26.44 15.69 37.76.28-83.28 10.34-3.21 6.06 53.12 4.54 13.77 16.97 30.82-11.91-13.72-4.09 105.48-9.58 2.75-4.98 5.35 3.58 45.66-6.26-103.2-4.26zM260.8 310.26l23.48-17.99h19.7l6.82 8.18-7.07 2.68-42.93 7.13z" class="q"/><path d="m317.88 304.91 19.58-12.64 11.08 6.32-2.7 4.56-27.96 1.76zM648.5 282.39l-53.65-9.51-40.02.96-62.05 8.55-34.42 4.29 13.27 15.55 29.54 10.15 20.48.04 99.05-8.91 27.8-21.12zM869.35 278.12l-88.59 7.27-9.07-6.47-8.46 4.54-84.63-6.98-13.97-11.65 63.52-11.94 97.4 3.14 28.53 4 15.27 18.09z" class="q"/></g><g id="c"><path d="m395.17 32.35 12.82 194.54-60.51 1.66-11.61-180.4 59.3-15.8z" class="bt"/><path d="m384.86 46.72 15.07 198.7 48.36-3.5-5.26-201.51-58.17 6.31z" class="bv"/><path d="m436.97 97.67-49.12-11.48-51.98 5.74 2.73 20.32 92.98-9.69 5.39-4.89zM440.47 158.97l-47.93-9.92-52.07 4.38.93 22.06 95.57-11.11 3.5-5.41zM444.49 229.48 397.77 217l-51.56 4.24 1.27 24.18 86.91-7.28 10.1-8.66z" class="cl"/><path d="m414.65 124.05-24.51-7.61-13.68 1.77-1.2 3.07-12.09-1.35-17.63 2.28-1.92 1.84-7.75-.58 5.53 10.69 34.81-.27 27.46-4.46 10.98-5.38z" class="ar"/><path d="m402.12 125.4-25.66-7.19-13.29 1.72 22.78 8.09 10 1.41 6.17-4.03zM370.49 130.45l-24.95-8.24-9.67 1.26 20.37 8.76 7.68 1.76 6.57-3.54z" class="cc"/><path d="m341.4 134.16 14.84-1.93 6.42 11.68-3.83 15.98-15.77.93-1.66-26.66z" class="s"/><path d="m356.24 132.23 14.25-1.78 4.2 14.16-2.76 13.08-13.1 2.2-2.59-27.66z" class="ca"/><path d="m370.49 130.45 15.46-2.43 5.57 11.33-3.63 16.36-15.96 1.98-.94-17.66 1.14-2.24-1.36-2-.28-5.34z" class="ao"/><path d="m370.77 135.79 15.59-1.9 2.26 1.01-1.96 3.2-15.67 1.93-.22-4.24zM361.99 136.35l3.24-.62.62 7.13-3.19.73-.67-7.24z" class="af"/><path d="m346.22 138.19 4.64 3.15-4.64 3.83v-6.98z" style="fill:#7bb7ca;fill-rule:evenodd;stroke-width:0"/><path d="m385.95 128.02 16.17-2.62 5.52 10.1-3.27 18.4-16.48 1.81-.85-12.12 1.58-1.91-1.79-1.13-.17-2.45 2.58-2.31-2.88-1.9-.41-5.87z" class="u"/><path d="m386.36 133.89 16.27-2.01 1.74 1.34-1.44 2.51-16.27 2.37-.3-4.21zM386.83 140.55l16.32-2.01 1.92 1.49-1.67 1.65-16.36 1.91-.21-3.04z" class="n"/><path d="m402.12 125.4 12.53-1.35-.71 29.43-9.57.42-2.25-28.5z" class="ca"/><path d="m407.23 129.72 3.09-.29-.05 11.21-2.75.35-.29-11.27z" class="af"/><path d="m410.32 62.37-16.7-8.02-15.1-2.49-16.94 1.75 8.91 5.84 16.02 9 23.81-6.08zM366.46 64.24l-5.58-7.07-10.48-1.4-9 3.57 2.92 3.41 10.14 7.45 12-5.96z" class="cc"/><path d="m416.98 59.45-28.03-8.76-10.43 1.17 24.33 8.99 5.74 2.13 8.39-3.53zM386.05 62.49l-24.47-8.88-11.18 2.16 16.06 8.47 8.7 3.68 10.89-5.43zM351.92 65.64l-10.52-6.3-9.34-.41 4.99 7.65 7.27 4.79 7.6-5.73z" class="ar"/><path d="m337.05 66.58 14.87-.94 7.82 14.02-5.02 19.77-15.44 1.72-2.23-34.57z" class="o"/><path d="m351.92 65.64 14.54-1.4 6.95 14.57-3.68 18.86-15.01 1.76-2.8-33.79z" class="ca"/><path d="m337.68 76.4 14.99-1.63 3.57 1.63-3.23 2.41-14.98 3.03-.35-5.44z" class="aw"/><path d="m352.67 74.77 14.68-1.42 3.14 1.71-2.66 3.24-14.82.51-.34-4.04z" class="o"/><path d="m366.46 64.24 19.59-1.75 4.53 14.95-2.69 17.41-18.16 2.82-3.27-33.43z" class="bg"/><path d="m374.46 71.6 2.45-3.15 3.16 2.8-2.69 3.04-2.92-2.69zM375.16 79.31l2.57-2.92 3.16 2.69-3.04 3.5-2.69-3.27z" class="o"/><path d="m402.85 60.85 14.13-1.4-.64 6.19-2.13 1.52 1.84 1.29-.3 2.92-2.16 1.98 1.81 1.42-1.8 17.43-9.23 1.01-6.17-14.85 4.65-17.51z" class="bg"/><path d="m416.34 65.64-13.2 1.52-2.31 1.29 2.46 1.75 12.76-1.75.29-2.81zM415.75 71.37l-12.35 1.2-2.57 2.2 2.74 1.56 11.83-1.56.35-3.4z" class="k"/><path d="m386.05 62.49 16.8-1.64 1.52 32.36-16.48 1.64-1.84-32.36z" class="ca"/><path d="m392.22 67.75 5.14-.59.35 4.21-5.14.46-.35-4.08z" class="cd"/><path d="m326.72 45.32-50.05-7.58-14.55 213.92 79 12.88 4.72-19.7-10.73-164.48-8.39-35.04z" style="fill:#347990;stroke-width:0"/><path d="m290.84 58.01 20.13 3.37 12.56 188.41-40.29-4.59 7.6-187.19z" style="fill:#4b9db7;stroke-width:0"/><path d="m276.67 37.74 92.77-14.15 80.23 8.76-12.66 5.39-95.96 12.02-14.33-4.44-50.05-7.58z" class="ai"/><path d="M449.67 32.35 326.72 45.32l14.4 221.22 117.25-11-8.69-223.19Zm-96.49 205.79L341.4 59.33l92.79-10.3 10.3 180.44-91.31 8.67Z" class="y"/><path d="M441.16 106.06 340.7 118.21l-.23-10.98 96.5-9.56 4.19 8.39zM440.47 158.97l-94.63 10.19v10.16l98.65-12.26-4.02-8.09z" class="y"/></g><g id="d"><path d="m650.13 94.44-1.42 17.95 1.28 4.29 1.93-3.59 1.33-19.24-3.12.59z" style="fill:#c6e0e8;stroke-width:0"/><path d="m648.09 120.21 3.3.59.53-7.71-3.21-.7-.62 7.82z" class="bp"/><path d="m636.69 242.72-2.39 7.93 27.33 5.31 6.89-8.33-11.56-3.92-20.27-.99z" class="cg"/><path d="m661.63 255.96 34.78-6.62-1.83-8.74-20.1.68-11.93 7.03-.92 7.65z" class="cg"/><path d="m636.69 242.72 25.86 5.59 32.03-7.71-32.03-4.21-25.86 6.33z" class="v"/><path d="m674.48 93.6-7.47 148.11-5.46-.05 1-138.2 11.93-9.86z" class="y"/><path d="m636.13 35.1 33.91 8.35 6.08 20.56-13.57 39.45-42.5-8.06 4.54-17.04 4.92-6.07-.5-10.51 3.95-14.81 3.17-1.65-2.23-1.87 2.23-8.35z" class="ae"/><path d="m670.04 43.45 31.3-8.43 2.19 10.3-2.19 1.63 2.78 1.14 2.92 13.69-2.24 9.98 5.63 5.93 3.77 17.71-51.65 8.06 7.49-60.01z" class="cl"/><path d="m636.13 35.1 34.38-5.9 30.83 5.82-31.3 8.43-33.91-8.35z" style="fill:#a0cbd9;stroke-width:0"/><path d="m654.86 35.97 15.88-3.27 13.09 2.57-16.12 3.74-12.85-3.04z" class="cl"/><path d="m629.01 61.78 8.64 1.7.85 3.1 2.07-2.53 5.33 1.05 1.01 2.53 1.73-1.99 6.22 1.22.17 2.42 2.33-1.92 9.47 1.85 5.59 5.56-7.92 13.07-10.57-2.51-.88-2.77-2.55 1.96-5.15-1.23-1.01-3.06-2.29 2.28-5.92-1.41-.26-3.09-2.22 2.51-9.06-2.16 4.42-16.58z" class="al"/><path d="m633.65 80.52 4-17.04 2.92.57-4.44 17.05-2.48-.58zM642.05 82.51l3.85-17.41 2.74.54-3.29 17.65-3.3-.78zM650.5 84.52l4.36-17.66 2.5.5-3.43 17.97-3.43-.81zM666.83 69.21l7.65-1.41 1.64 1.11 1.48-1.69 8.56-1.58 1.3 1.58 1.68-2.13 6.86-1.27 2.08.83.84-1.37 8.12-1.5 3.39 15.91-9.09 2.01-1.22-1.97-1.2 2.5-7.82 1.73-1.49-.86-1.24 1.46-8.83 1.96-1.67-1.23-1.75 1.98-11.62 2.57 2.33-18.63z" class="x"/><path d="m674.48 67.8 1.64 17.47 3.42-.75-1.94-17.3-3.12.58zM686.16 65.64l2.21 16.92 2.73-.6-1.96-16.87-2.98.55zM696 63.82l2.92 16.41 2.42-.53-2.42-16.42-2.92.54z" class="cg"/><path d="m633.9 43.45 35.18 7.7 3.77 2.46-4.33 2.07-35.56-8.71.94-3.52z" class="cl"/><path d="m669.08 51.15 34.45-5.83.59 2.77-35.6 7.59.56-4.53z" class="bw"/></g><g id="e"><path d="m248.59 270.13-12.96-2.28-5.22-12.52 16.02-.93 3.04 12.07-.88 3.66z" class="j"/><path d="m262.8 259.37.89 9.18-15.1 1.58-5.78-16.43 19.99 5.67zM140.27 283.54l12.82-1.96 7.48-19.95-20.88 12.38-4.47 5.59 5.05 3.94zM78.91 275.45l11.34-1.23 7-17.15-20.32 1.99 1.98 16.39z" class="at"/><path d="m139.67 273.62.6 9.92-13.67-1.75-4.11-14.41 17.18 6.24zM66.44 264.14l-.47 9.47 12.94 1.84 4.91-16.39-17.38 5.08z" class="j"/><path d="m255.27 184.49 7.53 74.88-123.11 14.64-26.32-78.68 94.98-3.05 46.92-7.79z" class="bt"/><path d="m139.69 274.01-73.25-9.87 2.11-71.62 68.87 13.06 2.27 68.43z" class="y"/><path d="m150.87 216.32 90.83-12.5 5.02 41.34-92.46 12.01-3.39-40.85z" class="w"/><path d="m83 210.01 22.66 10.26 18.21-1.4-5.06 17.64 5.78 19.72-20.33-8.94-23.59 4.07L83 210.01z" class="al"/><path d="m123.87 218.87-15.93 5.96-3.68 8.29 1.58 12.78 18.75 10.33-.72-37.36z" class="x"/><path d="m104.26 233.12 20.33 23.11-43.92-4.87 23.59-18.24z" class="cg"/><path d="M104.26 233.12 83 210.01l40.87 8.86-19.61 14.25z" class="v"/><path d="m50.43 177.79 100.44 2.57-13.45 25.22-85.34-11.44-.66-6.55 2.02-1.51-2.34-1.59-.67-6.7z" class="al"/><path d="m136.5 188.6 25.24-10.58 58.17-5.37 62.84-3.96-1.33 6.96-2.41 2.62 1.64 1.41-1.41 7.4-141.82 18.5-.92-16.98z" class="x"/><path d="m50.43 177.79 140.51-15.42 91.81 6.32L136.5 188.6l-86.07-10.81z" class="v"/><path d="M136.89 195.78 51.1 184.49l.32 3.1 85.62 10.99 1.8-1.52-1.95-1.28z" class="x"/><path d="m136.89 195.78 144.53-20.13-.77 4.03-143.61 18.9-.15-2.8z" class="bx"/><path d="m167.58 223.39 4.2-.88.7 7.88-4.55.88-.35-7.88zM225.26 215.7l4.03-.55.55 7.69-3.84.55-.74-7.69z" class="an"/><path d="m144.1 174.54-21.57-2.76-13.89 8.35 23.06.81 12.4-6.4z" class="cf"/><path d="m127.28 143.79-20.21-3.85-13.67 3.85 17.99 7.13 15.89-7.13z" class="r"/><path d="m93.4 143.79-2.92-6.42 2.92-1.4 5.49 12.96-5.49-5.14zM100.29 124.75l3.99 24.18 8.16.73 3.85-41.14-3.09-1.87-1.81 21.5h-7.11l-1.65-9.59-2.34 6.19zM128.28 121.36l-11.05 29.56-2.8-1.26 10.16-29.93 3.69 1.63z" class="u"/><path d="m104.28 128.15 2.79 21.51-1.4-23.16-1.39 1.65zM111.39 128.15l-1.83 18.8-.92-17.06 2.75-1.74z" class="bk"/><path d="m94.13 163.46 4.7-10.73 11.78-.35 3.82 9.37-1.06 12.44-19.24-10.73z" class="aw"/><path d="m108.64 155.53 5.79-3.15h7.71l6.14 11.08-6.67 10.15-9.99-2.48-2.98-15.6z" class="bg"/><path d="m92.13 168.01 4.07 10.69 12.44 1.43 5.79-4.64-2.81-4.36-19.49-3.12z" class="av"/><path d="m108.64 180.13 17.66-2.65 5.14-8.32-19.82 1.97-2.98 9z" class="bq"/><path d="m92.13 168.01 19.49 3.12 1.58-1.97-2.59-3.33-16.48-2.37-2 4.55z" class="af"/><path d="m110.61 165.83 17.67-2.37 3.16 5.7-19.82 1.97-1.01-5.3z" class="o"/><path d="m98.83 152.73-5.43-8.94 16.16 3.16 2.88 3.97-3.8 4.61-9.81-2.8z" class="av"/><path d="m109.56 146.95 17.72-3.16-5.14 8.59-13.5 3.15.92-8.58z" class="bq"/><path d="m83 137.55 7.48-7.19 9.81 3.6-8.16 7.05-9.13-3.46zM88.47 118.91l9.5-11.64 12.37 8.14-10.05 9.34-11.82-5.84zM101.02 129.21l10.85-6.8 9.48 6.86-12.38 6.7-7.95-6.76zM120.44 118.68l5.92 7.82 11.06-5.25-8.23-7.46-8.75 4.89zM104.28 103.96l12.01 4.56 10.03-5.96-12.96-7.46-9.08 8.86z" class="z"/><path d="m95.5 117.25 3.42-3.07 3.33 1.49-3.95 3.59-2.8-2.01zM111.53 102.18l2.81-2.63 3.94 2.28-3.07 1.92-3.68-1.57zM125.64 119.53l3.15-1.58 1.84 1.93-3.33 2.1-1.66-2.45zM107.5 129.25l3.07-2.37 2.8 1.76-3.5 2.54-2.37-1.93zM88.58 136.17l2.19-2.01 2.89.78-2.63 2.28-2.45-1.05z" class="o"/><path d="m242.03 165.89-11.2 6.32-59.63 3.28-2.1-3.28-7.25 2.5-8.99-2.5 16.24-9.84h21.84l51.09 3.52z" class="cf"/><path d="m162.09 150.72-3.04 2.71-6.19 15.5v3.28l14.61-1.9-5.38-19.59z" class="l"/><path d="m152.86 172.21-3.27-1.08 11.56-28.68.94 8.27-9.23 21.49z" class="bl"/><path d="m169.1 116.01 42.17-3.76 7.24 55.04-43.22 3.84-6.19-55.12z" class="cd"/><path d="m178.19 134.59.93 8.63 2.46-1-1.7-7.98-1.69.35z" class="ah"/><path d="m184.91 158.34-3.33 12.42 3.33.37 3.76-1.97.69-4.43-4.45-6.39z" class="bk"/><path d="m197.78 154.39 6.58 2.02 4.81 10.88-20.5 1.87-3.76-10.82 4.45-3.03 8.42-.92z" class="bg"/><path d="m197.78 154.39 3.33 4.65-6.5-3.41-2.78 5.34-2.47-5.66 3.66-1.88 4.76.96z" class="ch"/><path d="m204.27 133.02 3.59-2.89-16.03-6.55-13.64 11.01 6.1 1.58 10.43-1.58 9.55-1.57z" class="r"/><path d="m187.06 146.42.84 3.24 1.44.18-.73 2.54.75 2.93 5.25.32 4.05-5.44-1.66-8.94-2.9-2.89-4.9-.09-2.14 8.15z" class="aa"/><path d="m204.36 138.71.35 10.34-6.05 1.87-2.36-1.08-2.2-11.48 4.12-4.12 6.14 4.47z" style="fill:#dfbda5;fill-rule:evenodd;stroke-width:0"/><path d="m194.61 155.63 3.17-1.24 6.93-5.34-8.41.79-1.69 5.79zM187.9 149.66l2.88-.61-2.17 3.33-.71-2.72z" class="cb"/><path d="m197 141.25 5.43-.61-1.67 1.31-.43 4.47-1.06-4.2-2.27-.97z" class="aa"/><path d="m194.1 138.36-1.48 5.26v4.47l-2.37-3.24-3.19 1.57-1.1-4.2 1.94-3.51 6.2-.35z" class="ah"/><path d="m204.36 138.71-.09-5.69-11.39-2.54-1.05 4.46 2.27 3.42 10.26.35z" class="bg"/><path d="m192.88 130.48-8.59 5.69 1.67 6.05 8.14-3.86-1.22-7.88z" class="bk"/><path d="m163.38 112.25-7.25 4.47 5.72 57.99 9.35.78 1.4-14.52-6.07-45.88-3.15-2.84z" class="ag"/><path d="m215.12 107.27-46.03 4.43-1.63 2.09-4.08-1.54 7.82 63.23 4.44-1.87 1.18 1.24 46.36-5.24-2.1-3.39 1.54-.98-6.99-54.06-1.56-1.03 1.05-2.88Zm-43.57 11.05 37.26-3.22 6.42 49.28-37.19 4.55-6.5-50.61Z" class="l"/><path d="m208.81 115.09 6.31-7.82.51 3.91-6.82 3.91zM171.55 118.32l-8.17-6.07 5.72-.55 2.45 6.62zM178.05 168.93l-6.85 6.56 5.62-.64 1.23-5.92zM215.24 164.38l7.94 5.23-.56-4.37-7.38-.86z" class="ax"/></g><g id="f"><path d="m383.11 273.11 10.63-1.4 9.34-54.42-18.78 4.38-1.19 51.44z" class="bv"/><path d="m298.24 282.67 8.99-1.91-1.05-62.84h-13.63l-2.49 31.01 8.18 33.74z" class="bt"/><path d="m294.32 237.18 71.97 9.76v-25.33l-68.05-3.69h-9.35l5.43 19.26z" style="fill:#abafb8;stroke-width:0"/><path d="m489.99 215.99-2.28 62.61-9.63-1.75-6.25-64.54 18.16 3.68z" class="y"/><path d="m385.56 245.31 107.05-10.05v-22.95l-104.72 12.74-2.33 20.26z" class="aj"/><path d="m487.71 278.6 8.1-1.4 6.07-59.98-7.08-7.37-11.47 6.47 4.38 62.28z" class="bt"/><path d="m278.79 221.81 7.28 58.95 12.17 1.91-5.69-64.75-13.76 3.89z" class="bz"/><path d="m373.12 289.87 9.11-1.69 11.51-67.63-18.48 10.99-5.82 17.39 3.68 40.94z" class="bt"/><path d="m375.26 231.54-2.14 58.33-11.43-1.78-4.36-64.9 17.93 8.35z" class="bz"/><path d="m276.49 202.9.96 7.89 2.07 2.77-1.56 1.46.83 6.79 96.47 9.73 18.48-23.36-117.25-5.28z" class="al"/><path d="m375.26 231.54 126.62-14.32.55-5.48-2.57-1.74 2.99-2.42.73-7.15-61.3 2.47-58.12 5.28-8.59 9.11-.31 14.25z" class="x"/><path d="m276.49 202.9 96.69-14.3 94.65 9 35.75 2.83-70.21 9.07-57.8 7.79-99.08-14.39z" class="v"/><path d="m277.45 210.79 98 11.94 2.75 1.14-2.8 1.18-97.44-10.03-.51-4.23z" class="x"/><path d="m375.45 222.73 127.4-15.15-.42 4.16-127.03 13.31.05-2.32z" class="cg"/><path d="m284.28 226.85 3.39.47.58 5.49-3.39-.24-.58-5.72zM363.83 235.03l4.32.82-.23 6.77-3.74-.58-.35-7.01z" class="cl"/><path d="m380.65 235.26 4.09-.58-.93 6.89-3.63.58.47-6.89zM490.46 223.46l4.09-.46-.35 7.24-3.27.12-.47-6.9z" class="bm"/><path d="m446.3 201.24-14.07 4.34-32.73 2.4 32.53-8.67 14.27 1.93z" class="q"/><path d="m399.5 207.98 32.94-4.79-.41-3.88-1.28-.69 1.06-1.4-.33-3.08-36.03 2.27 4.05 11.57z" style="fill:#ecf4f7;stroke-width:0"/><path d="m432.03 199.31-17.6 1.75 17.38-3.84.22 2.09z" style="fill:#b3d5e1;stroke-width:0"/><path d="m399.24 198.4-9.87-4.15-23.83.71-.41 9 9.33 1.09 2.93-1.69 2.05 2.27 20.06 2.35-.26-9.58z" class="t"/><path d="m374.46 205.05.79-9.1 3.26-.53 1.81 1.05-.88 9.16-4.98-.58z" style="fill:#89909b;stroke-width:0"/><path d="m365.54 194.96 36.92-6.96 29.02 6.14-32.24 4.26-33.7-3.44z" style="fill:#787f8d;stroke-width:0"/></g><g id="g"><path d="m823.51 276.84-13.67-1.09-4.38-15.24 18.58 1.22-.53 15.11z" class="j"/><path d="m780.76 285.39 11.56-2.63 3.68-16.3-14.76 9.02-3.99 3.6 3.51 6.31zM678.6 276.48l9.97-1.83 5.45-14.49-13.32.7-5.61 5.96 3.51 9.66zM835.78 265.12l.35 9.1-12.62 2.62-5.61-15.46 17.88 3.74z" class="at"/><path d="m660.42 265.39.66 8.98 17.52 2.11 2.1-15.62-20.28 4.53zM781.24 275.48l-.48 9.91-17.53-1.93-3.15-14.19 21.16 6.21z" class="j"/><path d="m654.59 199.76 5.83 65.63 120.82 10.09 16.69-36-12.97-18.07-65.18-18.57-65.19-3.08z" class="aw"/><path d="m784.96 221.41 48.71-9.84 2.11 53.55-54.54 10.36 3.72-54.07z" class="bg"/><path d="M791.95 231.15h17.3l15.19-6.33 2.11 31.21H808.2l-15.51 6.83 4.19-18.02-4.93-13.69z" style="fill:#abafb8;fill-rule:evenodd;stroke-width:0"/><path d="m791.95 231.15 13.86 2.72 4.53 9.06-3.13 9.96-14.52 9.97-.74-31.71z" style="fill:#9a9fa9;fill-rule:evenodd;stroke-width:0"/><path d="m810.34 242.93 16.21 13.1-33.86 6.83 17.65-19.93z" class="ah"/><path d="m791.95 231.15 18.39 11.78 14.1-18.11-32.49 6.33z" class="ch"/><path d="m784.96 221.41-142.28-15.95.84-7.13 3.36-1.25-2.94-2.36.75-6.35 40.22-1.11 113.02 11.07-12.97 23.08z" class="o"/><path d="m785.88 205.46 12.05-12.06 49.64-3.16.37 8.09-2.53 2.95 2.75 2.05.33 7.33-63.53 10.75.92-15.95z" class="ca"/><path d="m643.94 194.72 141.59 16.85h4.16l-4.4 4.07-141.77-17.31.42-3.61z" class="ca"/><path d="m785.53 211.57 62.41-13.24.22 5-62.87 12.31.24-4.07z" class="bx"/><path d="m644.69 188.37 69.59-14.95 133.29 16.82-61.69 15.22-141.19-17.09z" class="af"/><path d="m668.79 217.4 49.06 5.61-3.68 35.92-44.86-5.08-.52-36.45zM725.03 224.41l47.66 5.61-2.27 35.04-48.19-5.08 2.8-35.57z" class="k"/><path d="m704.88 234.57 4.56.53-.88 8.59-4.73-.53 1.05-8.59zM731.87 237.55l4.38.7-.88 7.89-4.73-.53 1.23-8.06z" class="aw"/><path d="m847.57 190.24-15.28 3.77-44.18.44-3.85-7.45-17.35 4.73-24.7-3.33 5.25-5.82 28.4-1.58 44.53 5.81 27.18 3.43z" class="cf"/><path d="m679.42 123.86 31.6-4.85 20.67 3.16 21.73 6.48-13.32 14.19-48.01-11.39-12.67-7.59z" class="ar"/><path d="m696 125.96 35.69-3.79 14.37 1.4-30.66 6.63-10.34.73-9.06-4.97z" class="cc"/><path d="m763.93 115.33-32.24 6.84 20.33 7.36 32.24-10.69-20.33-3.51z" class="ar"/><path d="m677.6 181.15 1.05-33.05 2.14-1.37-2.04-1.91.11-3.5 1.58-2.16-1.45-1.75.43-13.55 16.58 2.1 4.68 23.05-9.58 33.57-13.5-1.43z" class="o"/><path d="m678.99 137.41 15.79 2.64 4.14 2.79-4.59 2.39-15.47-3.91.13-3.91zM678.75 144.82l15.35 3.07 1.9 1.26-2.2 2.23-15.15-3.28.1-3.28z" class="cc"/><path d="m696 125.96 19.4 4.24 1.75 11.07-1.75 30.84-5.61 12.39-18.69-1.92 4.9-56.62z" class="s"/><path d="m700.41 143.11 3.51-2.81 2.71 4.56-4.03 2.36-2.19-4.11zM699.36 153.71l3.33-2.54 2.46 3.94-3.6 2.54-2.19-3.94z" class="cc"/><path d="m715.4 130.2 18.39 4.23-6.3 51.87-17.7-1.8 5.61-54.3z" class="l"/><path d="m721.24 141.03 3.73.82-.81 7.36-3.86-.82.94-7.36zM719.84 153.18l3.5.82-.58 6.19-3.51-.82.59-6.19zM718.67 164.28l3.5.93-.7 6.78-3.85-.7 1.05-7.01z" class="bl"/><path d="m727.49 186.3 4.2-64.13 15.95 2.8 2.17 8.94-3.15 41.77-4.45 12.72-14.72-2.1z" class="bg"/><path d="m750.31 127.48 3.95-3.62 30-5.02 3.85 63.25-35.7 4.91-6.71-4.42 4.61-55.1z" class="bk"/><path d="m736.6 130.75 4.9.88-1.4 11.21-4.55-1.05 1.05-11.04z" style="fill:#55a2bb;fill-rule:evenodd;stroke-width:0"/><path d="m747.64 124.97 6.62-1.11-.27 9.43-1.39 1.38 1.31 1.25-.2 6.92-1.34 1.98 1.24 1.4-.26 8.63-1.45 1.6 1.38.94-.24 8.01-1.43 2.21 1.34.91-.21 7.31-2.43 1.81 2.34.95-.24 8.41-10.2 1.4.7-8.19 2.51-2.19-2.25-.84.63-7.35 2.26-1.7-2.02-1.2.63-7.35 1.95-1.93-1.65-1.52.73-8.56 1.53-2.34-1.2-1.47.59-6.96 1.61-1.75-1.4-.71.81-9.37z" class="ca"/><path d="m746.83 134.34 7.16-1.05-.08 2.63-7.29.88.21-2.46zM746.03 143.76l7.68-.92-.1 3.38-7.91 1.35.33-3.81zM744.97 156.13l8.38-1.28-.07 2.54-8.61 2.19.3-3.45zM744.04 166.93l9-1.53-.09 3.12-9.15 1.31.24-2.9zM743.17 177.18l9.57-1.35-.09 2.76-9.74 1.62.26-3.03z" class="bx"/><path d="m769.89 135.05 30.05-5.86 23.04 3.49-32.24 14.31-20.85-11.94z" style="fill:#a0cbd9;fill-rule:evenodd;stroke-width:0"/><path d="m769.89 135.05 20.33 3.71 4.73 6.59v33.53l-6.84 15.57-21.2-2.72 1.33-25.35 3.34-3.62-2.98-3.18.27-5.17 4.7-3.03-4.37-3.28.69-13.05z" class="s"/><path d="m769.2 148.1 20.55 3.07 3.21 2.05-3.46 4.43-20.63-3.24.33-6.31zM768.6 159.58l20.72 3.05 3.64 1.65-3.89 4.8-20.83-2.7.36-6.8z" class="k"/><path d="m788.11 194.45 32.28-7.64 2.59-54.13-32.76 6.08-2.11 55.69z" class="bg"/><path d="m799.97 146.17 12.73-2.8-.23 3.5-12.62 2.69.12-3.39z" class="k"/></g><g id="h"><path d="m575.64 301.32-13.92-2.29-4.67-12.25 18.59-1.56.98 9.38-.98 6.72z" class="j"/><path d="m593.26 285.73-1.44 12.51-16.18 3.08-4.49-16.23 22.11.64zM521.65 312.42l15.3-3.33 3.51-14.49-15.42 6.43-1.88 3.15-3.79 2.81 2.28 5.43z" class="bj"/><path d="m523.16 304.18-1.51 8.24-16-4.97-.24-9.34 10.87.41 6.88 5.66z" class="j"/><path d="m614.29 129.43-29.08-9.44-24.48-7.89-14.67 16.86 53.27 18.69 14.96-18.22z" class="ai"/><path d="m594.89 141.34-52.56-15.65-19.41-4.41-15.35 84.73 75.18 24.58 17.28-52.57-5.14-36.68z" class="cl"/><path d="m578.05 148.13-21 68.67-31.08-11.44 25-65.65 27.08 8.42z" class="bw"/><path d="m568.74 145.24-4 21.82-17.72 3.28-4.69-28.3 15.2-23.12 27.68 1.07-16.47 25.25z" class="q"/><path d="m439.06 275.91 2.95 9.73 5.93 1.61 6.73 1.91 1.27-9.23-5.67-7.05-11.21 3.03z" class="j"/><path d="m455.94 279.93 65.24-19.26-9.81-61.15-60.1 15.94-4.03 14.02 8.7 50.45z" class="an"/><path d="m471.63 286.68 33.78 11.43 11.92-38.08-53.74-12.39 8.04 39.04z" class="x"/><path d="m471.63 286.68 7.13 2.41 3.09-28.73 17.35 35.65 6.21 2.1 11.92-38.08-53.74-12.39 8.04 39.04z" class="q"/><path d="m433.37 209.5 5.69 66.41 16.88 4.02-2.57-60.81-5.02-9.78-14.98.16z" class="cl"/><path d="m433.37 209.5 20 9.62 53.26-16.22-23.65-8.35-49.61 14.95z" class="ai"/><path d="m470.76 209.97-3.24 4.84-14.15 4.31-3.7-1.77 10.88-8.29 10.21.91z" class="ad"/><path d="m463.92 208.18-.97 3.56-4.3 3.69-8.98 1.92 10.88-8.29 3.37-.88z" class="am"/><path d="m463.9 199.41-11.73 1.83 1.84 6.18 8.94 4.32 7.81-1.77-1.03-7.07-5.83-3.49z" class="am"/><path d="m506.63 159.9-23.21 27.41 7.04 7.58 5.74 2.2 13.05-14.92-2.62-22.27z" class="cg"/><path d="m483.42 187.31-14.5 6.69 1.72 9.37 8.12 3.91 19.41-6.04-1.97-4.15-12.78-9.78z" class="x"/><path d="m471.66 195.83 7.1 11.45-8 2.69-6.86-10.56 7.76-3.58z" class="bi"/><path d="m462.95 211.74-13.28 5.61-7.39-3.56 9.89-12.55 10.78 10.5z" class="ad"/><path d="m489.29 221.81 11.18 27.98 41.86-6.59-19.5-14.71-33.54-6.68z" class="bh"/><path d="m496.2 197.09-6.91 24.72 53.04 21.39 7.12-25.11-28.6-10.86-24.65-10.14z" class="cg"/><path d="m516.05 158.97-9.42.93 5.27 19.38 13.41 17.04 22.41-12.49 17.02-16.77-6.99-4.41-29.04 4.66-12.66-8.34z" class="bd"/><path d="m510.76 57.72 21.97 5.42 12.6 6.07 11.13-3.27 15.81.64-4.29 7.98-6.94 3.13 3.62 10.15-1.48 10.06-4.26 12.21-7.4 9.61 3.08.49 2.37 2.57 1.05-7.19 6.12-6.82 8.22 2.14 5.17 3.56-8.69 13.53-6.16 6.88-.41 5.14-4.18 6.39-2.59 2.89.23 3.21-10.4 5.88-16.12 5.7-4.2-4.66 1.95-6.92-3.4-8.57-29.47-7.52 6.38-34.42-1.07-6.76 2.94-11.69 2.92-3.24 5.5-22.59z" class="ad"/><path d="m558.8 67.9-7.89 23.26-3.42 7.45-2.09 14.16-9.67 34.04-12.17-2.87.95 4.84-1.35 5.16 4.46 14.09 28.11-15.52 6.92-13.04 4.59-11.53-10.27-5.16 2.84-5.54.92-5.14-4.37 1.42 6.82-15.62.33-9.48-2.47-10.73 6.06-4.3 5.17-6.81-9.62-.94-3.85 2.26z" class="am"/><path d="m567.24 127.94-10.27-5.16 5.68 16.69 4.14-6.6.45-4.93zM523.56 143.94l17.28 4.05-11.63 16.1-4.61-4.83-1.44-5.32.4-10z" class="ab"/><path d="m541.73 106.54-.54-9.78-9.34-2.64-4.99 9.86 18.54 8.79-19.55-2.79-3.89 3.2-.41-8.11 8.92-15.96 14.86 2.05.58 10.12-4.18 5.26zM511.39 98.61l.13-8.45-8.44-3.13-2.47 1.19-.03 11.05 15.12 6.33.04 3.46-15.27-7.06-2.25-9.49 3.58-10.84 3.46-1.36 2.28-1.07 6.48-2.84 6.24 5.56.59 2.07-3.62 2.69-1.78 12.42-4.06-.53z" class="am"/><path d="m528.77 90.62-10.63-3.6-2.42 18.58-1.39 5.93 3.18 2.38 4.45-.73 1.36-5.99 5.45-16.57z" style="fill:#e8cab6;stroke-width:0"/><path d="m528.77 122.27-12.42.09-9.62-4.59-.07 2.96 8.92 4.2 11.91.33 1.28-2.99zM562.36 121.07l4.87-8.46 4.56 2.3-9.43 6.16z" class="ab"/><path d="M510.76 57.72 553 54.35l-3.2 9.06-4.47 5.8-34.57-11.49z" class="bi"/><path d="m572.27 66.58 8.95 4.74 1.49 18.12-10.29-3.4-11.38-8.35 11.23-11.11z" class="bd"/><path d="m582.71 89.44 2.89 30.92-13.24-9.45-10.32-10.43-1-22.79 21.67 11.75z" class="bi"/><path d="m563.17 103.18-5.44 5.13-3.35 6.16 5.43 2.77 4.6-8.97 11.4 6.65-8.57 13.02-4.59 11.53 22.56-19.48-5.89-5.09-16.15-11.72z" class="aj"/><path d="M545.33 69.21 553 54.35l19.27 12.23-26.94 2.63z" class="bd"/><path d="m558.88 105.98-11.39-7.37-.47 3.19.47 2.54 10.24 3.97 1.15-2.33z" class="ab"/><path d="m564.14 108.77-4.46-4.4-1.95 3.94 5.51 2.28.9-1.82z" style="fill:#737373;stroke-width:0"/><path d="m555.73 152.51 2.02 10.14-23.42 10.21-7.37.15-6.06-5.12-4.85-8.92 7.11-5.03 6.05 10.15 26.52-11.58z" class="bi"/><path d="m529.21 164.09 5.12 8.77-8.51 3.74-4.92-8.71 8.31-3.8z" class="br"/><path d="m525.82 176.6 6.37 8.91-10.69 10.59-3.91-16.82 8.23-2.68z" class="br"/><path d="M533.16 97.58c-.05 1.29.99 2.31 2.18 2.36 1.29.05 2.36-.89 2.41-2.17s-.94-2.31-2.23-2.36c-1.19-.05-2.31.89-2.36 2.18ZM505.11 91.24c-.05 1.29.89 2.31 2.18 2.36 1.19.05 2.31-.89 2.36-2.18s-.99-2.26-2.18-2.31c-1.29-.05-2.31.89-2.36 2.12Z" class="ci"/><path d="m564.74 167.06-40.97 23.22-6.18-11-10.96-19.38-10.43 37.19 33.19 21.85 20.06-.85 12.13-37.48 3.16-13.55z" style="fill:#185e60;stroke-width:0"/><path d="m521.96 113.18-4.62 3.11-3.01-4.76 7.63 1.65z" class="ab"/><path d="m530.2 86.3 10.64-1.78 6.18 5.73-9.27.91-7.55-4.86zM506.91 76.91l7.67-2.14 6.55 4.46-.87 2.73-6.35-3.95-6.37 1.23-.63-2.33z" class="bi"/><path d="m528.37 91.54.4-2.91-.36-2.75-7.56-1.85-2.31 2.33-.04 2.88 9.87 2.3zM550.91 91.16l28.41 23.74-3.56 7.81.05-7.79-27.34-14.36-1.45-3.97 3.89-5.43z" class="y"/><path d="m523.33 107.19 22.07 5.58 5.51-21.61-22.49-5.29-5.08 21.32Zm18.4-.65-12.11-2.96 2.67-11.25 12.06 2.86-2.62 11.35ZM515.7 105.6l-21.88-5.26 4.99-21.53 22.03 5.22-5.14 21.57Zm-12.25-20.05-2.55 10.74 10.49 2.33 2.49-10.53-10.43-2.53Z" class="bz"/><path d="M471.63 286.68v10.72l-16.07 2.42-18.55-2.42 10.93-10.15 10.3-7.32 13.39 6.75z" class="w"/><path d="M471.63 302.23h-34.62v-4.83h34.62z" class="y"/><path d="m461.41 279.93-8.92 10.33-4.55-3.01 8-7.32h5.47z" class="bp"/><path d="m499.2 296.01 1.97 11.54-17.91 2.42-11.21-2.42 11-17.01 8.34-2.45 7.81 7.92z" class="w"/><path d="M501.17 312.38h-29.12v-4.83h29.12z" class="y"/><path d="m492.78 290.08-2.51 12.16-5.47-.26 4.34-12.82 3.64.92z" class="bp"/><path d="m489.29 221.81-30 16.47 21.64 13.77 9.55.91 12.96-9.12-14.15-22.03z" class="bj"/><path d="m459.29 238.28-3.35 41.65 15.69 6.75 14.16-36.47-26.5-11.93z" class="bh"/><path d="m542.33 243.2-40.42-1.74-20.54 6.76 14.97 13.61 12.07-2.24 30.73-4.24 3.19-12.15z" class="j"/><path d="m481.37 248.22 1.68 42.32 16.15 5.47 9.21-36.42-27.04-11.37z" class="bj"/><path d="m440.7 220.08 6.77 2.8 2.8 50-6.07-1.64-3.5-51.16z" class="cg"/><path d="m543.49 230.59-20.33 73.59-17.75-6.07-1.15-70.26 20.63-2.58 18.6 5.32z" class="cl"/><path d="m504.26 227.85 25.13-8.91 23.15-7.13 24.08 8.02-24.95 18.47-17.34-4.21-30.07-6.24z" class="ai"/><path d="m557 222.73 10.54-5.93 8.38-43.04-16.8 14.84-8.66 15.16 6.54 18.97z" class="q"/><path d="m564.74 167.06 11.18 6.7L557 222.73l-8.56-6.22-9.3-11.04 25.6-38.41z" class="cg"/><path d="m504.26 179.32 7.38.74-2.05 12.46-12.42 1.14-.36-2.4 3.12-1.62 7.45-.2.89-6.29-7.12-.84 3.11-2.99z" class="bw"/><path d="m504.26 179.32-21.4-3.24-2.77 11.82 9.88 2.58 14.29-11.16z" class="al"/><path d="m461.69 179.32 21.17-3.24 1.94 8.41-7.14 5.99-15.97-11.16z" class="cg"/><path d="m472.55 181.75 11.23-1.69 11.34 1.69 2 3.15-15.05 5.21-9.52-8.36z" class="t"/><path d="m464.01 186.22 3.82 11.38 14.24 2.94 6.53-7.64-3.8-8.41-20.79 1.73z" class="ae"/><path d="m484.8 184.49 17.86-.3-6.46 12.9-14.13 3.45 2.73-16.05z" class="cl"/><path d="m461.69 179.32 23.11 5.17 2.59 3.24-3.61 2.75-19.77-4.26-2.32-6.9z" class="x"/><path d="m484.8 184.49 19.46-5.17.86 2.96-2.46 1.91-18.88 6.29 1.02-5.99z" class="cg"/><path d="m532.19 185.51-14.6-6.23-4.12 6.23 1.29 12.42 9.49-1.61 6.64-3.68 1.3-7.13z" class="am"/><path d="m557 222.73-19.38-29.07-9.23.2-2.45 9.9 3.45 15.18 27.61 3.79z" class="x"/><path d="m537.62 193.66-11.68 10.1-1.69-7.44 7.94-10.81 5.43 8.15z" class="bi"/><path d="m517.59 179.28-13.33.04-1.6 4.87 2.03 1.08-.2 1.08.65 6.58 9.62 5 2.83-18.65z" class="ad"/><path d="m502.66 184.19 4.91.9-3.08 1.26-1.83-2.16z" class="am"/><path d="m512.89 237.6 12.15 3.27-7.48 52.33-5.37-1.63.7-53.97z" class="cg"/><path d="m523.16 304.18 70.1-18.45 1.59-12.85-7.96-16.94 13.09-24.4 7.06-57.02 2.37-7.46 4.28.97 13.68-13.37-13.08-25.23-19.4 11.91-18.27 78.49-42.29 14.26-11.17 70.09z" class="an"/><path d="m607.04 174.52 3.24-28.1 6.4 7.6-7.84 4.95 4.85 9.06-6.65 6.49z" style="fill:#275b6c;stroke-width:0"/><path d="m599.98 231.54-54.07 18.25-3.58 35.3 52.52-12.21 1.37-11.05-4.25-6.77 6.38-10.43 1.63-13.09z" class="x"/><path d="M598.35 244.63 557 257.16l-2.17 14.95 41.39-10.28 2.13-17.2z" class="an"/></g><g id="i"><path d="m352.79 282.3 20.33 7.57-22.08 12.37-9.99-8.41 11.74-11.53z" class="n"/><path d="m307.23 274.16-9.95-4.65-13.94 5.79 13.32 20.71 8.56.84 18.31-1.69 4.99-7.19-10.86-9.35-10.43-4.46z" class="cm"/><path d="m307.23 274.16 8.81 21.69 7.49-.69 4.99-7.19-10.86-9.35-10.43-4.46z" style="fill:#3d4554;fill-rule:evenodd;stroke-width:0"/><path d="m236.31 279.93-2.26 12.1 6.54 3.98 7.94-5.03-3.33-10.48-8.89-.57z" class="ah"/><path d="m248.53 300.45-15.89-.96 1.41-7.46 18.1-2.16-3.62 10.58z" class="ck"/><path d="m273.29 249.79 33.24-10.95 17 10.95-4.21 17.83-12.09 6.54-16.29 2.57-21.5-3.74-5.16-11.62 4.46-11.58h4.55z" class="ag"/><path d="m290.94 276.73 5.72 19.28-27.22-2.31 7.12-25.11 14.38 8.14z" class="ao"/><path d="m296.66 296.01-35.86 14.25v-10.69l6.58-1.93 6.43-7.77 22.85 6.14z" class="ah"/><path d="m260.8 310.26-14.37-2.28 2.1-7.53 8.53-.88 7.22 3.56-3.48 7.13z" class="ck"/><path d="m239.3 271.83-10.4-2.32 9.68-11.19 2.01 4.86-1.29 8.65zM270.61 265.07l8.18-8.54-10.05-6.74-1.36 12.57 3.23 2.71z" class="l"/><path d="m236.31 279.93 2.27-21.61 4.23-1.2 9.64.57 9.67-6.03 6.62-1.87 7.82 18.8-18.33 11.34h-21.92z" class="ah"/><path d="m236.31 279.93 12.22 20.52 16.56-8.42 10.66 4.09.81-27.53-17.05 9.31-23.2 2.03z" class="au"/><path d="m236.31 279.93 15.84 9.94 10.65 1.11 6.64-6.46 7.12-15.93-40.25 11.34z" class="ag"/><path d="m252.15 289.87-3.62 10.58 15.75 2.68.81-2.68 2.29.79 8.37-5.12-6.31-11.6-9.11 5.35h-8.18z" class="k"/><path d="m264.28 303.13-1.48-7.12 4.58 5.23-3.1 1.89z" class="ck"/><path d="m252.15 289.87 17.29-5.35-6.64 11.49-10.65-6.14zM247.98 282.85h3.41l3.11-1.62.79 1.31-3.46 2.24-4.12-.27.27-1.66zM262.39 278.75l3.81-.05 2.67-1.97 1.01 1.32-3.42 2.45-4.29-.18.22-1.57z" class="bn"/><path d="m242.81 257.12 13.21 9.68 6.1-15.14-19.31 5.46zM238.58 258.32l-8.15 18.41-11.22-3.27 2.8-19.16 16.57 4.02zM268.74 249.79l12.63-8.07 9.57 16.48-9.11 7.32-13.09-15.73z" class="k"/><path d="m346.97 265.99 5.82 16.31-11.74 16.73-8.88-16.73 14.8-16.31z" class="cm"/><path d="m323.53 249.79 23.44 16.2-12.1 17.19-8.15 4.79-19.49-13.81 16.3-24.37z" class="au"/><path d="m307.23 274.16 14.72 16.82 4.77 5.03 14.33 3.02-6.18-15.85-27.64-9.02z" class="l"/><path d="m321.95 290.98-10.56 3.71-3.63 4.88 10.12 5.34 23.17-5.88-19.1-8.05z" class="ag"/><path d="m317.88 304.91-6.49-10.22-6.17 2.16-1.49 6.28 14.15 1.78z" class="ck"/><path d="M358.75 297.12 336.2 286.6l4.85 12.43 7.36 3.21 10.34-5.12z" class="k"/><path d="m373.12 289.87-7.99 14.31-21.01 2.83-3.07-7.98 32.07-9.16z" class="s"/></g></svg>