<svg xmlns="http://www.w3.org/2000/svg" id="a" viewBox="0 0 900 320"><defs><style>.j{fill:#28835c}.aa,.ab,.ac,.ae,.af,.ag,.ah,.aj,.ak,.al,.am,.an,.ao,.ap,.aq,.ar,.as,.at,.av,.aw,.ax,.ay,.az,.ba,.bc,.bd,.j,.k,.n,.o,.p,.q,.r,.s,.u,.v,.w,.x,.z{stroke-width:0}.aa,.ab,.ac,.ae,.af,.ag,.ah,.aj,.ak,.al,.am,.an,.ao,.ap,.aq,.ar,.as,.at,.av,.aw,.ax,.az,.ba,.bc,.bd,.j,.k,.n,.o,.p,.q,.r,.s,.u,.v,.w,.x,.z{fill-rule:evenodd}.k{fill:#2d9368}.n{fill:#e8cab6}.o{fill:#709d52}.p{fill:#b8c744}.q{fill:#c3987b}.r{fill:#3d4554}.s{fill:#74665b}.u{fill:#68707f}.v{opacity:.15}.am,.aw,.v{fill:#1d2432}.w{fill:#787f8d}.x{fill:#5f6878}.z{fill:#576071}.aa{fill:#454d5d}.ab{fill:#f4faf7}.ac{fill:#e6e97c}.ae{fill:#99c26d}.af{fill:#5a753d}.ag{fill:#237250}.ah{fill:#89909b}.aj{fill:#fff}.ak{fill:#a0cf7e}.al{fill:#dfbda5}.am{opacity:.2}.an{fill:#70bf9d}.ao{fill:#267a56}.ap{fill:#86b264}.aq{fill:#648e43}.ar{fill:#5bb68f}.as{fill:#309b6e}.at{fill:#8b6651}.av,.ay{fill:#232a38}.aw{opacity:.1}.ax{fill:#216a4b}.az{fill:#47ad82}.ba{fill:#3da87b}.bc{fill:#2b8b62}.bd{fill:#4b5464}</style></defs><g id="b"><path d="m453.62 18.45-52.09 60.71-.91 9.22-9.04 2.37-129.97 39.23-76.5 46.37-55.94 53.46 22.94 21.12 171.35-9.92 137.37 2.34 170.96-21.06 88.7 2.45 47.01-27.52-41.44-32.8-51.66-24.79-113.44-33.99-83.4-53.87-23.94-33.32z" class="ar"/><path d="m453.62 18.45 15.15 44.96-27.29 10.23 119.48 32-107.34-87.19zM391.58 90.75l24.94 7.64-14.99-19.23-9.95 11.59zM390.2 119.7l31.65-11.5 35.99-18.99-41.32 9.18-26.32 21.31zM253.94 181.31l37.74-19.41 31.85-13.4-34.29 45.17-7.65-14.64-27.65 2.28zM499.27 136.27l22.4 4.33-39.88 28.99-31.2 9.5-42.23 17.51 90.91-60.33zM466.47 201.95 509 171l31.44 39.13-90.71 24.99-26.35-24.35 55.84-28.63-12.75 19.81zM392.3 127.41l42.46-7.05 11.79.63-20.14 11.96-34.11-5.54z" class="as"/><path d="m432.57 128.9 17.16 14.79-34.6-13.09 17.44-1.7z" class="as"/></g><g id="c"><path d="m633.62 140.31-37.38 67.48 45.54 8.37 14.4-37.02-7.63-29.85-2.82-15.08-12.11 6.1z" class="an"/><path d="m648.55 149.29 11.56-13.02 28.67 62.33-47 17.56 6.77-66.87zM635.85 167.68l-5.12 25.69-4.52 19.93-10.27-1.89 19.91-43.73z" class="az"/><path d="m659 155.57 15.69 42.01 2.45 5.37-9.4 3.51-8.74-50.89zM657.4 176.95l5.01 31.5-4.49 1.68-.52-33.18z" class="as"/><path d="m630.9 145.23 16.71 13.37 15.92-14.91-15.58-1.01-17.05 2.55z" class="v"/><path d="m618.91 142.47 7.76 1.79 3.37-1.13.86 2.1 4.95 1.14 2.35-1.14 2.35 2.22 8 1.84V98.31h-10.41l-19.23 44.16z" class="an"/><path d="m648.55 149.29 14.98-5.6.85-3.37 3.69 1.68 6.33-2.37-22.55-43.02-7.47 6.75 4.17 45.93zM630.9 145.23l4.95-20.09-9.18 19.12 4.23.97zM635.85 146.37l2.29-12.62 2.41 13.7-4.7-1.08z" class="az"/><path d="m663.53 143.69-7.35-20.74L668.07 142l-4.54 1.69z" class="as"/><path d="m637.06 100.78 8.19 12.19 8.45-12.83-7.58-1.83-9.06 2.47z" class="v"/><path d="m644.38 103.36-14.34-5.05 17.17-49.55 2.38 38.77-5.21 15.83z" class="an"/><path d="m644.38 103.36 16.08-5.56-13.25-49.04-2.83 54.6z" class="az"/><path d="m712.96 167.56-12.6 48.49-5.93-2.75-1.49-4.32-4.16 1.69-19.18-8.92 32.44-44.04 10.92 9.85z" class="an"/><path d="m705.7 169.3 8.94-9.79 34.3 46.95-18.58 3.67-5.72-2.45-2.74 4.12-2.5.49-2.39-1.05-1.28 1.77-15.37 3.04 5.34-46.75z" class="az"/><path d="m696.02 165.88 8.54 13.39 14.84-13.25-11.69-5.76-11.69 5.62z" class="v"/><path d="m705.7 169.3-6.07-2.14-1.36-2.36-2.25 1.08-3.08-1.08V163l-2.29.99-6.93-2.45 20.16-36.4h7.28l-5.46 44.16z" class="an"/><path d="m706.75 131.28 4.41-6.14 26.93 36.4-12.03 2.88-4.8-2.03-1.86 3.63-13.7 3.28 1.05-38.02z" class="az"/><path d="m701.39 129.64 5.16 9.04 7.57-9.53-7.37-4.01-5.36 4.5z" class="v"/><path d="m706.75 131.28-5.36-1.64-1.03-2.12-1.4 1.38-3.72-1.13 8.79-42.7 7.13 27.9-4.41 18.31z" class="an"/><path d="m706.75 131.28 7.37-2.13.46-2.42 2.71 1.5 4.61-1.33-17.87-41.83 2.72 46.21zM696.02 165.88l5.89-14.4-2.28 15.68-3.61-1.28zM690.65 163.99l4.59-8.42-2.3 9.23-2.29-.81zM701.39 129.64l1.3-16.67-3.73 15.93 2.43.74zM697.44 181.19l-3.01 32.11-5.65-2.63 8.66-29.48z" class="az"/><path d="m719.4 166.02-4.48-21.76 11.14 20.16-6.66 1.6zM719.4 181.83l10.96 28.3-8.46 1.67-2.5-29.97zM712.06 180.18l7.34 32.11-3.67.72-3.67-32.83zM714.12 129.15l-2.96-11.88 6.13 10.96-3.17.92z" class="as"/><path d="m111.95 222.08 2.47 25.58 4.69-.42 1.13-39.45-8.29 14.29z" class="bc"/><path d="m70 210.58 42.79-49.68 11.41 1-12.25 60.18-9.73-2.66-3.65-4.51-4.68 2.22L70 210.58z" class="an"/><path d="m120.01 168.76 9.33-7.39 24.59 53.03-12.2 2.23-2.61-2.73-2 3.57-5.06.93-5.65-.93-2.21 2.37-12.25 2.24 8.06-53.32zM102.22 219.42l4.39-28.73-12.72 26.44 8.33 2.29z" class="az"/><path d="m137.12 217.47-6.94-35.26 11.55 34.42-4.61.84zM132.06 218.4l-5.65-17.86-2.21 19.3 7.86-1.44z" class="as"/><path d="m109.34 164.91 9.34 12.7 12.38-12.55-11.37-2.46-10.35 2.31z" class="v"/><path d="m97.42 160.61 8.64 3.12 1.45-1.29 1.83 2.47 2.36.85 1.4-1.31.93 2.15 5.98 2.16 1.35-39.17-7.09 1.12-16.85 29.9z" class="an"/><path d="m120.01 168.76 6.45-2.16.86-1.54.93.95 2.81-.95 1.35-2.89 2.24 1.69 8.28-2.77-20.14-30.51-4.54 5.09 1.76 33.09zM109.34 164.91l2.36-15.17-5.64 13.99 3.28 1.18zM111.7 165.76l2.79-8.03-.46 8.87-2.33-.84z" class="az"/><path d="m131.06 165.06-2.81-11.78 6.4 10.58-3.59 1.2zM128.25 166.01l-4.05-15.62 2.26 16.21 1.79-.59z" class="as"/><path d="m112.66 133.56 5.88 7.49 6.29-7.37-4.59-3.1-7.58 2.98z" class="v"/><path d="m103.89 130.24 6.23 2.35 2.57-.62-.03 1.59 5.59 2.11 6.91-18.6-.07-27.98-21.2 41.15z" class="an"/><path d="m118.25 135.67 6.58-1.99 1.39-2.24 1.38 1.4 4.46-1.35-6.97-42.4-6.84 46.58zM112.66 133.56l3.61-16.49-6.15 15.52 2.54.97z" class="az"/><path d="m124.83 133.68-.63-12.04 3.4 11.2-2.77.84z" class="as"/></g><g id="d"><path d="m185.11 176.35-4.69 37.26 16.97 1.3 1.54-28.64 2.84-7.98-16.66-1.94z" class="aa"/><path d="m185.11 176.35 12.97 5.86 22.02-4.6-8.91-18.23-26.08 16.97z" class="x"/><path d="m176.2 166.87 8.91 9.48 16.66-12.1-8.1-11.36-9.79-.74-7.68 14.72z" class="bc"/><path d="m185.11 176.35 22.8-8.7-.46-5.75-12.16 2.04-10.18 12.41zM187.3 155.83l-6.13 9.42 3.94 4.12 4.97-5.12-4.45 1.87-1.8-1.87 6.25-7.67-2.78-.75z" class="ag"/><path d="m245.81 185.62 3.97 28.78-14.58 2.73.58-17.58 8.97-13.7" class="aq"/><path d="m198.08 182.21-4.41 18.96-2.1 10.13 9.09-.56 2.56-3.96-.64-18.39-4.5-6.18z" class="o"/><path d="m231.54 180.8 7.82 2.73 2.91 6.13-.71 10.88-18.51 3.24-20.59-5.09.12-14.12 2.89-4.74 7.27-2.22 18.8 3.19z" class="o"/><path d="m262.24 114.01-2.05 52.11-22.57 1.53-8.84 11.75-14.32-4.52-4.34-8.15-3.94-37.83 34.65-19.52 21.41 4.63z" class="al"/><path d="m231.54 180.8-6.58-12.42-5.35-30.26-13.43-9.22 1.73 38.75 4.83 9.96 16.47 8.24 2.33-5.05zM257.24 131.41l-16.92 15.01-13.62-12.92 5.9-3.3 5.98 1.3 4.6 2.71 2.78-3.32 5.03-2.15 6.25 2.67z" class="q"/><path d="m238.58 131.5 1.74 14.92 2.99.87 2.52-1.17.13-15.23-7.38.61z" class="n"/><path d="m240.32 146.42 2.9 2.56 2.61-2.86-5.51.3zM237.62 167.65l-20.35 1.19 14.27 11.96 6.08-13.15z" class="at"/><circle cx="232.42" cy="138.96" r="2.08" class="ay"/><circle cx="251.86" cy="137.75" r="2.08" class="ay"/><path d="m238.58 131.5-1.73-3.21-9.98 2.6-.17 2.61 11.88-2zM245.96 130.89l1.13-3.12 9.45 1.39.7 2.25-11.28-.52z" class="r"/><path d="m262.24 114.01-42.63 24.11-12.16-11.65-1.4-19.99 38.75-6.24 3.07 6.71 7.52 1.65 6.85 5.41z" class="bd"/><path d="m219.61 138.12-13.56-31.64-17.01 42.5 30.57-10.86z" class="r"/><path d="m244.8 100.24-32.57 20.68-3.06 5 6.79 3.67 39.43-20.99-10.59-8.36z" class="x"/><path d="m212.23 120.92-33.66 25.53 8.73 9.38 19.56-11.66 9.1-14.58-3.73-8.67z" class="bd"/><path d="m215.96 129.59-28.66 26.24 7.99 8.11 12.12-7.36 12.2-18.46-3.65-8.53z" class="r"/><path d="m219.61 138.12-11.7 29.53-12.62-3.71 24.32-25.82z" class="bd"/><path d="m234.33 155.77 5.87 3.61 7.29-.37 3.79-3.88-16.95.64z" class="as"/><path d="m243.36 152.87-5.44 1.39-5.93.29 2.34 1.22 9.37 1.04 7.58-1.68 1.39-1.39-5.5.12-3.81-.99z" class="ax"/><path d="m241.56 200.54-6.82 31.35-29.97-1.5.42-2.77-2.73-28.93 39.1 1.85z" class="af"/><path d="m229.21 185.85 1.13 14.16-2 2.37-2.6-2.59-1.36-16.36 4.83 2.42z" class="ap"/><path d="m225.74 199.79-3.87 31.54h2.56l5.91-31.32-4.6-.22z" class="o"/><path d="m239.36 183.53 6.45 2.09-4.25 14.92-2.2-17.01zM205.47 179.83l-7.39 2.38 5.14 24.57 2.25-26.95z" class="p"/><path d="m203.22 206.78 14.05 18.13-7.81 8.4-17.89-22.01 11.65-4.52z" class="aq"/><path d="m234.5 174.39 1.05 1.96-.7 2.38 2.77 1.52 1.74 3.28-9.99 4.4-2.67-1.66-.99-2.45-3.59-.39-9.38-5.82 3.81-.57 3.55.57 1.76-1.35 12.64-1.87z" class="j"/><path d="m235.55 176.35-13.43 7.08 4.58 2.84 10.92-6.02-2.07-3.9zM225.38 181.71l-8.83-4.67 5.32-.69 3.51 5.36z" class="ag"/></g><g id="e"><path d="m292.88 146.42 32.04-6.11 17.28 6.8-31.97 9.47-17.35-10.16z" class="u"/><path d="m292.88 146.42 13.35 5.12 11.7 4.29 1.08 48.52-6.86 6.39-23.62-7.89.71-9.18 3.74-16.02-1.3-15.75 1.2-15.48z" class="bd"/><path d="m391.45 168.3-13.92 7.37.33-5.39 14.44-8.38-.85 6.4z" class="aq"/><path d="m391.45 147.05 3.4 19.6-3.4 1.65-3.68-15.85-.67-3.86 4.35-1.54z" class="ap"/><path d="m367.33 164.17 4.21-12.63 10.81 11.63-3.58 8.02-7.23-.52-4.21-6.5z" class="q"/><path d="m384.11 166.65-5.34 4.54-1.9-6.11 3.52-1.37 3.72 2.94z" class="at"/><path d="m355.84 153.41 8.47 29.31-11.57 1.39-3.24-3.82 6.34-26.88z" class="ax"/><path d="m342.2 147.11 7.3 3.37 5 16.17-2.92 3.29 2.41 1.76-1.25 12.41-.93 16.72-34.53 3.81-2.95-22.15-1.85-26.78 4.9-4.85 6.15-2.36 11.62 2.7 7.05-4.09z" class="ao"/><path d="m340.94 161.2 2.02 32.51-4.34 1.04-1.21-38.17 3.53 4.62z" class="ax"/><path d="m375.24 84.34 4.36 48.98-29.52 3.52-11.8 7.33-11.54-5.38-17.27-22.96 12.4-25.42 28.55-13.94 16.03 3.58 8.79 4.29z" class="al"/><path d="m343.13 141.19-5.81-2.83-4.52-53.29-14.13 5.34-9.2 25.42 4.25 9.87 3.04.77.62 7.74 6.15 14.29 15.27 3.04 3.4-4.43.93-5.92zM373.5 95.74l-19.84 18.27-13.96-14.47 4.84-4.51h4.96l5.09 3.93 3.01 2.67 1.62-3.24 3.7-4.4 4.74-1.27 5.84 3.02z" class="q"/><path d="m354.59 98.96-.93 15.05 5.03 1.21 4.63-1.97-4.1-14.86-4.63.57z" class="n"/><path d="m353.66 114.01 4.83 3.29 4.83-4.05-9.66.76zM347.46 122.08l22.05-2.07-3.5 7.64-12.64 1.25-5.91-6.82z" class="at"/><path d="m352.26 123.77 13.5-1.32-1.04 3.03-10.25.99-2.21-2.7z" class="aj"/><path d="m350.08 136.84-21.75 2.5 13.87 7.77 7.88-10.27zM313.72 125.7l7.32-2.44-3.66 10.95-3.66-8.51zM312.48 117.3l3.99-2.02 1.46 5.64-5.45-3.62z" class="at"/><path d="m339.7 99.54-.5-1.96 5.09-4.52 5.09-.34.12 2.31-5.21 1.39-4.59 3.12zM362.92 93.99l.11-2.66 5.21-.58 6.01 3.36-.75 1.63-5.84-2.1-4.74.35zM333.28 90.75l-6.98 8.79 2.03 5.67 2.48 13.1-5.26 2.61-5.67-9.69-11.51-.68-2.14-10.31 14.81-15.17 12.24 5.68z" class="s"/><path d="m333.28 90.75-24.91 19.8 1.1 5.28 10.41-4.6 8.45-6.02 4.95-14.46z" style="fill:#5f5044;fill-rule:evenodd;stroke-width:0"/><circle cx="347.65" cy="104.52" r="2.43" class="ay"/><circle cx="366.74" cy="102.67" r="2.43" class="ay"/><path d="m366.45 81.63 2.89-14.77-32.97-9.72-1.8 5.58-8.27-4.14-6.94.99 1.04 18.22 12.4 7.28 33.65-3.44z" class="j"/><path d="m319.36 59.57-4.15 4.89-1.22 7.67-4.52-.93-3.24 29.04 26.57-15.17-13.44-25.5zM336.37 57.14l22.64 27.48v2.68l-8.93 1.08-2.39-3.76-21.39-26.04 10.07-1.44z" class="ag"/><path d="m309.47 71.2 5.67 23.95 8.32-4.74-8.25-25.95-5.74 6.74z" style="fill:#1e6245;fill-rule:evenodd;stroke-width:0"/><path d="m326.3 72.74-20.07 27.5 27.05-9.49v-9.22l-6.98-8.79z" class="aa"/><path d="m329.04 79.81-8.21 7.35 1.04 3.25 9.43-4.77v-2.81l-2.26-3.02z" style="fill:#343c4b;fill-rule:evenodd;stroke-width:0"/><path d="m369.34 66.86-43.04 5.88 6.98 18.01 16.8-2.37 3.04-5.84 5.89 4.76 16.23-2.96-5.9-17.48z" style="fill:#51596a;fill-rule:evenodd;stroke-width:0"/><path d="m333.07 76.15 17.35-1.91-2.73 10.38-11.58 1.76-3.04-10.23zM353.29 73.8l13.1-2.08 3.64 9.89-10.58 1.3-6.16-9.11z" class="w"/><path d="m323.53 148.5 18.67-1.39-1.26 14.09-17.41-12.7z" style="fill:#bbbfc6;fill-rule:evenodd;stroke-width:0"/><path d="m353.6 166.65-8.5 1.03.93 4.4 7.96-.38-.39-5.05z" class="p"/><path d="m349.5 150.48 4.49 21.22 1.85-18.29-6.34-2.93zM308.78 154.15l8.6-3.29-4.02 30.53-4.58-27.24z" class="aq"/><path d="m364.31 168.3-11.57 15.81 15.5 6.04 10.53-18.96-14.46-2.89z" class="ao"/><path d="m364.31 168.3 10.34 10.29 4.12-7.4-6.47-3.97-2.04-3.51-2.93.46-3.02 4.13z" class="ax"/><path d="m379.63 163.71-2.02 33.87h-4.2l1.73-26.39.47-7.48h4.02z" class="s"/><path d="m367.33 145.53 14.79-3.55 1.14 5.13-1.6 3.75h-12.15l-2.18-5.33z" class="ac"/><path d="m382.12 141.98 9.33 5.07-3.68 5.4-5.42-.91-1.91-2.25 1.68-7.31z" class="p"/><path d="m373.41 150.3 7.03-1.01 1.22 5.46-2.14 10.86-4.09 1.04-1.98-5.28-.04-11.07z" class="al"/><path d="m380.44 149.29 7.33 3.16-3.66 14.2-4.59-1.04.92-16.32zM373.45 161.37l-.9-2.2-.03-2.59-3.01-5.72 3.9-.56 2.18 6.28-2.14 4.79z" class="q"/><path d="m367.33 164.17-2.49-6.2 4.67-7.11 6.08 5.72-3.04 2.59-2.59-.93 2.34 8.98-4.97-3.05z" class="al"/><path d="m300.77 187.93 14.37 3.84.07-15.42-8.98-3.7-5.46 15.28z" class="ag"/><path d="m306.23 154.16-5.46 15.21 3.84 4.34 5.13-16.03-3.51-3.52zM326.3 161.09l1.67 14.58-4.6 3.42-1.5-15.38 4.43-2.62z" class="o"/><path d="m299.25 173.58 18.13 12.27 10.95-7.09-.36-3.09-8.63 4.85-18.57-11.15-1.52 4.21z" class="ap"/><path d="m318.72 174.16 2.11 21.87-5.69-4.26-2.99-17.61h6.57z" class="s"/><path d="m306.23 151.54-.98 5.34 8.62 2.16 1.34-2.02v-1.83l-1.22-5.9-7.76 2.25z" class="ac"/><path d="m313.99 149.29 9.54 4.12-2.7 6.41-6.96-.78.12-9.75z" class="p"/><path d="m312.92 178.73-8.09-2.16-1.09-15.48 10.25-4.51-1.07 22.15z" class="q"/><path d="m313.99 156.58 12.31 4.51-3.16 15.61-10.22 2.03 1.07-22.15z" class="al"/><path d="m291.68 161.9 7.57 1.81-3.66 30.98-6.35-1.02 1.18-15.38 1.53-4.13-1.09-1.51.82-10.75z" class="u"/><path d="m299.25 163.71-8.39 8.94-.44 5.64 8.83-14.58z" class="aa"/></g><g id="f"><path d="m392.3 179.09-2.66 9.92-10.04 33.28 48.19 10.4 2.98-55.04-38.47 1.44z" class="w"/><path d="m425.56 184.11 2.23-4.84 22.8-.18 11.03 48.58-40.27 8.01 4.21-51.57zM404.12 180.88l4.61-1.79 3.35 2.99-8.38 47.53-12.12-3.42 2.41-20.66 10.13-24.65zM421.35 180.7l-5.25 20.05 2.63-21.48 2.62 1.43z" class="z"/><path d="m430.77 181.6 8.2 43.14 7.7-3.58-8.96-42.4-6.94 2.84z" class="bd"/><path d="m392.3 179.09 32.27-7.9 26.02 7.9-25.03 5.02-33.26-5.02z" class="ak"/><path d="M217.29 215.68h64.3l-5.11 37.12-68.57-8.07 9.38-29.05z" class="u"/><path d="m273.41 222.29 15.12-9.72 33.34.12 9.05 32.47-54.44 7.64-3.07-30.51zM228.87 217.05l-9.04 29.08 12.96 1.53 2.99-29.8 2.46-2.86-9.37 2.05zM245.88 219.05l-1.25 11.69-.92 18.2-7.93-.93 8.85-31.85 1.25 2.89zM253.36 219.93l-3.26 29.77 6.95.81 5.19-33.38-8.88 2.8z" class="z"/><path d="m284.65 220.06 5.14 30.87 9.46-1.32-10.72-33.93-3.88 4.38zM298.28 217.36l8.06 31.25 14.86-2.09-10.51-31.61-12.41 2.45z" class="bd"/><path d="m217.29 215.68 71.24-12.83 33.34 9.84-48.46 9.6-56.12-6.61z" class="ak"/><path d="m302.7 229.47-93.24 22.87 49.32 15.06 64.92 6.04 27.03-5.2 102.89 4.43 21.3 7.92 62.88-17.26 51.07-15.93-19.45-21.21-62.11-15.45-66.21 14.54-87.21 18.42-51.19-14.23z" style="fill:#9a9fa9;fill-rule:evenodd;stroke-width:0"/><path d="m253.64 263.5-9.01-8.5 88.64-17.03 9.17-1.07 4.12 4.76-92.92 21.84zM321.2 235.12l-95.58 15.81 9.54 3.2 86.04-19.01zM288.53 266.58l12.48 3.33 49.72-13.72-2.5-3.85-7.64 1.02-52.06 13.22zM530.24 213.8l17.83 5.94-83.12 15.94-3.33-8.01 68.62-13.87zM558.91 223.58l-90.14 22.55 6.15 5.02 83.99-27.57zM453.62 272.67l37.99-8.45-26.05 12.89-11.94-4.44zM569.42 226.19l7.08 2.79-51.53 22.17 8.04-7.99 36.41-16.97z" class="ah"/><path d="m302.7 229.47 12.44-37.7h49.13l-2.86 20.8 5.04 36.37-27.34-8.35-4.3-5.46-6.72 2.1-6.89-2.11-1.57-4.38-5.64 2.18-11.29-3.45z" class="u"/><path d="m358.5 197.58 5.77-7.22 25.37-1.35 12.73 48.36-35.92 11.57-7.95-51.36zM313.99 232.92l15.3-39.25-8.09 41.45-7.21-2.2zM339.81 195.08l-11.72 42.15 11.02 3.36 7.45-44.61-1.69-2.31-5.06 1.41z" class="z"/><path d="m368.24 194.9 8.13 46.11 12.92-2.31-16.54-48.34-4.51 4.54zM379.6 191.77l12.7 45.13-8.88-46.18-2.98-.36-.84 1.41z" class="bd"/><path d="m315.14 191.77 37.6-7.66 36.9 4.9-31.14 8.57-43.36-5.81z" class="ap"/><path d="m524.97 193.37 62.11 1.85-17.66 30.97-10.51-2.61-4.56-6.83-3.61 4.8-4.77-1.19-3.39-5.36-7.63 2.62-27.64-6.88 17.66-17.37z" class="w"/><path d="m573.64 202.31 19.18-9.1 37.91.16 7.41 25.61-68.72 7.21 4.22-23.88zM543.29 196.73l-8.34 20.89 11.02 2.74 8.38-21.6-1.59-3.54-9.47 1.51zM558.15 199.46l-7.41 22.09 8.17 2.03 3.38-26-4.14 1.88z" class="z"/><path d="m590.42 199.68 6.12 21.45 16.3-4.05-5.15-21.86-17.27 4.46zM612.84 196.17l6.9 24.96 5.24-.77-12.14-24.19z" class="bd"/><path d="m524.97 193.37 56.83-7.83 48.93 7.83-57.09 8.94-48.67-8.94z" class="ap"/></g><g id="g"><path d="m790.32 214.27-76.58 1.89-9.68 30.69 45.88 9.36 24.02 3.39 16.36-45.33z" class="w"/><path d="m780.89 222.67 6.07-8.32 27.02-.08 8.13 34.54-10.38 2.33-3.88-1.85-2.67 3.31-7.07 1.59-4.24-1.59-3.14 3.24-16.77 3.76 6.93-36.93zM761.25 257.81l8.77-36.19-2.08-4.87-4.89 4.19-13.11 35.27 11.31 1.6zM754.53 220.11l-11.18 33.91 6.01-34.41 3.31-2.07 1.86 2.57z" class="z"/><path d="m786.96 221.13 3.77 34.71 7.38-1.65-6.57-36.65-4.58 3.59zM796.83 218.62l8.35 33.98 6.55-1.46-13.36-34.98-1.54 2.46z" class="bd"/><path d="m813.98 214.27-46.48-17.05-27.56 5.09-45.15 8.43 18.95 5.42 67.15 6.51 33.09-8.4z" class="ap"/><path d="m763.95 264.85-20.5 4.09-33.89-4.38 23.94-7.72 12.87-19.91 30.12 9.2 4.4-23.46 33.09-8.4 6.46 27.47 21.38 5.05-19.05 14.14-58.82 3.92zM763.95 280.59l-13.71 8.27-55.21 2.14 48.57-17.25 20.35 6.84zM638.14 287.06l-27.12-3.62 35.92-12.25 23.73 3.03-8.26 8.43-24.27 4.41zM654.68 305.19l-76.76 7.39 52.81-18.4 8.29-2.25 21.09 4.38-5.43 8.88zM477.56 303.73l-21.28-5.38-27.25 16.14 41.36-2.5 7.17-8.26zM550.52 293.89l-53.51 1.97 39.17-10 28.56.56 14.78 1.58-29 5.89zM350.73 285.82l-40.05 1.08 29.5-10.72 15.66 4.82-5.11 4.82zM251.85 272.53l-25.74-4.87 25.74-10.58 17.99 2.61-3.53 8.41-14.46 4.43zM292.88 294.46 273.41 302l-38.1 1.73 28.7-14.87 28.87 5.6zM475.45 244.37l-17.61 2.31-39.11 10.2 19.57 10.09-33.66 11.51 60.92-1.37 13.06-6.45 6.83-.59 14.94-19.75-24.94-5.95z" class="aw"/><path d="m559.91 244.56 9.51-18.37 129.67-6.45-20.46 54.36-13.61-3.38-1.65-4.91-3.26 3.69-3.15-.79-5.17-7.78-6.06 4.99-85.82-21.36z" class="w"/><path d="m682.79 235.92 8.64-21.46 48.51-12.15 10.76 57.98-22.63 4.34-4.36-3.7-4.26 5.35-4.66.89-7.7-3.84-3.69 6.03-24.77 4.74 4.16-38.18zM623.81 226.19l-6 32.42-12.54-2.76 12.54-33.18 6 3.52zM652.76 228.53l-7.03 37.39 11.23 2.79 6.16-43.43-10.36 3.25zM666.46 234.23l-6.35 35.27 4.91 1.22 1.44-36.49z" class="z"/><path d="m703.4 269.36-8.61-44.08 4.3-5.54 15.7 47.43-11.39 2.19zM719.45 266.28l-9.98-48.47 6.87-7.07 11.73 53.89-8.62 1.65zM723.71 210.56l11.16 52.77-6.8-54.98-4.36-1.32v3.53z" class="bd"/><path d="m739.94 202.31-65.25-4.73-105.27 28.61 113.37 9.73 57.15-33.61z" class="ak"/><path d="m136.23 246.13 12.2-44.96 27.77-1.62-16.08 53.81-23.89-7.23z" class="w"/><path d="m167.99 204.41 3.06-4.56 22.62 1.32 18.31 42.05-51.86 10.14 7.87-48.95zM144.74 248.71l10.99-46.33-3.62 48.55-7.37-2.22z" class="z"/><path d="m173.38 202.85 2.82 36.75 9.85 8.69-8.1-45.14-3.15-1.98-1.42 1.68zM182.48 202.58l8.91 44.66 9.27-1.81-18.18-42.85z" class="bd"/><path d="m148.43 201.17 23.26-6.48 21.98 6.48-25.68 3.24-19.56-3.24z" class="ak"/><path d="m176.2 239.6 52.67.83-.22 32.75-18.24-1.11-2.5-2.46-4.69 2.02-9.55-.58-2.93-4.94-4.94 4.46-18.51-8.23 8.91-22.74z" class="w"/><path d="m221.87 244.73 2.11-7.98 20.65-6.01 14.15 36.66-10.8 2.07-6.42-4.15-2.78 5.73-10.13 2.13-6.78-28.45zM192.86 240.37l-7.06 30.2 7.87.48 2.17-29.24v-2.21l-2.98.77zM200.66 242.35l-1.81 29.01 7.33-28.39-2.33-2.54-3.19 1.92zM212.74 243.7l-9.52 27.93 7.19.44 2.33-28.37z" class="z"/><path d="m231.84 238.6 6.94 32.45 9.2-1.58-13.3-32.62-2.84-1.95v3.7zM225.62 242.43l7.17 24.15-3.92-26.15-1.54-.83-1.71 2.83z" class="bd"/><path d="m176.2 239.6 28.99-11.98 39.44 3.12-22.76 13.99-45.67-5.13z" class="ap"/><path d="m545.95 244.56-7.68 26.93L579.52 288l10.9 3.93 4.51-23.69v-17.61l-48.98-6.07z" class="w"/><path d="m565.05 246.13-6.14 33.62 12.34 4.94 2.39-17.52 3.94-18.18-12.53-2.86zM561.95 247.04l-7.6 25.63 2.05-28.11 5.55 2.48zM587.08 256.88l10.87-9.84 41.75-7.44 8.85 38.6-12.7 3-5.18-3-4.33 5.24-10.4 2.46-3.14-4.38-1.78 5.54-20.6 4.87-3.34-35.05z" class="z"/><path d="m635.85 281.2-11.08-39.46-5.03 2.82 6.6 38.88 9.51-2.24zM609.33 244.56l6.61 41.34-4.92 1.16-10.23-38.07 8.54-4.43z" class="bd"/><path d="m545.95 244.56 24.33-8.21 12.33-4.48 25.07 4.73 32.02 3-52.62 17.28-41.13-12.32z" class="ak"/><path d="m485.45 252.34-10.53 28.25 7.91 5.47 5-2.98.71 6.92 8.47 5.86 16.55-21.35-12.29-13.12-15.82-9.05z" class="w"/><path d="m494.24 258.44-11.41 27.62 5.71 3.94 8.47-25.37-2.77-6.19zM573.64 267.17l5.88 20.83-11.61 1.1-9-3.59-7.43 5.16-22.85 2.18-6.48-5.08-7.43 6.41-17.71 1.68 6.53-20.13 21.94-8.56h48.16z" class="z"/><path d="m519.49 267.17-4.77 27.01 13.91-1.33-3.15-22.96-5.99-2.72zM533.17 267.17l5.1 24.76 2.17-24.99-7.27.23zM548.07 266.94l3.41 23.73 16.43-1.57-11.85-23.37-7.99 1.21z" class="bd"/><path d="m485.45 252.34 45.81-6.21 42.38 21.04-70.1 8.56-18.09-23.39z" class="ak"/><path d="m547.82 303.17 12.09 3.78 2.04-2.08 1.07 3.05 14.9 4.66 14.9-18.4-38.47-13.51-6.53 22.5z" class="w"/><path d="m581.8 298.35 16.15-12.49 40.19 1.2 3.64 14.24-13.99 2.47-4.58-3.95-3.47 5.37-16.56 2.93-5.23-2.93-3.02 4.39-17.01 3 3.88-14.23zM563.99 284.69l-4.08 22.26 3.11.97 8.23-19.13-7.26-4.1z" class="z"/><path d="m592.82 294.18 2.11 15.4 8.25-1.46-5.18-13.94h-5.18zM600.79 293.15l7.57 14.05-3.09-15.27-4.48 1.22zM614.02 290.67l5.72 14.52 8.05-1.42-3.54-15.66-10.23 2.56z" class="bd"/><path d="m554.35 280.67 59.03-10.76 24.76 17.15-56.34 11.29-27.45-17.68z" class="ap"/><path d="m400.57 292.97-5.9 14.95 5.95 1.14 7.74-3.42v4.9l20.67 3.95 8.51-9.54.84-8.32-37.81-3.66z" class="w"/><path d="m433.2 298.35 2.95-5.55 20.13-2.13 10.58 17.25-9.02 1.57-3.44-2.44-.43 3.11-3.38.59-5.36-1.36-1.81 2.6-14.39 2.5 4.17-16.14zM400.62 309.06l7.26-14.88 4.84-1.21 3.38 2.56-7.74 15.01-7.74-1.48zM420.79 296.31l-3.25 15.98 10.45-14.8-1.56-1.63-5.64.45z" class="z"/><path d="m443.42 311.99-5.04-15.36v-2.45l2.52 1.61 9.69 14.96-7.17 1.24zM453.97 310.16l-6.02-16.72 9.89 16.05-3.87.67z" class="bd"/><path d="m400.57 292.97 24.12-8.28 31.59 5.98-23.08 7.68-32.63-5.38z" class="ar"/><path d="m277.54 280.48 7.11-17.2 34.36 1.35-8.33 22.27-11.4-2.21-2.29-2.26-1.92 1.44-4.09-.79-2.11-3.13-2.17 2.3-9.16-1.77z" class="w"/><path d="m310.68 286.9 11.58-1.9 3.81-4.7 6.38 3.03 9.99-1.64-5.71-21.63-19.62 1.16-4.52 8.85-1.91 16.83zM286.7 282.25l4.5-17.38 7.86-1.59v3.5l-8.08 16.3-4.28-.83zM295.07 283.87l7.63-16.21-3.42 17.03-4.21-.82z" class="z"/><path d="m322.26 285-1.96-18.23.98-2.14h4.04l7.13 18.7-10.19 1.67z" class="bd"/><path d="m284.65 263.28 26.03-8.66 26.05 5.44-24.14 10.01-27.94-6.79z" class="ak"/><path d="m197.83 292.97 6.02-16.79 44.39 5.34-12.93 22.21-19.73-5.66-1.72-5.1-5.95 2.89-10.08-2.89z" class="w"/><path d="m239.02 286.9 2.21-6.23 26.48-4.49 8.77 21.02-9.04 1.43-5.2-4.39-2.62 5.63-24.31 3.86 3.71-16.83zM207.91 295.86l7.35-16.21h4.55v1.39l-4.23 17.03-7.67-2.21zM226.5 283.08l-4.63 16.79L232.79 285l-2.1-1.92h-4.19z" class="z"/><path d="m244.63 282.31 5.59 19.05 1.63-19.26-7.22.21zM257.05 280.16l2.57 19.71 7.82-1.24-5.2-20.41-5.19-2.04v3.98z" class="bd"/><path d="m203.85 276.18 28.94-9.6 34.92 9.6-28.69 10.72-35.17-10.72z" class="ak"/><path d="m340.59 253.36 20.25-40.67L433.6 215l-28.96 56.28-20.22-5.66.86-4.37-6.76 2.72-9.81-2.75-1.97-3.3-2.47 2.06-3.37-.94-4.58-6.93-5.59 4.08-10.14-2.83z" class="w"/><path d="m404.64 271.28 29.69-5.23 4.05-5.12 6.1 3.34 3.47-.62 4.95-2.72 3.38 1.26 5.34-.94 1.6-4.37 5.55 3.11 8.79-1.55-7.17-47.7-36.79 1.83-10.84 12.71-18.12 46zM373.14 215l-8.87 44.98 4.44 1.24 16.57-43.71v-4.94L373.14 215zM392.73 219.06l-14.21 44.91 5.9 1.65 20.22-44.49-4.02-7.33-7.89 5.26zM360.9 259.04l5.37-31.37-15.54 28.52 10.17 2.85z" class="z"/><path d="m438.38 220.51 6.1 43.76-10.15 1.78-5.3-47 9.35 1.46zM452.9 216.16l8.72 45.09 7.15-1.26-15.87-43.83zM445.98 218.19l10.3 44-8.33 1.46-4.77-44.6V215l2.8 3.19z" class="bd"/><path d="m360.84 212.69 55.26-11.94 54.29 9.99-47.63 14.54-61.92-12.59z" class="ak"/><path d="m350.73 268.24 7.77-19.25 57.6 3.12-11.46 26.37-19.36-3.68-2.68-4.73-4.5 3.37-6.84-1.3-2.21-4.97-4.78 3.64-13.54-2.57z" class="w"/><path d="m408.36 256.88 19.43-10.75 21.94 2.86 3.89 23.68-12.09 1.43-6.25-2.82-2.05 3.81-5.44.64-3.67-4.16-2.77 4.93-16.71 1.98 3.72-21.6zM364.27 270.81l9.74-23.57 4.24 4.87-6.99 20.03-6.99-1.33zM378.1 273.44l9-19.81-1.82 21.17-7.18-1.36z" class="z"/><path d="m427.79 275.73-5.03-21.6-1.41 22.37 6.44-.77zM433.23 275.09l-4.2-22.29 2.1-3.86 10.4 25.16-8.3.99z" class="bd"/><path d="m358.5 248.99 27.29-7.98 28.4 6.03 17.42-5.11 18.12 7.06-41.37 7.89-49.86-7.89z" class="ar"/><path d="m665.16 267.12-2.75 15.53 10 2.56 3.01-2.56 1.72 3.77 4.72 1.21 2.76-1.69.7 2.58 9.71 2.48 8.85-14.05-38.72-9.83z" class="w"/><path d="m697.11 282.3 15.54-11.11 30.8-2.25 3.72 13.71-6.8 1.09-4.73-1.61-2.88 2.83-5.67.91-3.95-1.49-1.37 2.34-4.68.75-3.84-2.51-2.7 3.56-15.52 2.48 2.08-8.7zM672.41 285.21l3.18-13.2 5.39-1.87.88 4.87-4.72 11.41-4.73-1.21zM681.86 287.63l3.63-10.89 3.29-1.73-3.46 13.51-3.46-.89z" class="z"/><path d="m710.55 288.52-2.33-13.51 5.03-1.26 3.84 13.72-6.54 1.05zM721.77 286.72l-4.68-15.53 10 14.68-5.32.85zM727.09 273.66l5.67 11.3 7.61-1.22-7.86-14.8-5.42 4.72z" class="bd"/><path d="m665.16 267.12 50.4-19.72 27.89 21.54-46.34 13.36-31.95-15.18z" class="ba"/><path d="m203.22 271.63-35.93 8.96-28.57-2.11 26.55-11.9 10.93-26.98 27.02 32.03z" class="aw"/><path d="m78.95 265.55 8.98-29.87 70.83 8.02-20.04 34.78-12.73-2.75-3.93-4.37-6.04 2.21-4.88-1.05-3.5-3.61-3.75 2.04-4.78-1.04-.54-5.11-5.21 3.87-14.41-3.12z" class="w"/><path d="m148.43 246.13 4.51-6.42 23.26-.11 9.6 30.97-11.47 1.93-7.04-3.59-7.88 6.09-20.69 3.48 9.71-32.35zM93.36 268.67l10.38-30.26 6.17-2.73 4.51 4.75-15.31 29.48-5.75-1.24zM116.02 273.57l12.74-30.84 5.44-2.3 2.03 3.6-10.24 31.7-9.97-2.16zM103.89 270.95l16.12-29.72-8.87 31.29-7.25-1.57z" class="z"/><path d="m155.73 244.42 3.68 30.58 14.92-2.5-7.22-30.76-7.92-1.31-3.46 3.99z" class="bd"/><path d="m87.93 235.68 41.24-5.87 47.03 9.79-27.77 6.53-60.5-10.45z" class="ak"/></g><g id="h"><path d="m545.95 244.56 34.75-.89 26.94-7.09-15.62-5.21-21.78 4.96-24.29 8.23zM500.35 250.3l8.68 2.02 24.1 4.54 10.6-4.53-12.51-6.21-30.87 4.18z" class="aw"/><path d="m481.79 169.59 25.52 15.04 9.45-5.36-1.3-11.59-13.03-2.27-20.64 4.18z" class="r"/><path d="m487.83 117.71 17.98-7.12 21.83-5.45 8.54 6.33-23.34 13.67-17.75-2.23-7.26-5.2z" class="z"/><path d="m502.98 120.8-15.15-3.09-1.3 11.19 3.58 13.78-7.28 17.93-1.04 8.98 29.62 3.96.83-39.8-9.26-12.95z" class="bd"/><path d="m482.83 160.61 15.44.93.3-8.65 1.82-22.65-13.86-1.34-3.7 31.71z" class="r"/><path d="m481.79 124.32-6.87-14.25-8.45 3.98-3.25 8.56 13.01 8.67 5.56-6.96z" class="q"/><path d="m474.92 110.07-11.7-10.8-5.21 9.08 5.21 14.26 11.7-12.54z" class="al"/><path d="m478.84 128.29-3.92-6.59v-16.56l3.05-1.78 3.82 10.69 1.73 8.86-4.68 5.38z" class="al"/><path d="m502.98 120.8-15.15 23.05 10.74 9.04 10.94-4.39 5.21-8.24-6.64-13.36-5.1-6.1z" class="ae"/><path d="m605.49 133.09 1.83 9.59-3.72 6.34-2.81-10.34 4.24-8.44.46 2.85z" class="ap"/><path d="m603.72 154.32 3.6-2.78-.19-5.49-5.03-1.79-11.68 1.29-1.84 10.68 11.15 5.31 3.99-7.22z" class="q"/><path d="m600.96 236.35 6.72.25-4.69-102.85h-6.45l2.49 100.2 1.93 2.4z" class="s"/><path d="m610.34 142.84.68 13-10.23 4.43-1.28-4.7.74-7.83 7.07-5.06 3.02.16z" class="al"/><path d="m607.32 142.68-4.73 9.31-3.08 3.58-.48-2.12 4.14-10.98 4.15.21z" class="q"/><path d="m600.79 134.54-2.84 8.14-.91 17.58-4.98-2.37 2.83-17.63 1.65-6.51 4.25.79z" class="ak"/><path d="m596.91 148.39 2.12 5.06 3.56-1.46.58-9.52-8.28-2.21-4.47 5.29-1.73 4.8 8.22-1.96z" class="al"/><path d="m588.6 126.9 13.93-1.76 2.74 6.05-2.09 5.08-12.47-2.52-2.11-6.85z" class="ac"/><path d="m602.53 125.14 10.31 2.9-.91 5.71-8.75 2.52-.65-11.13z" class="p"/><path d="m579.02 146.63 11.4-1.08-1.84 17.17-23.84 2.69 5.22-16.56 9.06-2.22z" class="af"/><path d="m573.64 119.96 5.38 26.67-14.28 18.78-5.83-6.06 1.83-23.6 12.9-15.79z" class="ae"/><path d="m565.05 173.55 16.75 11.99-13.08 18.93-25.06-2.52 10.29-25.75 11.1-2.65z" class="az"/><path d="m581.8 185.54 2.58 20.92-13.75 9.7-8.68-2.51-3.82-6.62 23.67-21.49z" class="ba"/><path d="m561.31 176.95 15.19 13.4-2.86 6.31-3.68-.37-18.48-11.86 9.83-7.48zM553.76 191.77l11.29 8.98-2.32 4.36-4.6 1.92-14.47-5.08 1.09-16.41 9.01 6.23z" class="k"/><path d="m526.89 243.64-14.47 5.35-2.96-5.49 1.38-9.61 4.41-2.02 6.9 1.65 4.74 10.12z" class="aa"/><path d="m510.84 233.89 5.81-2.12 5.5 1.75-12.13 6.08.82-5.71z" class="am"/><path d="m533.17 252.34-.16-9.18-13.56-1.42-5.86 5.97-4.13-4.21-.4 8.84h24.11z" class="x"/><path d="m541.96 172.64 1.7 29.31-13.42 23.33-8.24 6.1-15.72-6.1 1.03-40.65 5.98-20.85 28.67 8.86z" class="az"/><path d="m536.54 197.1-11.36 29.65-5.69-.17 8.96-39.27 8.09 9.79zM523.26 175.18l-8.04 52.49-5.07-1.75 3.22-54.73 9.89 3.99z" class="k"/><path d="M530.24 225.28h-23.96l-.22 8.67 19.87-.48 4.31-8.19zM552.53 194.57l-8.87 7.38-7.12-4.85 7.92-15.5 8.07 12.97z" class="ag"/><path d="m554.22 121.16 9.77 24.39 1.06 28-12.52 21.02-7.78-9.03-8.21 11.56-29.23-12.47 2.48-40.78 2.45-19.95 9.26-9.85 32.72 7.11z" class="aq"/><path d="m543.55 146.17-7.89 27.42 8.64 5.68 8.29-6.63-9.04-26.47z" class="bd"/><path d="m552.59 172.64-16.93.95 9.09 11.95 7.84-12.9zM552.59 134.62l-9.04 11.55-8.92-12.33 9.54-2.65 8.42 3.43z" class="r"/><path d="m562.23 114.94 11.41 5.02-9.65 25.59-5.08-18.1 3.32-12.51z" class="j"/><path d="m544.17 131.19-10.16-11.56-12.51-5.58.08 32.58 22.59-15.44zM562.23 114.94l-16.05 8.54-2.01 7.71 19.82 14.36-1.76-30.61z" class="ae"/><path d="m521.5 114.05-18.52 6.75 6.53 27.7 11.99-34.45z" class="j"/><path d="m528.63 108.35 6.9 8.09 8.64 14.75-22.67-17.14 7.13-5.7zM559.89 97.8l2.34 17.14-11.34 10.2 1.72-13.64 7.28-13.7z" class="af"/><path d="m580.33 103.36-20.44-5.56-.69-6.05 4.07-6.34 7.9 5.85 9.16 12.1z" class="ag"/><path d="m495.09 57.15 7.34 18.95 1.11 23.17-5.43-4.53-5.12-1.62-5.16-3.01 2.91-28.84.87-3.61 3.48-.51z" class="bc"/><path d="m499.45 75.32-6.46 17.8 10.55 6.15-.41-7.18-4.29-2.21 1.79-5.13-1.18-9.43z" class="ap"/><path d="m495.09 57.15 10.72 53.44 22.82-2.24 17.11 11.97 17.53-34.91-25.47-26.8-27.65-15.67-15.06 14.21z" class="al"/><path d="m515.46 45.95-20.5 11.33 7.68-10.19 7.67-6.41 4.63 1.69.52 3.58z" class="at"/><path d="m518.02 82.65 4.79-16.04 4.83-7.88-10.88-1.06-.64 4.89 1.9 20.09zM511.41 63.08 509 58.75l-9.6 3.97 13.44 13.75-1.43-13.39z" class="q"/><path d="m513.56 83.17 2.67 2.86 1.79-3.38-4.46.52z" class="at"/><path d="m537.8 58.61 6.62 47.58-9.03 6.53-6.76-4.37 15.54 22.84 6.72-6.05 9-27.34-.69-6.05 4.07-6.34-25.47-26.8z" class="q"/><path d="m511.41 63.08 2.15 20.09 4.46-.52-1.9-20.09-4.71.52z" class="n"/><path d="m537.8 58.61 8.79 17.09 9.42 7.03-10.61 3.31 14.49 11.76 3.38-12.39-9.16-11.54-16.31-15.26z" class="at"/><path d="m509 58.75-6.19-1.54-3.41 5.51 9.6-3.97zM516.76 57.67l4.85-2.67 6.03 3.73-10.88-1.06z" class="k"/><path d="m505.21 93.28 13.08 9.42 13.76-12.18-26.84 2.76z" class="aq"/><path d="m508.6 93.76 8.55.91 11.48-3.11-7.82 6.25-5.28.5-6.93-4.55z" class="aj"/><path d="m505.21 93.28 11.49-2.87 15.35.11-14.93 4.56-11.91-1.8z" style="fill:#446125;fill-rule:evenodd;stroke-width:0"/><path d="m547.4 68.7-2 17.34 21.86 3.57-5-6.42-11.89-1.45 1.48-9.51-4.45-3.53z" class="ae"/><path d="m528.63 108.35 23.48-3.21-15.01 15.66-8.47-12.45z" class="at"/><path d="m537.8 58.61 30.74 13.16 20.33 15.76-8.54 15.83-42.53-44.75zM540.11 52.98l21.49-22.23 30.93 32.66-52.42-10.43zM592.53 63.41l12.96 14.09-16.62 10.03-.29-14.31 3.95-9.81z" class="k"/><path d="m510.15 42.94.34-4.79 7.05-10.3 44.06 2.9-15.91 21.02-35.54-8.83z" style="fill:#84c8ab;fill-rule:evenodd;stroke-width:0"/><path d="m510.15 42.94-19.41 18.33-11.67-10.89 38.47-22.53-7.39 15.09zM510.15 42.94l78.72 44.59 3.66-24.12-82.38-20.47z" class="az"/><path d="M502.44 70.61c-.11 1.56 1.06 2.91 2.62 3.02s2.91-1.06 3.02-2.62-1.06-2.91-2.62-3.02-2.91 1.06-3.02 2.62ZM521 67.84c-.11 1.56 1.06 2.91 2.62 3.02s2.91-1.06 3.02-2.62-1.06-2.91-2.62-3.02-2.91 1.06-3.02 2.62Z" class="av"/><path d="m576.5 190.35 2.52 21.18-4.33 2.74-4.73-17.98 6.54-5.94zM565.05 200.75l2.86 14.25-5.96-1.35-3.82-6.62 6.92-6.28z" class="bc"/><path d="m586.26 221.62-5.06 13.16-11.55-6.16-.89-9.26 10.76-2.28 6.74 4.54z" class="aa"/><path d="m580.73 217.97-11.31 8.22-.55-5.65 3-2.39 8.86-.18z" class="am"/><path d="m580.07 232.6-10.42-3.98.63 7.73h30.68l1.57-8.53-16.27-6.2-6.19 10.98z" class="x"/><path d="m584.38 206.46-22.43 7.19 4.33 7.48 19.38-4.23-1.28-10.44z" class="ag"/><path d="m498.57 152.89-15.05-29.98-14.75 11.98 14.4 22.82 15.4-4.82z" class="af"/></g><g id="i"><path d="m354.84 305 9.15-1.92 12.06 2.62-13.53 1.1-7.68-1.8zM334 310.54l6.82-.38 9.91 1.83-10.83 2.5-5.9-3.95zM297.17 262.34l6.27-1.21 10.55 1.21-11.13 2.98-5.69-2.98zM406.28 215l9.34 2.13 8.95-2.13-9.69-2.43-8.6 2.43zM598 284.69l9.56-2.77 10.25 3.04-11.23 3.15-8.58-3.42zM656.69 218.24l12.67-3.74 13.16 3.74-12.26 3.21-13.57-3.21z" class="aw"/><path d="m346.78 281.9 14.55-4.52 14.72 3.71-14.64 9.52-14.63-8.71z" class="o"/><path d="m356.36 284.89 5.05-3.89 6.39 4.84-5.72 2.09-5.72-3.04z" class="ab"/><path d="m365.16 300.13-2.64 6.67-2.39-13.34 5.03 6.67z" class="k"/><path d="m346.78 281.9 18.38 18.23 1.29-10.97-4.13-3.66-15.54-3.6z" class="ac"/><path d="m362.32 285.5 13.73-4.41-10.89 19.04-2.84-14.63z" class="p"/><path d="m329.28 294.38 12.55-5.56 13.01 7.73-12.78 5.45-12.78-7.62z" class="o"/><path d="m335.17 298.13 6.89-4.62 5.97 5.95-6.43 4.29-6.43-5.62z" class="ab"/><path d="m344.22 301.07-4.17 11.18-1.51-9.37 5.68-1.81z" class="k"/><path d="m341.83 307.46-12.55-13.08 14.03 5.72.91 1.9-2.39 5.46z" class="ac"/><path d="m341.83 307.46 13.01-10.91-11.53 3.55-1.48 7.36z" class="p"/><path d="m289.24 237.91 13.46-6.02 13.79 5.01-15.23 9.23-12.02-8.22z" class="o"/><path d="m298.88 252.32 4.89 10.96-1.07-15.62-3.82 4.66z" class="k"/><path d="m297.17 240.43 4.16-4.42 8.37 5-7.9 3.72-4.63-4.3z" class="ab"/><path d="m298.88 252.32-9.64-14.41 13.98 3.1-4.34 11.31z" class="ac"/><path d="m303.22 241.01 13.27-4.11-17.61 15.42 4.34-11.31z" class="p"/><path d="m410.7 205.17 4.43 10.99-.91-13.1-3.52 2.11z" class="k"/><path d="m399.94 196.03 10.92-7.02 12.52 4.36-11.3 7.61-12.14-4.95z" class="o"/><path d="m405.19 199.43 6.47-5.51 4.79 5.51-4.79 3.63-6.47-3.63z" class="ab"/><path d="m412.08 208.6-12.14-12.57 12.97 3.4 2.22 2.32-3.05 6.85z" class="ac"/><path d="m412.08 208.6 11.3-15.23-10.47 6.06-.83 9.17z" class="p"/><path d="m605.27 273.31 1.28 11.65 3.3-9.95-4.58-1.7z" class="k"/><path d="m594.93 259.6 16.02-4.9 11.43 5.4-12.53 8.93-14.92-9.43z" class="o"/><path d="m603.78 264.47 7.17-5.35 3.59 5.35-4.69 5.53-6.07-5.53z" class="ab"/><path d="m594.93 259.6 13.78 18.86 4.13-9.43-1.89-3.62-16.02-5.81z" class="ac"/><path d="m610.95 265.41 11.43-5.31-13.67 18.36 2.24-13.05z" class="p"/><path d="m663.29 204.47 6.31 15.89.91-17.7-7.22 1.81z" class="k"/><path d="m648.55 193.21 15.23-9.8 20.8 7.08-19.21 7.09-16.82-4.37z" class="o"/><path d="m656.18 194.58 8.74-5.55 8.69 6.19-8.45 6.24-8.98-6.88z" class="ab"/><path d="m665.37 209.7-16.82-16.49 18.61 2.05 2.44 3.71-4.23 10.73z" class="ac"/><path d="m665.37 209.7 19.21-19.21-17.42 4.77-1.79 14.44z" class="p"/></g></svg>