<svg xmlns="http://www.w3.org/2000/svg" id="a" viewBox="0 0 900 320"><defs><style>.aa,.ab,.ac,.ad,.ae,.af,.ag,.ah,.aj,.ak,.am,.an,.ap,.ar,.as,.at,.au,.av,.aw,.ax,.ay,.az,.bb,.bc,.bd,.be,.bf,.bh,.bi,.bk,.m,.n,.o,.p,.q,.r,.s,.t,.u,.v,.w,.y,.z{stroke-width:0}.m{fill:#735283}.n{fill:#543042}.o{fill:#89909b}.p{opacity:.1}.bb,.p{fill:#1d2432}.q{fill:#7a578a}.r{fill:#d0af96}.s{fill:#9f80ae}.t{fill:#8e699f}.u{fill:#9471a4}.v{fill:#513a5c}.w{fill:#8b6651}.y{fill:#68707f}.z{fill:#dfbda5}.aa{fill:#583f64}.ab{fill:#9a9fa9}.ac{fill:#734d61}.ad{fill:#b3889d}.ae{fill:#c3987b}.af{fill:#eeeff1}.ag{fill:#abafb8}.ah{fill:#454d5d}.aj{fill:#cccfd4}.ak{fill:#6c4d7b}.am{fill:#51596a}.an{fill:#bbbfc6}.ap{fill:#343c4b}.ar{fill:#404857}.as{fill:#c3b0cc}.at{fill:#734d60}.au{fill:#4b5464}.av{fill:#e8cab6}.aw{fill:#654873}.ax{fill:#a9846c}.ay{fill:#d1a1b8}.az{fill:#5e436b}.bb{opacity:.15}.bc{fill:#787f8d}.bd{fill:#5f6878}.be{fill:#96637c}.bf{fill:#3d4554}.bh{fill:#232a38}.bi{fill:#efd3c2}.bk{fill:#ab90b8}</style></defs><g id="b"><path d="m121.41 265.89-12.97 2.99-6.05-4.01-5.94 6.34-23.02-1.4-14.41-6.51 29.91-10.33 90.54-6.62 17.04-1.31 3.75 7.7-12.99 2.35-6.28-2.35-5.49 4.23-14.9 2.05-6.68-2.05-5.71 3.91-13.4 3-5.66-2.57-7.74 4.58zM69.99 216.86l47.23 8.62 50.64-10.79-32.95-5.57-64.92 7.74zM149.01 294.78l31.24 7.23 22.62-7-23.28-4.31-30.58 4.08zM219.36 295.23l54.27-10.73 27.34-18.37 27.49.59 22.23 4.84-9.96 24.18 13.9 3.27-3.77 13.82-51.32-5.47-33.63 4.39-46.55-16.52zM400.68 315.1l-10.62-5.76 5.03-8.93 22.73-1.4 4.08 10.3-21.22 5.79zM490.87 287.91l-43.52 3.08-8.6-3.82-8.6 3.82-32.71-11.4 35.73-8.09 27.42 1.95 19 2.92 20.56 6.27-9.28 5.27zM520.55 255.34l43.57-11.23-47.84-2.7-28.31 8.55 32.58 5.38zM525.33 292.08l27.25-9.25 32.78 2.39 14.65 4.56 33.68 4.72-43.89 8.26-43.65-2.05-20.82-8.63zM615.26 286.57l-3.35-4.16-9.1 3.59-26.24-4.68 10.68-5.73 54.42 5.73 21.34-1.88 7.06-2.4 14.67 1.33 34.4 4.48 8.41 7.8-41.19.89-3.61-4.97-9.88 3.73-57.61-3.73zM791.6 281.64l21.96 4.03 28.99-3.73-31.56-6.06-19.39 5.76zM785.33 224.74l-32.03-9.7 28.94-5.68 27.66 6.8-24.57 8.58zM234.36 199.84l46.64 8.17-51 9.14-46.55-8.19 50.91-9.12zM749.26 191.56l-39.67 6.85-51.05-11.91 54.02-4.91 36.7 9.97zM721.7 299.62l21.68-5.44 37.91 7.15-39.17 4.63-20.42-6.34z" class="p"/></g><g id="c"><path d="m236.57 179.27-.74 32.02h-6.13l-1.44-28.15 3.56-10.93 4.75 7.06z" class="ak"/><path d="m218.43 91.06-41.32 71.23 51.15 20.85 13.95-63.25-7.1-25.76-16.68-3.07z" class="m"/><path d="m242.21 94.13 45.66 80.01-59.61 9 4.76-80.27 9.19-8.74z" class="q"/><path d="m245.16 99.31-13.15 20.58-17.17-22.66 30.32 2.08z" class="bb"/><path d="m230.13 51.17-27.77 42.19 30.66 9.51 1.47-47.26-4.36-4.44z" class="m"/><path d="m236.3 52.39 22.32 42.98-25.6 7.5-1.2-46.37 4.48-4.11z" class="q"/><path d="m237.67 55.03-5.54 13.16-4.27-13.58 9.81.42z" class="bb"/><path d="m235.96 22.96 9.95 29.99-14.09 3.55-2.79-8.77 6.93-24.77z" class="q"/><path d="M235.96 22.96 219.01 50.4l12.81 6.1 4.14-33.54zM628.44 87.49l26.38 42.13-46.75 25.88-14.65-46.13 11.39-19.53 23.63-2.35z" class="m"/><path d="m597.92 85.66-31.99 58.98 42.14 10.86-5.26-54.79-4.89-15.05z" class="q"/><path d="m592.43 95.78 12.29 24.8 27.86-26.48-40.15 1.68z" class="bb"/><path d="m617.3 46.6 26.75 44.96-41.24 9.15V73.66l9.1-27.06h5.39z" class="m"/><path d="m607.61 46.6-26.56 43.77 21.76 10.34 9.25-50.32-4.45-3.79z" class="q"/><path d="M606.36 48.65 610 61.58l8.23-12.93h-11.87z" class="bb"/><path d="m613.16 21.81-15.24 24.27 14.14 4.31 5.24-10.54-4.14-18.04z" class="q"/><path d="m613.16 21.81 12.8 24.56-13.9 4.02 1.1-28.58zM715.22 85.66l37.93 66.64-50.3 6.05-4.65-49.67 10.61-28.53 6.41 5.51z" class="m"/><path d="m701.45 84.05-39.91 61.6 41.31 12.7 5.96-65.53-7.36-8.77z" class="q"/><path d="m698.2 89.51 9.29 17.83 9.81-18.03-19.1.2z" class="bb"/><path d="m702.85 46.6-17 39.06 22.96 7.16V47.36l-5.96-.76z" class="q"/><path d="m708.81 92.82 24.3-10.05-23.22-37.99-3.01 7.2 1.93 40.84z" class="m"/><path d="m701.14 50.53 6.19 11.05 4.75-13.21-10.94 2.16z" class="bb"/><path d="m702.85 15.67-8.75 33.08 12.78 3.23 1.93-14.35-5.96-21.96z" class="q"/><path d="M702.85 15.67 716.93 45l-10.05 6.98-4.03-36.31z" class="m"/><path d="m775.34 193 1.59 24.94h5.12l2.39-33-9.1 8.06z" class="ad"/><path d="m780.88 139.45-5.05 4.98-33.01 34.75L775.34 193l9.27-51.55-3.73-2z" class="bk"/><path d="m775.34 193 40.74-12.96-28.94-40.64-5.73 8.83-6.07 44.77z" class="u"/><path d="m775.83 144.43 3.52 18.98 13.14-18.07-16.66-.91z" class="bb"/><path d="m787.87 107.7-3.89 3.15-22.72 22.99 20.15 14.39 9.45-31.35-2.99-9.18z" class="bk"/><path d="m790.23 109.31 16.93 32.19-25.75 6.73 5.92-34.06 2.9-4.86z" class="u"/><path d="m514.83 206.68 1.89 45.36h6.06l2.61-34.71-10.56-10.65z" class="ad"/><path d="m512.52 135.78-1.91 3.34-29.57 59.64 44.35 18.57v-54.48l-7.89-21.39-4.98-5.68z" class="bk"/><path d="m525.39 217.33 30.45-19.22-29.66-59.19-.79-6.74-7.89 9.28 7.89 75.87z" class="u"/><path d="m526.18 138.92-7.22 16.58-8.35-16.38 15.57-.2z" class="bb"/><path d="m517.22 96.28-.82 5.68-16.9 33.38 18 6.12 7.89-39.73-8.17-5.45z" class="bk"/><path d="m524.2 96.28 1.98 5.56 13.92 33.01-22.6 6.61 4.71-37.46 1.99-7.72z" class="u"/><path d="m516.4 101.96 4.7 10.9 5.08-11.02-9.78.12z" class="bb"/><path d="m518.83 39.85-10.82 59.17 14.2 4.98 2.73-17.71-6.11-46.44z" class="bk"/><path d="m518.83 39.85 15.59 57.49-12.21 6.66-3.38-64.15z" class="u"/><path d="m737.88 279.7 1.23 21.63h4.54l2.7-31.32-8.47 9.69z" class="be"/><path d="m734.32 251.48-4.57 3.2-19.08 17.96 27.21 7.06 10.97-20.91-14.53-7.31z" class="u"/><path d="m737.88 279.7 33.65-6.22-23.36-20.78-5.96 6.09-4.33 20.91z" class="m"/><path d="m729.75 254.68 10.63 12.97 12.31-10.94-22.94-2.03z" class="bb"/><path d="m736.36 229.84-16.35 21.64 22.2 7.31 2.33-26.24-8.18-2.71z" class="u"/><path d="m744.57 229.85 16.32 25.24-18.68 3.7-2.21-22.91 4.57-6.03z" class="m"/><path d="m733.32 233.87 7.49 10.45 6.28-10.58-13.77.13z" class="bb"/><path d="m726.37 231.76 19.3-35.82.68 27.46-6.35 12.48-13.63-4.12z" class="u"/><path d="m745.67 195.94 7.95 35.82-13.62 4.12 5.67-39.94z" class="m"/><path d="m783.98 110.85 1.05 16.55 7.04-14.59-8.09-1.96z" class="bb"/><path d="m796.58 73.7-18.06 31.72 8.81 8.75 3.96-9.98 5.29-30.49z" class="bk"/><path d="m796.58 73.7 3.81 36.72-13.06 3.75 9.25-40.47z" class="u"/><path d="m807.62 272.58 1.86 10.5h2.61l2.27-17.71-6.74 7.21z" class="be"/><path d="m806.08 248.18-17.57 19.5 19.11 4.9 6.74-21.35-8.28-3.05z" class="u"/><path d="m807.62 272.58 23.55-5.51-15.84-19.37-4.43 6.94-3.28 17.94z" class="m"/><path d="m801.71 253.03 7.69 9.8 9.06-11.3-16.75 1.5z" class="bb"/><path d="m807.62 231.54-1.54 1.84-12.03 18.31 16.85 2.95v-20.95l-3.28-2.15z" class="u"/><path d="m810.9 254.64 15.16-6.23-13.12-14.73-3.46 1.86 1.42 19.1z" class="m"/><path d="m806.08 233.38 3.88 8.59 3.6-7.63-7.48-.96z" class="bb"/><path d="m811.73 212.45-10.25 18 8 5.09 4.88-9.53-2.63-13.56z" class="u"/><path d="m811.73 212.45 7.52 20.22-9.77 2.87 2.25-23.09z" class="m"/><path d="m122.48 196 4.23 32.85h6.82l2.15-29.01-8.28-6.67-4.92 2.83z" class="ac"/><path d="m120.7 138.66-36.82 46.97 51.8 12.58v-59.55H120.7z" class="aw"/><path d="m144.31 135.7 34.99 49.25-43.62 13.26-3.76-49.8 12.39-12.71z" class="m"/><path d="m117.39 142.89 15.65 20.89L150.15 144l-32.76-1.11z" class="bb"/><path d="m131.92 148.41 34.92-8.44-26.7-36.03-5.53 1.54-3.64 5.79.95 37.14z" class="m"/><path d="m131.92 103.94-27.18 34.15 27.18 10.32 2.69-39.04-2.69-5.43z" class="aw"/><path d="m129.34 107.18 4.54 12.71 7.95-13.67-12.49.96z" class="bb"/><path d="m130.35 68.19-11.43 34.66 15.69 6.52 6.75-11.16-11.01-30.02z" class="aw"/><path d="m130.35 68.19 20.43 34.34-16.17 6.84-4.26-41.18z" class="m"/></g><g id="d"><path d="m191.91 183.14 3.28-9.05 6.52 1.32-.94 7.32-4.43 3.54-4.43-3.13z" class="u"/><path d="m191.91 183.14 4.6.65 3.58 24.55 3.7 32.53-3.53 11.87-6.14-1.58-2.21-68.02z" class="t"/><path d="m173.1 176.06 6.2 1.27-2.19 13.94-5.7-.8-3.2-2.15 4.89-12.26z" class="u"/><path d="m175.5 256.97-8.16-1.77.87-66.88 6.64 2.15 4.62 22.97-3.97 43.53z" class="t"/><path d="m142.68 190.47 5.49-12.25 8.71 1.54-2.96 11.1-5.75 3.46-5.49-3.85z" class="u"/><path d="m148.21 260.88-7.87-1 2.34-69.41 7.38 1.34 3.86 24.48-.79 29.81-4.92 14.78z" class="t"/><path d="m120.52 194.32 4.79-11.59 5.9 1.06-2.06 11.21-3.99 3.21-4.64-3.89z" class="u"/><path d="m121.41 265.89-6.76-2.52 5.87-69.05 4.79 1.1 2.82 28.68-6.72 41.79zM104.9 195l-9.69-.02-8.44 74.19 9.68 2.04L104.9 195z" class="t"/><path d="m95.21 194.98 7.43-10.03 5.5 1.72-1.57 6.96-4.32 3.15-7.04-1.8z" class="u"/><path d="m96.45 271.21 3.59-45.39 3.49-5.63-2.55-6.75 1.27-16.66 5.89-10.11 5.11 10.11-4.81 72.1-11.99 2.33zM125.31 195.42l5.9-11.63 6.22 10.15-2.62 69.94-13.4 2.01 3.9-70.47zM150.06 191.81l6.82-12.05 6.45 10.04-2.73 69.22-12.39 1.86 1.85-69.07zM175.5 256.97l-.65-66.5 4.45-13.14 7.5 9.61.47 68.15-11.77 1.88zM211.07 251.16l-3.15-67.37-6.21-8.38-5.2 8.38 3.75 68.95 10.81-1.58z" class="s"/><path d="m109.53 215.52-8.55-2.08-.94 12.38 3.49 2.66 6-12.96z" class="u"/><path d="m105.46 216.29 5.97-2.85 94.11-17.57h7.33l.87 12.99-110.21 19.62 1.93-12.19z" class="bk"/><path d="M100.98 213.44 208.45 195l4.42.87-107.41 20.42-4.48-2.85z" class="as"/><path d="m107.59 221.34 2.62-2.84 1.13 2.5-1.93 2.05-1.82-1.71zM130.65 216.46l3.06-3.29 1.25 2.95-2.5 2.5-1.81-2.16zM155.74 210.89l2.05-1.81 1.81 2.38-2.27 2.05-1.59-2.62zM181.29 206.92l2.5-2.61 1.48 2.04-1.82 2.61-2.16-2.04zM205.02 202.83l2.5-2.27 1.71 2.61-2.5 2.27-1.71-2.61z" class="be"/></g><g id="e"><path d="m183.45 288.5-1.14 10.27h-2.76l-2.4-14.85 6.3 4.58z" class="be"/><path d="m187.18 265.65 17.48 18.91-21.21 3.94-5.15-9.47 4.51-11.92 4.37-1.46z" class="u"/><path d="m183.45 288.5-22.99-5.15 17.84-18.27 4.51 2.03.64 21.39z" class="m"/><path d="m187.18 265.65-4.41 11.75-5.21-11.56 9.62-.19z" class="bb"/><path d="m187.18 241.98 7.28 21.24-11.65 3.89-1.96-5.48 6.33-19.65z" class="u"/><path d="m187.18 241.98-17.13 22.05 12.76 3.08 4.37-25.13z" class="m"/></g><g id="f"><path d="m477.3 225.19 4.09 2.95.25 7.22-3.37.51-.97-10.68z" class="bk"/><path d="m477.3 225.19 3.95-1.2.14 4.15-6.34 2.23-12.28 3.2-1.29-5.15 15.82-3.23z" class="ak"/><path d="m488.38 235.87-20.75-2.64-6.15-6.25-8.23 11.21 4.58 4.24 30.55-6.56z" class="aw"/><path d="m488.38 235.87-4.21 26.87-12.73 2.01-7.05-7.16-1.62-17.38 25.61-4.34z" class="q"/><path d="m474.57 221.34 2.73 3.85-6.18 3.5h-4.04l-4.31-3.5 2.85-3.79 8.95-.06z" class="z"/><path d="m470.03 201.29 4.54 20.05-8.37 1.74-4.72-13.61 8.55-8.18z" class="n"/><path d="m477.3 225.19-2.25 5.18-10.66 4.11 2.69-5.79 10.22-3.5z" class="ae"/><path d="m442.76 276.19 4.59 11.07-8.6 1.5-8.6-1.5 1-8.36 4.37-4.71 7.24 2z" class="bd"/><path d="m430.15 287.26 9.54-4.62 7.66 4.62-5.96 1.87-11.24-1.87zM436.24 276.11l1.11 4.73 2.34-.4-.94-4.65-2.51.32z" class="o"/><path d="M430.15 287.26h17.2v3.73h-17.2z" class="au"/><path d="M460.59 273.45v9.19l15.61 2.77 6.33-1.8-2.94-7.24-3.37-3.65-9.14-6.56-3.91 4.4-2.58 2.89z" class="bd"/><path d="m474.44 282.64 5.15-6.27 6.34 6.27-6.3 1.87-5.19-1.87zM467.6 269.06l6.33 5.13 2.29-1.47-4.39-4.76-4.23 1.1z" class="o"/><path d="M460.59 282.64h25.34v3.73h-25.34z" class="au"/><path d="m467.08 228.69 4.75 39.27-11.24 5.49-18.09-36.12 9.54-11.38 15.04 2.74z" class="aa"/><path d="m450.53 248.52 16.55-19.83-17.77-.84-4.03 8.7 5.25 11.97z" style="fill:#4a3554;stroke-width:0"/><path d="m454.88 233.06-12.12 43.13-11.61 2.71-6.89-53.71 16.85-2.53 13.77 10.4z" class="az"/><path d="m427.38 217.33-3.12 7.86 30.62 7.87 1.42-3.83 3.06 2.22 7.72-2.76-1.46-9.32-15.97 2.51-22.27-4.55zM464.13 181.36l6.99 15.49-16.24 8.56-26.69 1.73 1.42-17.53 5.91-8.25 20.88-5.19 7.73 5.19z" class="be"/><path d="m424.73 166.99-5.74 16.84 6.99 1.88 11.4-5.37-2.03-7.78-10.62-5.57z" class="aw"/><path d="m465.62 175.64-4.14 3.63-11.45 3.51 2.52-10.57 13.07 3.43z" class="m"/><path d="m465.62 175.64-1.49 5.72-14.1 1.42 15.59-7.14z" class="aw"/><path d="m487.39 155.64 8.06-8.63-9.08-10.83-1.7 3.22 6.58 6.81-3.97 2.9.11 6.53z" class="ac"/><path d="m486.14 121.86 3.13 45.43-26.5 2.28-7.89 3.74-4.85 9.47-11.96-12.06-4.37-40.76 27.71-20.22 12.69 1.96 12.04 10.16z" class="z"/><path d="m462.77 169.57-15.79 1.06 3.05 12.15 12.74-13.21z" class="w"/><path d="m481.93 131.71-16.27 15.76-16.35-13.12 6.3-4.91 8.52 3.43 2.98 2.83 2.86-3.31 5.28-2.95 6.68 2.27z" class="ae"/><path d="m464.13 132.87 1.53 14.6 2.73.72 2.73-1.09-1.15-14.71-5.84.48z" class="av"/><path d="m465.66 147.47 2.73 2.53 2.73-2.9-5.46.37z" class="w"/><circle cx="476.05" cy="139.03" r="1.96" class="bh"/><circle cx="458.51" cy="140.91" r="1.96" class="bh"/><path d="m476.59 108.09 12.92 8.46-3.37 5.31-11.62-7.07-6.81-5.74 8.88-.96z" class="an"/><path d="m474.52 114.79 2.07-6.7-6.33-4.15 4.26 10.85z" class="ab"/><path d="m457.91 156.53 11.16 4.84 9.54-5.87-10.35 1.93-10.35-.9z" class="t"/><path d="m457.91 156.53 7.07-1.03 3.41-2.53 3.54 1.78 6.68.75-10.35 2.52-10.35-1.49z" class="aw"/><path d="m469.97 132.39 4.55-4.26 7.41 3.58-11.96.68zM464.13 132.87l-8.12-4.74-6.7 6.22 14.82-1.48zM469.64 96.41l1.48 5.55-5.17 2.84 5.98.24 2.59 9.75-22.48-1.93-14.54-7.93 32.14-8.52z" class="af"/><path d="m474.52 114.79-30.15 33.95-12.15.8-12.32-19.23 17.6-25.38 37.02 9.86z" class="an"/><path d="m419.9 130.31 4.83 36.68 12.77 8.65 10.6-.56-3.73-26.34-24.47-18.43z" class="ab"/><path d="m471.93 105.04-12.09 5.84-7.8 1.98-7.11-5.95 26.19-4.95.81 3.08z" class="an"/><path d="m448.1 175.08 1.93 7.7h-8.04l-17.26-15.79 23.37 8.09z" class="bc"/><path d="m459.84 110.88-23.27 31.99-4.01 1.35-1.85-5.77 14.22-31.54 14.91 3.97z" class="ab"/><path d="m430.71 138.45-5.98 28.54 8.22 5.57 3.6-1.48.02-28.21-5.86-4.42z" class="bc"/><path d="m436.55 171.08 5.44 11.7-7.27-3.51-9.99-12.28 11.82 4.09z" class="y"/><path d="m471.12 196.85-2.51 10.29-2.11 3.75-.88 8.48-12.37 5.57-12.14-2.28-1.51-3.29-2.69 2.51-7.3-1.37-1.42-13.37 42.93-10.29z" class="ac"/><path d="m450.03 182.78 4.03 18.16 2.83 1.54 2.47-2.81-5.72-18-3.61 1.11z" class="ay"/><path d="m454.06 200.94-.81 24h3.56l1.53-2.29 1.02-22.98-5.3 1.27z" class="ad"/><path d="m453.25 224.94 1.63 8.12 4.48-1.61-1.02-8.8-5.09 2.29z" class="ay"/><path d="m433.62 183.32-5.43 23.82-.81 6.64-13.41 5.48 1.45-17.97 3.57-17.46 6.99-.51h7.64z" class="ac"/><path d="m450.03 182.78-6.51 2.93-17.54-2.39 8.74-4.05 15.31 3.51z" class="m"/><path d="m428.19 207.14 12.61 7.29-3.89 7.45-22.94-2.62 14.22-12.12z" class="n"/><path d="m436.91 221.88 3.29-12.41 5.11 1.42-4.2 11.77-4.2-.78zM464.39 209.47l4.22-2.33-2.99 12.23-1.23-9.9z" class="s"/></g><g id="g"><path d="M350.69 271.56v11.52l11.34 2.04 14.12-2.04-16.13-13.69-5.39-1.53-3.94 3.7z" class="ah"/><path d="M350.69 283.08h25.46v4.09h-25.46z" class="ap"/><path d="m340.92 273.43 8.6 13.96-12.57 2.62-9.38-2.62 2-11.24 4.88-2.72h6.47z" class="ah"/><path d="m368.06 223.86-6.32 36.55-6.4 5.13-8.24-1.98-9.58-20.57 6.58-16.8 23.96-2.33z" class="aw"/><path d="m324.12 229.65 4.34 37.07 7.27 3.92 7.35-6.91 4.66-20.96-23.62-13.12z" class="m"/><path d="m368.06 223.86-20.32 18.91-23.62-13.12 23.67-6.3 20.27.51z" class="aa"/><path d="m353.4 149.27 13.1 4.72 2.87 60.58-22.98 7.31-23.11-1.78-7.47-35.2-9.07-8.98 2.56-23.26 7.2-2.9 36.9-.49z" class="as"/><path d="m351.44 160.33-18.6 3.2-7.74-11.11 11.51-1.72 14.83 9.63z" class="s"/><path d="m353.4 149.27-9.2-10.61-20.75 2.53-6.95 8.57 30.36.94 6.54-1.43zM340.7 46.84l-12.65-7.6-5.97 14.41 18.62-6.81z" class="ac"/><path d="m378.79 68.86-21.63-20.77-4.65 3.41-6.12-4.23-5.69-.43-12.72 35.59 14.53-1.66 36.28-11.91z" class="ak"/><path d="m357.16 48.09 11.54 25.63-9.22 1.59-13.09-28.04 10.77.82zM340.7 46.84l-2 33.09-15.42-.05 17.42-33.04z" class="az"/><path d="m388.61 100.14 7.61 24.74-5.05 1.76-9.66-5.14-5.73-27.37 12.83 6.01z" class="ar"/><path d="m391.17 126.64-14.14-26.5 6.14 29.3 8-2.8z" class="ap"/><path d="m383.17 82.43 4.31 53.27-34.97 2.96-9.77 8.83-6.84-1.01-12.45-21.31 15.25-42.74h44.47z" class="z"/><path d="m346.39 147.49-2.51-7.24-5.18-57.82-15.25 42.74 9.24 27.18 9.2 1.64 4.5-6.5z" class="ae"/><path d="m352.51 138.66-16.61 1.23 10.49 7.6 6.12-8.83zM378.79 120.76l-11.58 3.29-13.88-1.65.77 2.5 13.45 2.21 10.73-3.18.51-3.17z" class="w"/><path d="m384.69 101.19-21.06 14.76-22.93-11.22 16.21-9.56 27.78 6.02z" class="ae"/><path d="m363.63 115.95 2.87.54 2.87-.91-3.31-20.41-3.9.49 1.47 20.29z" class="av"/><path d="m369.37 115.58-2.5 3.18-3.24-2.81 5.74-.37z" class="w"/><path d="m338.7 82.43 5.5 9.76-3.5 12.54-11.16 38.34-6.09-1.88-1.72-5.96-6.49 3.43-3.35-1.03-.38-2.29-4.36.82-3.02-.93 19.32-42.55 15.25-10.25z" class="ar"/><path d="m338.88 89.69-15.43 51.5-8.21-2.53 23.64-48.97zM332.18 91.06l-20.29 46.57-4.74-1.47 25.03-45.1z" class="ap"/><path d="m338.7 82.43 2 22.3 5.19.52 3.78-2.89 2.55 3.54 5.35.54 3.11-1.59 2.3 2.13 8.81-2.35 1.27-2.56 4.43 1.04 2.78-.74 1.53-2.68 2.89 1.5 3.92-1.05-5.44-17.71H338.7z" class="am"/><path d="m371.79 104.63-3.98-19.08 9.68 17.56-5.7 1.52zM362.98 106.98l-.82-15.92-4.59 15.38 5.41.54zM352.22 105.9l2.39-19.07-8.72 18.42 6.33.65z" class="ar"/><path d="m353.4 149.27-23.86-6.2-13.04 6.69 32.66 8.35 2.86-1.04.75-4.23-3.27-1.14 3.9-2.43z" class="be"/><path d="m353.4 149.27-36.9.49 34.94 10.57.58-3.26-16.12-5.29 16.87 1.06.63-3.57z" class="ac"/><path d="m341.15 172.78 2.39-3.07 2.49 2.61-2.04 2.39-2.84-1.93zM342.06 181.5l2.16-2.72 2.84 1.7-2.28 2.84-2.72-1.82z" class="t"/><path d="m369.37 214.57-46.09 5.53.84 9.55 43.94-5.79 1.31-9.29z" class="ac"/><path d="m328.46 266.72 14.62-2.99-2.16 9.7-11.35 2.72-1.11-9.43z" class="aw"/><path d="m347.1 263.56 14.64-3.15-1.72 8.98-9.33 2.17-3.59-8z" class="aa"/><path d="M327.57 287.39h21.94v4.09h-21.94zM343.59 190.76l17.49-5.59 24.92-9.25 2.5 21.28-6.3 6.59-38.61-13.03z" class="ap"/><path d="m386 175.92 39.98 7.4-37.48 13.88-3.29-5.08.79-16.2z" class="ap"/><path d="m388.33 160.33 9.8 10.39-14.82 3.99-1.11-11.91 6.13-2.47z" class="s"/><path d="m377.94 158.54-4.88 11.17 10.25 5 1.4-9.79-6.77-6.38z" class="u"/><path d="m390.51 162.63-4.09 9.58-3.11 2.5-4.52-11.59 4.44-3.85 7.28 3.36z" class="bb"/><path d="m378.79 142.37.1 13.19 5.82 9.36 9.33-3.69-15.25-18.86z" class="s"/><path d="m378.79 142.37-5.73 18.86 5.73 1.89 5.92 1.8-5.92-22.55z" class="u"/><path d="m386.42 177.31 2.08 19.89-2.08 2.11-3.45-20.04 3.45-1.96zM398.13 180.34 400 197.2l2.73-1.83-.86-20.13-3.74 5.1z" class="be"/><path d="m400.73 153.99 13.24 21.93-15.84 4.42-2.98-22.32 5.58-4.03z" class="ak"/><path d="m394.04 156.15-12.99 19.77 12.99 3.36 4.09 1.06-2.98-22.32-1.11-1.87z" class="aa"/><path d="m402.26 156.53-6.18 9.67-2.6-9.19 8.78-.48z" class="bb"/><path d="m400 135.7 6.31 19.99-11.16 2.33v-10.53L400 135.7z" class="ak"/><path d="m395.15 158.02-4.17-2.52 9.02-19.8-4.85 22.32z" class="aa"/><path d="m378.79 189.61 3.58 10.23 2.61-.58-3.93-17.59-2.26 7.94z" class="be"/><path d="m375.53 166.2 18.51 13.07-15.25 10.34-10.73-19.9 3.75-4.79 3.72 1.28z" class="ak"/><path d="m371.81 169.71 6.98 19.9-17.71-4.44 4.68-20.25 6.05 4.79z" class="aa"/><path d="m375.53 166.2-1.78 9.04-8.71-7.17 5.37-1.35 5.12-.52z" class="bb"/><path d="m362.03 146.16 16.76 16.96-6.98 6.59-6.95-8.48-2.83-15.07z" class="ak"/><path d="m362.03 146.16-1.92 20.72 11.7 2.83-9.78-23.55z" class="aa"/><path d="m343.59 190.76 1.45 7.42 2.72 3.11-1.45 3.4 4.19 21.48 33.6 4.79 9.94-21.1-5.54-12.66-44.91-6.44z" class="au"/><path d="m384.1 230.96 29.87-11.7 5.63-16.85-1.8-3.1 4.89-6.14 3.29-9.85-37.48 13.88-4.4 33.76z" style="stroke-width:0;fill:#576071"/><path d="m387.6 204.16 3.57 2.98-4.35 2.98-21.95-2.81-18.56-2.62-1.27-6.51 10.65 1.8 31.91 4.18z" class="be"/><path d="m354.44 203.36 10.43 3.95-5.57 7.64-10.58 2.1.95-10.75 4.77-2.94z" class="z"/><path d="m309.3 152.66-9.54 31.51 9.28 20.68 6.7-19.93-6.44-32.26z" class="be"/><path d="m339.84 198.27 4.73-2.5 11.12 4.21-1.25 3.38L344.2 202l-4.36-3.73z" class="z"/><path d="m339.84 198.27 14.6 5.09-5.72 13.69-11.01-10.75-1.81-5.01 3.94-3.02z" class="ae"/><path d="m315.74 184.92-4.8 5.5-1.9 14.43 28.67 1.45 2.13-8.03-24.1-13.35z" class="be"/><path d="m387.6 204.16 35.09-10.99-3.09 9.24-32.78 7.71.78-5.96z" class="ad"/><path d="m384.69 101.19-7.66-17.71 3.24 18.89 4.42-1.18z" class="ar"/><path d="m330.36 87.76 52.81-5.33-4.38-13.57-55.51 11.02 7.08 7.88z" style="fill:#b7a0c2;stroke-width:0"/><path d="m323.45 92.68 59.72-10.25-59.89-2.55.17 12.8z" class="s"/></g><g id="h"><path d="m260.54 136.83-10.16 5.54 8.18 13.75 4.75-12.8.46-5.68-3.23-.81z" class="n"/><path d="m260.54 136.83-12.21-1.13-2.77 13.67 14.98-12.54z" class="ac"/><path d="m315.74 184.92 1.13 19.91 3.65 12.91 2.93 10.56 14.41-1.79 3.95-8.63-26.07-32.96z" class="s"/><path d="M317.95 289.28v6.46l14.65 2.93 18.26-2.93-10.26-9.8-10.33-5.39-12.32 8.73z" class="aw"/><path d="M317.95 295.74h32.91V301h-32.91z" class="v"/><path d="m340.6 285.94-2.74 1.97-7.95-6.1 5.68-.66 5.01 4.79z" class="s"/><path d="m273.63 284.5-3.34 13.51 12.43 2.64 13.88-2.64-1.08-6.87-8.8-6.37-13.09-.27z" class="aw"/><path d="M270.29 298.01h26.31v5.26h-26.31z" class="v"/><path d="m282.51 285.22-1.2 7.35 4.48.9 1.14-7.06-4.42-1.19z" class="s"/><path d="m331.58 241.7.41 3.34 2.56 24.85-7.33 10.66-15.91-2.35-9.73-15.99 7.58-9.27 22.42-11.24z" class="bf"/><path d="m275.16 247.26-.28 5.68 3.9 8.49-4.59 5.3-.29 8.82 8.94 6.93 16.89-1.06 9.43-21.78-12.02-9.51-21.98-2.87z" class="ah"/><path d="m281.17 203.66-11.84-12.56-10.77 33.73 4.75 4.49 12.53 2.33 5.16-10.76-2.56-9.88 2.73-7.35z" class="s"/><path d="m281.17 185.54-4.41 6.21-1.51 7.61L287 214.43l30.95-8.97-5.38-13.73-4.82-5.12-4.47-2.41-22.11 1.34z" class="q"/><path d="m328.71 123.65 6.34 45.72-28.22 5.05-8.53 10.5-13.95-2.79-13.76-28.16 2.87-25.48 25.65-17.22 29.6 12.38z" class="bi"/><path d="m303.28 184.2-11.12-5.65-9.38-52.03-9.32 1.97-6.28 23.86 3.84 9.12 3.78 1.47-.75 5.73 7.12 16.87 19.91 4.07 2.2-5.41z" class="r"/><path d="M307.27 174.34 287 177.92l16.28 6.28 3.99-9.86zM271.02 161.47l7.01-2.57-3.98 9.77-3.03-7.2zM269.33 153.34l3.89-1.48 1.94 4.26-5.83-2.78z" class="ax"/><path d="m323.55 135.7-16.65 13.67-12.18-9.4 3.22-3.85 7.36.36 5.02 2.51 2.34-3.77 4.66-2.42 6.23 2.9z" class="r"/><path d="m299.98 156.89.93 3.72 11.03.62 9.33-3.41-.81-3.94-20.48 3.01z" class="ax"/><circle cx="301.08" cy="143.32" r="1.85" class="bh"/><circle cx="317.95" cy="140.51" r="1.85" class="bh"/><path d="m294.72 139.97 10.58-3.49-2.33-2.79-8.52 2.97.27 3.31zM312.66 135.22l.98-3.23 8.79.81 1.12 2.9-10.89-.48z" class="au"/><path d="m315.74 156.06 11.6 6.1 1.42-2.41-8.03-4.56-2.78-1.31-2.21 2.18z" class="o"/><path d="m305.3 136.48 7.36-1.26 1.88 12.87-3.27 1.57-4.37-.29-1.6-12.89z" style="fill:#f7e6dc;stroke-width:0"/><path d="m306.9 149.37-8.06 4.06-2.15 4.48 15.25.63 12.92-4.93-3.23-3.77-7.09-1.75-3.27 1.57-4.37-.29z" class="au"/><path d="m306.9 149.37 4.13 3.19 3.51-4.47-7.64 1.28z" class="ap"/><path d="m283.77 131.99-5.74 7.98 5.74 13.35-5.74 2.8-3.5-8.03-7.35 4.26-.85-7.68-3.02-1.35-2.77-6.49 11.7-17.67 11.53 12.83z" class="ar"/><path d="m278.03 139.97-10.85 12.38-3.87-9.03 14.72-3.35z" class="ap"/><path d="m328.71 123.65-68.17 13.18 1.02-4.03 5.62-5.99-3.41-2.76 5.56-6.53-2.83-4.31 1.61-6.39 31.76-8.61 17.09 8.77.39 4.29 4.73 2.97 6.63 9.41z" class="ac"/><path d="m261.56 132.8 60.52-18.56-5.12-7.26-53.19 17.07-2.21 8.75zM263.77 124.05l44.19-21.68-41.46 10.84-2.73 10.84z" class="n"/><path d="m269.33 191.1 7.18 25.12 7.84 6.94 37.24-19.5-5.85-18.74-12.46-.72 7.49 13-14.17 9.57-12.83-3.11-2.6-18.12-11.84 5.56z" class="au"/><path d="m276.51 216.22 7.26-12.56 27-6.46 10.82 6.46 8.74 27.99L287 243.91l-11.47-5.08.98-22.61z" class="bf"/><path d="m290.5 211.8 18.63-3.79 3.53 15.15-19.53 4.3-2.63-15.66z" class="au"/><path d="m276.15 205.19 1.25-3.23 2.87 1.79-1.61 2.6-2.51-1.16zM313.01 195.86l1.17-2.69 2.69 2.06-1.34 2.33-2.52-1.7z" class="o"/><path d="m323.45 233.66 8.13 8.04-22.42 17.94-34-12.38 37.41-10.41 10.88-3.19z" style="fill:#2e3544;stroke-width:0"/><path d="m274.88 252.94 12.99 3.59-3.52 12.92-10.16-2.72.19-3.83 1.77-1.71-1.56-2.55.29-5.7z" class="m"/><path d="m287.87 256.53-13.28 2.11-.21 4.26 13.49-6.37z" class="az"/><path d="m299.73 281.42-25.83-5.87-.27 8.95 21.89 6.64 4.21-9.72zM311.31 278.2l23.24-8.31 1.04 11.26-17.64 8.13-6.64-11.08z" class="ap"/><path d="m275.84 231.65-17.28-6.82-7.65 3.41-1.67 8.31 12.35.59 14.25-5.49zM341.81 217.88l-13.26 8.07 1.78 7.32 8.37 4.06 6.32-5.68-3.21-13.77z" class="r"/><path d="m328.55 225.95-4.89 1.51-2.07 6.75h5.24l1.72-8.26z" class="r"/><path d="m275.53 238.83 7.91-1.04 2.22 1.66 1.34-2.12 9.91-1.3 7.16.52 9.65-2.72 16.61-2.18 1.25 10.05-16.64 1.64-9.39.15-7.86 1.55-9.82.97-2.21-1.72-1.31 2.06-9.19.91.37-8.43z" class="be"/><path d="m283.44 237.79.91 8.56 3.52-.34-.87-8.68-3.56.46z" class="ac"/><path d="m313.72 233.83-16.81 2.2.77 9.01 17.26-1.7-1.22-9.51Zm-13.74 8.82-.19-4.61 10.8-1.49.72 5.14-11.34.96Z" class="ay"/><path d="m328.55 225.95-5.1 16.55 8.54 2.54 6.71-7.71-10.15-11.38z" class="bi"/><path d="m258.56 224.83 3.03 12.31-6.38 2.46-5.97-3.05 1.97-14.23 7.35 2.51z" class="ac"/><path d="m252.04 222.32 2.51-.35 2.22 5.49-5.56 2.62.83-7.76z" class="r"/><path d="m259.4 298.67-11.22-56.69 1.06-9.23-4.71-9.24-2.32-11.72 2.32-9.83 5.28 8.16 2.23 12.2-.83 10.43 4 6.85 10.7 58.41-6.51.66z" class="ak"/><path d="m244.53 223.51-5.22 1.8 1.61 15.25 7.26 1.42v-9.23l-3.65-9.24z" class="r"/><path d="m244.53 223.51 7.51-1.19 3.17 17.28-7.03 2.38-3.65-18.47z" class="bi"/><path d="m242.21 211.79 7.6-1.67-2.52-13.75-4.33-5.27-3.23 8.16 2.48 12.53z" class="bk"/><path d="m225.91 201.45 34.63-6.58-5.33-35.34-4-.99-1.97 1.9 4.66 28.69-9.13 1.97-5.04-28.94-4.49-3.26-2.15 4.22 6.22 28.88-8.73 1.17-6.19-27.81-4.76-3.2-1.79 4.72 8.07 34.57z" style="fill:#dddfe2;stroke-width:0"/><path d="m255.21 159.53-9.65-10.16 3.68 11.07 5.97-.91zM239.73 162.16l-9.24-9.99 2.6 10.95 6.64-.96zM224.39 165.36l-10.14-11.37 3.59 12.89 6.55-1.52z" class="ag"/></g><g id="i"><path d="m648.84 211.37 14.17 68.07 14.49 1.88-13.44-67.85-15.22-2.1z" class="u"/><path d="m686.36 291.54 6.13-1.24-14.31-83.62-9.99 1.47 1.9 38.01 5.56 29.43 10.71 15.95z" class="u"/><path d="m659.35 219.45 13.52 70.85 13.49 1.24-16.27-80.17-10.74 8.08z" class="bk"/><path d="m615.26 286.57 8.65-1.08 27.63-85.14-13.87 6.33-18.53 53.52-3.88 26.37z" class="u"/><path d="M625.96 216.35 602.81 286l12.45.57 22.41-68.78-11.71-1.44z" class="bk"/><path d="m653.21 253.97-4.59 6.48-8.96 1.71 5.25-8.75h3.75l4.55.56z" class="v"/><path d="m670.18 56.49-10.99 1.59-6.05 57.92-9.09 125.86 2.79 13.49 6.37-1.38 16.97-197.48z" class="az"/><path d="m662.23 59.35-4.12-2.23-9.59.96-14.55 196.85 5.69 7.23 7.18-6.81 15.39-196z" class="m"/><path d="M711.35 130.85 726.56 116l-114.24-9.5-12.85 3.24 61.68 19.7 50.2 1.41z" style="fill:#f3eff5;stroke-width:0"/><path d="m726.56 116-14.54 115.7-7.89 4.01-5.96-81.97 13.85-31.88 14.54-5.86z" class="bk"/><path d="m712.02 121.86-83.58-9-28.97-3.12-18.42 117.72 36.25 2.43 33.86 6.18 11.58-3.14 41.39 2.78 7.89-113.85z" style="fill:#dbcfe0;stroke-width:0"/><path d="m648.52 58.08 7.58-3.18 14.08 1.59-7.95 2.86-13.71-1.27z" class="s"/><path d="m662.74 232.92-1.32 5.36-13.33 1.99-1.25-4.56v-4.8l10.36-3.45-.35 5.08 5.89.38z" class="ac"/><path d="m672.54 145.68-2.82 2.55-1.24 5.77-15.34 36.11-6.61-3.61-7.81 1.42-5.62 3.81 1.75 5.12-10.13-1.16v-7.81l-5.58-8.61 15.71-2.86 22.51-13.32 4.02-19.63-23.71 11.88-20.95-18.87-26.15 14.83-2.38 33.47-7.14 34.68 36.25 2.43 4.6-1.86 11.16-.57 8.61-14.99 8.72-.98-2.92-4.34 9.89-1.91.1-3.8 16.86-40.6 1.33-5.92-3.11-1.23z" class="p"/><path d="m648.09 240.27-29.22-2.59-1.57-7.79 19.89-.92 12.2 3.07-1.3 8.23z" class="be"/><path d="m617.3 229.89 9.96-5.87 29.94 3.44-7.81 4.58-32.09-2.15z" class="ad"/><path d="m688.93 149.25-.55 5.81 1.49.28.59-6.09h-1.53z" class="be"/><path d="m683.2 149.98 6.99-5.64 5.51 6.96-12.5-1.32z" class="t"/><path d="m685.45 143.86 9.48.96-4.23-5.31-5.25 4.35zM687.84 139.26l5.96.51-2.5-5.79-3.46 5.28z" class="t"/><path d="m683.43 197.23-.68 7.61 1.7.34.98-7.95h-2z" class="be"/><path d="m677.41 198.32 14.08 1.32-6.75-7.89-7.33 6.57z" class="t"/><path d="m679.91 191.33 9.66.85-3.82-6.47-5.84 5.62zM682.31 185.42l6.25.52-2.28-6.08-3.97 5.56z" class="t"/><path d="m666.06 176.76-.47 6.13 1.78.22.56-7.03-1.87.68z" class="be"/><path d="m660.41 177.31 12.63.96-5.67-7-6.96 6.04zM663.01 170.81l8.71.91-3.79-5.65-4.92 4.74z" class="t"/><path d="m665.25 165.82 5.35.51-2.24-6.47-3.11 5.96z" class="t"/><path d="m650.99 193.77 19.08 1.19-.35 3.15-18.9-1.45.17-2.89zM650.82 200.84l11.75.76-.43 2.98-11.75-1.1.43-2.64zM650.05 207.65l13.37 1.28-.34 2.81-13.37-1.28.34-2.81z" class="bk"/><path d="m651.27 145.05-.79 5.17 1.59.23.79-5.91-1.59.51z" class="be"/><path d="m651.07 133.88 3.75-4.26 1.96 5.11-5.71-.85zM648.52 138.52l5.41-4.21 3.53 5.66-8.94-1.45zM653.08 139.26l-7.12 6.25 11.16 1.19-4.04-7.44z" class="t"/></g><g id="j"><path d="m538.14 184.68-5.19-6.65-7.88-.14-4.13 4.47-.65 7.28 11.96 2.01 5.89-6.97z" class="ae"/><path d="m538.14 184.68-3.72-7.68-8.42-1.36-.93 2.25 6.54 4.24 2.81 6.95 3.72-4.4zM525.07 177.89l-11.77-1.97v7.86l6.99 5.86 4.78-11.75z" class="z"/><path d="m548.48 173.96-4.11 16.9 1.29 8.28 10.85 4.07 6.16-16.24-3.44-17.09-10.75 4.08z" class="at"/><path d="m556.51 203.21-12.14-12.35h-6.09l-3.86 5.99 7.29 10.18 14.8-3.82z" class="n"/><path d="m544.37 190.86-6.23-6.18-12.26 10.51 8.54 1.66 9.95-5.99z" class="at"/><path d="m646.53 186.5-2.74 6.93-8.25 1.13 1.82-5.02 9.14-8.48.03 5.44z" class="z"/><path d="m646.53 186.5-2.48-2.41 3.15-3.03 2.43.64-3.1 4.8zM634.08 181.33l9.36 2.16-10.34 10.22-5.55.85-1.59-5.01 8.12-8.22z" class="ae"/><path d="m635.54 194.56 37.64-46.35-.64-2.53h-2.45l-36.99 46.05v1.98l2.44.85z" class="ab"/><path d="m673.18 148.21 2.47-1.3-4.49-3.83-1.07 2.6 3.09 2.53zM634.85 196.85l.69-2.29-2.44-2.83-4.26 1.78 6.01 3.34z" class="ah"/><path d="m624.72 187.88 6-7.37 10.95.55-.63 3.45-7.75.98-4.45 7.94-4.12-5.55z" class="z"/><path d="m611.91 177 5.39 17.6-2.43 7.95-8.97 1.14-9.76-12.83 4.5-19.3 11.27 5.44z" class="at"/><path d="m584.27 264.49 4.02 14.95 5.27 5.19 2.6-3.31 1.55-21.68-1.8-13.48-11.64 18.33z" class="ae"/><path d="m594.69 255.91-11.63 3.9 1.21 4.68 13.44-4.85-3.02-3.73z" class="w"/><path d="m559.15 237.03-.71 23.03.84 15.65 2.05 5.61 6.53-4.02 3.56-12.81-12.27-27.46z" class="ae"/><path d="m567.44 253.19-9 6.87 12.98 4.43 1.29-4.6-5.27-6.7z" class="w"/><path d="m610.94 251.35-30.65-6.95-33.4 9.57 8.28-30.63 17.5-20.13 27.88 25.74 2.31 2.18 8.08 20.22z" class="n"/><path d="m583.06 259.81 17.16-31.11-3.77-9.25-24.03-20.31-15.86 19.85 1.88 41.07 24.62-.25z" class="be"/><path d="m597.71 259.64 2.51-30.94-3.77-9.25-24.03-20.31-5.11 16.71 15.75 43.96 14.65-.17z" class="at"/><path d="m603.53 173.98-9.53-5.19-8.64 4.94-12.23 5.86-4.1 7.41 3.6 19.39 8.42 9.96 15.4 3.1-.21-12.77 7.29-32.7z" class="be"/><path d="m581.05 216.35 29.89 35 .79-21.83-15.49-22.84-15.19 9.67zM556.76 207.56l-.92 10.23 11.47-1.94 5.15-3.67.17-5.79.5-26.8-5.23-6.28-2.55-6.02-10.64 4.89 2.05 35.38z" class="ad"/><path d="m556.76 207.56-12.39 19.72 2.52 26.69 20.42-38.12-10.55-8.29z" class="ay"/><path d="m596.79 167.2 13.27 3.48 1.85 6.28v.04l-23.2-6.99 8.08-2.81z" class="ad"/><path d="m565.35 167.29-11.69 1.42-5.18 5.25L563 172.1l3.62-.54-1.27-4.27zM567.31 215.85l13.74.5-8.42-9.96-5.32 9.46zM575.85 190.77l-2.93-2.89-2.42 2.98 2.38 2.97 2.97-3.06zM575.65 201.49l-2.89-2.76-2.52 2.93 2.39 2.8 3.02-2.97z" class="ay"/><path d="m596.16 281.32 3.85 8.46-2.85 7.37-3.8-9.37 2.8-6.46z" class="at"/><path d="m588.29 279.44-2.93 5.78 3.85 4.81 7.79 1.51-.84-10.22-7.87-1.88z" class="z"/><path d="m597 291.54-11.64-6.32-5.53 8.96 6.49 1.21 10.84-1.21-.16-2.64z" class="be"/><path d="m559.28 275.59-6.7 7.24 2.13 6.41 6.62-.76 6.53-11.18-8.58-1.71z" class="z"/><path d="m561.33 288.48-8.75-5.65-8.37 8.04 8.33 1.25 5.39.61 3.4-4.25z" class="be"/><path d="M597.16 294.18v2.97h-17.33v-2.97h17.33zM568.7 160.17 563 172.1l4.27 6.41 5.86 1.08-4.43-19.42z" class="at"/><path d="m661.38 143.46-22.1 23.74-9.59-14.94 2.64-5.95 29.05-2.85z" class="bf"/><path d="m562 125.46 57.14 47.85 20.14-6.11-22.48-67.57-54.8 25.83z" class="ah"/><path d="m562 125.46 6.49 21.65 50.65 26.2-18.04-33.28-39.1-14.57z" class="ap"/><path d="m554.92 80.94-14.82 21.54 12.19 30.39 12.01-51.32-9.38-.61z" class="bf"/><path d="m588.71 170.01 4.35-10.54 5.15-12.45 1.72-48.81-15.54 18.51-7.82 33.11-3.44 29.76 15.58-9.58z" class="ae"/><path d="m593.06 159.47 8.04-19.44-2.23-3.89-4.51 5.69 3.85 5.19-5.15 12.45z" class="w"/><path d="m557.39 87.49-8.91 66.23 19.45 3.47 16.25 5.66 16.42-64.43-43.21-10.93z" class="z"/><path d="m570.79 147.65 5.78-2.09-6.12-1.84-4.52.92-4.94-.67-1.76.25 8.13 3.68 3.43-.25z" style="fill:#fff;stroke-width:0"/><path d="m567.93 157.19 5.2 22.4 7.92-4.96 7.14-13.57-20.26-3.87z" class="w"/><path d="m604.32 105.5-10.09 17.96 2.85 2.51 4.02 14.06 20.8-25.16-17.58-9.37z" class="bf"/><path d="m597.08 125.97 8.62 2.55-4.6 11.51-7.62-3.14 3.6-10.92z" class="z"/><path d="m598.63 129.11 4.18 1.21-5.02 3.1.84-4.31z" class="w"/><path d="m596.49 135.34-2.13 6.49 3.43 1.05 1.68-6.57-2.98-.97z" class="at"/><path d="m586.94 118.57-2.16-1.2-9.13-.31-3.19-.43-2.89 6.83.26 11.34 17.11-16.23zM565.3 132.31l-9.83-19.45 1.84-1.45 10.3 4.59-2.31 16.31z" class="ae"/><path d="m586.24 114.33-10.59 2.73 13.88 1.85-3.29-4.58z" class="bf"/><path d="m559.23 144.22 8.17-2.68 9.17 4.02-17.34-1.34z" class="at"/><path d="m567.86 149.83-8.63-5.61 8.08 2.18 9.26-.84-8.71 4.27z" class="ad"/><path d="m555.47 112.86 12.14 3.14-9.67-7.32-2.47 4.18z" class="bf"/><path d="m548.98 86.7 45.25 36.76 34.21-10.6-11.64-13.23-56.9-30.26-10.92 17.33z" class="ah"/><path d="m628.44 112.86-8.67-15.7-59.87-27.79 68.54 43.49z" class="bf"/><path d="m539.6 86.87 54.63 36.59-34.33-54.09-20.3 17.5z" class="bd"/><path d="m596.79 167.2-3.56-7.66-20.1 20.05 15.03-.04 8.63-12.35z" class="at"/><path d="M559.99 116.56c1.51 0 2.68 1.17 2.68 2.68s-1.17 2.68-2.68 2.68-2.68-1.21-2.68-2.68 1.21-2.68 2.68-2.68ZM580.21 120.04c1.46 0 2.72 1.17 2.72 2.68s-1.26 2.68-2.72 2.68-2.68-1.21-2.68-2.68 1.17-2.68 2.68-2.68Z" class="bh"/><path d="m605.9 203.69 11.16-9.38 8.83-1.77 1.66 6.6-8.49 9.01-13.16-4.46z" class="n"/><path d="m567.61 116-4.19 17.84 6.41.96 2.63-18.17-4.85-.63z" class="av"/><path d="m566.98 137.73-3.56-3.89 6.41.96-2.85 2.93z" class="w"/><path d="m565.31 293.92 2.46-.04 1.64-9.88-1.55-6.7-4.61 7.88 2.06 8.74z" class="at"/><path d="m563.25 285.18 1.3 1.21-.54 1.26-6.16 6.4h-13.64v-3.18h11.34l7.7-5.69zM624.72 187.88l10.13 8.97-7.3 2.29-10.49-4.83 7.66-6.43z" class="at"/><path d="m643.44 178.85 5.52-.82.67 3.67-5.58 2.39-.61-5.24z" class="z"/></g><g id="k"><path d="m304.59 294.11-5.05 13.25 19.32-5.56-14.27-7.69z" class="ad"/><path d="m334.64 309.34 14.88-2.87-4.5-14.99-7.5 1.99-2.88 15.87z" class="be"/><path d="m337.86 287.91-9.4 13.09.09 5.01 6.09 3.33 6.09-13.6 1.16-4.26-4.03-3.57z" class="ad"/><path d="M379.31 289.61 367.04 301l6.13 4.22 39.95 2.16 2.98-5.39v-7.33l-21.01-16.97-15.78 11.92z" class="bc"/><path d="m394.04 243.91-.56-10.25 10.24-8.72 1.32 10.55-2.31 4.78-8.69 3.64z" class="ac"/><path d="m394.04 243.91-.59 13.15 20.52 9.1 7.93-6.98-2.34-15.27h-25.52z" class="ab"/><path d="m452.7 240.81-1.17-2.62-4.09-.6-8.69-.26v5.1l6.53 2.61 7.42-4.23zM424.5 243.91l14.25-6.58-13.48-4.27-20.23 1.64 19.46 9.21z" class="af"/><path d="m405.04 234.7-11 9.21 13.09 5.08 17.37-5.08-19.46-9.21z" class="ag"/><path d="m438.75 237.33 7.53 6.28 6.42-2.8 4.34.89 1.56 6.82-8.09 4.8-3.16 1.09 1.28.89-15.46 16.2-16.39-.86-2.81-4.48 5.8-12.26.19-6.14 4.54-3.85 14.25-6.58z" class="aj"/><path d="m447.44 237.59 11.92.35-2.67 4.54-3.99-1.67-5.26-3.22z" class="ad"/><path d="m459.36 237.94-6.66 2.87 5.9 7.71.76-10.58z" class="be"/><path d="m407.13 248.99-2.09-14.29 11.06-8.17 5.8 15.95-2.13 11.42-12.64-4.91z" class="ac"/><path d="m416.1 226.53 3.67 27.37 4.73-9.99-8.4-17.38z" class="be"/><path d="m450.51 253.32-9.71-.49-1.47-1.9-3.14 7.21 3.78-2.33 8.66-.51 1.88-1.98z" class="ad"/><path d="m386.07 264.68-7.11 7.33v10.96l16.13 3.4 26-13.35-7.12-6.86-27.9-1.48z" class="ag"/><path d="m428.19 271.24 2.96 7.66-4.49 9.01-10.56 6.75-21.01-8.29 21.69-15.73 11.41.6z" class="aj"/><path d="m393.45 257.06 39.72 14.44-2.02 7.4-45.08-14.22 7.38-7.62z" class="s"/><path d="m378.96 272.01-29.93-4.15 4.04 10.45 3.79 5.88 22.45 5.42 15.78-3.24-16.13-14.36z" class="aj"/><path d="m421.9 309.31-8.78-1.93 2.98-12.72 5.8 7.33v7.32z" class="o"/><path d="m434.41 308.4 12.28-.79 5.02-3.17-7.68-4.89-16.35-1.51 6.73 10.36z" class="aj"/><path d="m444.03 299.55 2.66 8.06 9.09-.58-5.1-6.86-6.65-.62z" class="am"/><path d="m431.15 278.9 3.26 29.5-12.51.91-5.8-14.65 15.05-15.76zM349.03 267.86l-11.17 20.05 2.87 7.83 12.06-6.13 5.51-9.17-9.27-12.58z" class="ag"/><path d="m340.73 295.74 17.57-15.3 21.01 9.17L367.04 301l-17.52 5.47-8.79-10.73z" class="o"/><path d="m379.31 289.61 2.73 16.09-8.87-.48-2.61-3.23 8.75-12.38z" class="y"/><path d="m379.31 289.61-5.49 13.97-3.26 4.82-21.04-1.93 29.79-16.86z" class="bc"/><path d="m349.52 306.47 1.34 6.36 37.42 2.27 5.2-3.86.05-5.23-19.71-2.43-24.3 2.89z" class="ag"/><path d="m393.53 306.01 4.6.56 2.55 8.53h-12.4l5.25-9.09z" class="am"/><path d="m334.64 309.34-20.25-26-9.8 10.77 13.36 14.29 16.69.94z" class="be"/></g></svg>