<svg xmlns="http://www.w3.org/2000/svg" id="a" viewBox="0 0 900 320"><defs><style>.j{fill:#576071}.aa,.ab,.ac,.ad,.ae,.af,.ag,.ah,.aj,.ak,.al,.am,.an,.ap,.aq,.at,.au,.av,.ax,.ay,.az,.ba,.bb,.bc,.be,.bf,.bg,.bh,.bi,.bj,.bk,.bm,.bo,.bp,.bq,.br,.bs,.bu,.bv,.bw,.bx,.by,.bz,.cb,.cc,.ce,.cf,.cg,.ch,.ci,.cj,.j,.l,.p,.q,.r,.s,.t,.u,.v,.w,.x,.z{stroke-width:0}.ab,.al,.aq,.az,.be,.bj,.bs,.bv,.ch,.ci,.cj,.w{fill-rule:evenodd}.bf{fill:#67acc3}.l{fill:#4b9db7}.bh{fill:#e8cab6}.p{fill:#1d2432;opacity:.1}.q{fill:#545c6d}.ab,.r{fill:#72cbcc}.s{fill:#d0af96}.t{fill:#4298b4}.u{fill:#359496}.v{fill:#317186}.af,.w{fill:#c3987b}.bs,.x{fill:#8b6651}.bj,.z{fill:#dfbda5}.aa{fill:#8dc1d2}.ac{fill:#7bb7ca}.ad{fill:#9a9fa9}.ae{fill:#4fa9aa}.ag{fill:#2e6a7d}.ah{fill:#eeeff1}.bw{fill:#5f6878}.aj{fill:#185e60}.ak{fill:#abafb8}.al,.cf{fill:#d9eaf0}.am{fill:#347990}.an{fill:#454d5d}.ap{fill:#cccfd4}.aq{fill:#369496}.at{fill:#b3d5e1}.au{fill:#ecf4f7}.av{fill:#bbbfc6}.ax{fill:#2e3544}.ay{fill:#a0cbd9}.az{fill:#50a9aa}.ba{fill:#dddfe2}.bb{fill:#404857}.bc{fill:#3e90aa}.be{fill:#fff}.bg,.cj{fill:#4b5464}.bi{fill:#2a6275}.bk{fill:#245362}.bm{fill:#3b88a1}.by{fill:#1e7678}.bo{fill:#c6e0e8}.bp{fill:#a9846c}.bq{fill:#388199}.br{fill:#5f5044}.bu{fill:#787f8d}.bv,.cb{fill:#232a38}.bx{fill:#8e7e73}.bz{fill:#3d4554}.ce{fill:#efd3c2}.cc{fill:#74665b}.cg{fill:#55a2bb}.ch{fill:#3aa0ba}.ci{fill:#27788c}</style></defs><g id="b"><path d="m52.05 262.52 151.88-15.93 179.04 16.03 3.38 12.18-85.06 10.54-8.96-7.42-6.46 9.93-47.18 2.1-20.92-2.1-14.21 7.14-28.8 5.07-19.27-5.96-7.17 5.96-62.23-5.07 17.07-9.06-51.11-23.41zM301.95 300.06l96.34-7.46 30.55 5.12 32.56-8.92 80.23 11.46-22.73 4.81-38.62 8.04-48.26-7.86-87.79 6.94-42.28-12.13zM525.15 290.47l18.89-4.37 38.61-8.18 70.45 11.58-25.74 12.97-42.83 2.6-59.38-14.6zM666.85 302.07l23.13-4.21 17.25 2.25 23.55 4.89-39.81 7.47-39.31-4.64 15.19-5.76zM725.4 284.88l43.88-9.67 31.52 5.51 39.99 6.68-27.87 8.77-57.68 5.33-29.84-16.62z" class="p"/></g><g id="c"><path d="m386.35 274.8-9.66-1.08-13.97-27.13 23.63-2.82v31.03z" class="q"/><path d="m105.84 277.8 13.89-1.7 8.43-37.11-22.32 1.91-8.55 8.7 8.55 28.2z" class="bw"/><path d="M285.87 287.85 273.62 286l-5.35-23.98-161.24-14-1.19 29.78-14.05-3.02-5.7-49.49 158.3 11.15 54.75 4.46-13.27 46.95z" class="q"/><path d="m405.05 230.26-4.56 42.8-14.14 1.74-5.31-25.42-75.09 10.31-4.66 25.65-15.42 2.51 4.73-41.76 21.89-9.65 78.83-11.15 13.73 4.97z" class="bw"/><path d="m417.12 217.02-1.76 15.83-124.76 13.24-12.3-26.84 138.82-2.23z" class="ac"/><path d="M290.6 246.09 72.87 230.51l-2.34-17.42 67.23-1.93 130.51 10.91 24.06 10.66-1.73 13.36z" class="bf"/><path d="m70.53 213.09 181.06-23.08 132.89 21.66 32.64 5.35-124.79 15.71-221.8-19.64z" class="at"/><path d="m281.11 219.95 26.7-1.18-2.17-9.63-37.37-10.31-27.08 15.57 39.92 5.55zM99.29 211.82l19.71.47-5.18-3.59-12.3.44-10.2 1.3 7.97 1.38z" class="p"/><path d="m223.86 151.54 51.64-5.39 3.01 22.25h-35.6l-19.05-16.86z" class="q"/><path d="m327.24 151.54-47.21-4.8-5.91 20.36 32.42-1.54 20.7-14.02z" class="q"/><path d="m261.03 147.03 10.93 3.07 4.97 8.75-15.9 4.64v-16.46z" class="au"/><path d="m263.67 151.07-2.99-3.34-4.3.42-8.17 10.7 12.82 4.64 2.64-12.42z" class="ay"/><path d="m271.96 150.1-2.98-8.6-6.19.61.88 8.96 8.29-.97z" class="v"/><path d="m256.38 148.15 1.84-6.96 5.38.35.98 1.71-.91 7.82-7.29-2.92z" class="bi"/><path d="m258.22 141.19 5.74-1.68 5.02 1.99-4.4 1.75-6.36-2.06z" class="bq"/><path d="m310.25 147.82 5.1 10.1-12.91 2.37-1.06-12.65 8.87.18z" class="au"/><path d="m303.49 150.1-2.55-3.07-5.52 1.27-4.14 10.94 11.16 1.05 1.05-10.19z" class="ay"/><path d="m310.25 147.82-1.58-7.11-7.64.7 2.46 8.69 6.76-2.28z" class="v"/><path d="m302.44 142.11-.44-1.14h-5.31l-1.27 7.33 8.07 1.8-1.05-7.99z" class="bi"/><path d="m296.69 140.97 5.48-1.14 6.5.88-6.23 1.4-5.75-1.14z" class="bq"/><path d="m291.82 140.5 8.64 18.74-18.26 4.25-3.69-14.09 3.33-10.19 9.98 1.29z" class="au"/><path d="m283.91 142.78-2.86-3.74-4.65 1.76-9.31 19.49 15.11 3.2 1.71-20.71z" class="ay"/><path d="m291.82 140.5-1.63-9.19-8.08.97 1.8 10.5 7.91-2.28z" class="by"/><path d="m283.55 132.98-.39-1.05-5.48-.83-1.28 9.7 7.51 1.98-.36-9.8z" class="aj"/><path d="m277.68 131.1 6.8-.84 5.71 1.05-6.64 1.67-5.87-1.88z" class="ae"/><path d="m282.64 158.16 20.98 2.48 23.62-9.1-2.54 42.77-39.32 9.92-9.88-32.1 7.14-13.97z" style="fill:#89909b;stroke-width:0"/><path d="m282.64 158.16-34.43 1.81-24.35-8.43 4.01 43.43 57.51 9.26-2.74-46.07z" style="fill:#68707f;stroke-width:0"/><path d="m282.64 158.16-12.37 10.24-36.55-4.91-9.86-11.95 58.78 6.62z" class="ad"/><path d="m327.24 151.54-9.92 11.95-26.04 5.6-8.64-10.93 44.6-6.62z" class="ak"/><path d="m296.57 182.26 51.14-4.31-3.74 35.65-36.16 5.17-8.67-20.35-2.57-16.16z" class="v"/><path d="m305.31 186.34-6.17-6.21-42.62-.68 2.58 33.41 23.68 2.87 2.31-2.22 1.7 2.71 21.02 2.55-2.5-32.43z" class="bi"/><path d="m256.52 179.45 44.97-8.3 16.85 2.48-.4 1.24 5.08-.55 24.69 3.63-42.4 8.39-48.79-6.89z" class="bq"/><path d="m318.34 173.63-37.95 9.19 1.78 2.82 3.7-2.04 37.15-9.28-4.68-.69z" class="ag"/><path d="m280.39 182.82 2.39 32.91 4.01.49-.92-32.62-5.48-.78z" class="bk"/><path d="m294.94 190.66 2.51.35.65 8.65-2.89-.35-.27-8.65z" class="r"/><path d="m292.09 193.6 8.25 1.06.22 1.97-8.08-.83-.39-2.2z" class="r"/><path d="m130.55 174.31 3.01 35.31-14.56 2.67-2.8-38.51 14.35.53z" class="ac"/><path d="m105.66 175.47-1.24 10.12 2.03 3.85-2.75 1.96-2.18 17.74 17.48 3.15.6-18.99-2.61-3.29 2.8-2.6.35-10.95-5-2.68-9.48 1.69z" class="cg"/><path d="m119.79 187.41-15.37-1.82-.72 5.81 15.9 1.9.19-5.89z" class="am"/><path d="m130.55 174.31-5.92-8.91-6.73-.42-.91 7.81 3.15 3.67 10.41-2.15z" class="ay"/><path d="m118.99 167.1-2.57-1.7h-3.99l-6.77 10.07 14.48.99-1.15-9.36z" class="ac"/><path d="m124.63 165.4-1.72-8.48-6.49.9 2.57 9.28 5.64-1.7z" class="by"/><path d="M117.9 158.13v-.94l-4.08.09-1.39 8.12 6.56 1.7-1.09-8.97z" class="aj"/><path d="m113.82 157.28 4.7-1.03 4.39.67-5.01 1.21-4.08-.85z" class="ae"/></g><g id="d"><path d="m681.92 74.47 7.38 22.35 10.54-4.51-2.54-9.91-15.38-7.93z" class="bq"/><path d="m706.37 81.08-11.96-5.56-12.49-1.05L697.3 93.3l9.07-12.22z" class="bf"/><path d="m739.47 267.76 15.93 5.3-5.88-16.53-10.05 11.23z" class="an"/><path d="m808.71 209.27 18.26 9.02-5.83 7.79-16.39-1.86 3.96-14.95z" class="bw"/><path d="m773.72 251.65-4.44 23.56 5.57 8.38 8.15-3.46 5.8-19.08 2.17-6.68-17.25-2.72z" class="bm"/><path d="m777.95 259.06 13.02-4.69-6.9-9.02-10.35-1.11 4.23 14.82z" class="aa"/><path d="m758.08 216.49-4 19.43 7.63 19.08 16.24 4.06 7.22-16.18-6.67-15.42-20.42-10.97z" class="l"/><path d="m820.69 259.11-5.72 27.29-7.28 3.1-6.89-8.78 2.99-16.48-1.5-5.9 18.4.77z" class="bm"/><path d="m803.79 264.24 16.9-5.13-19.89-6.67 2.99 11.8z" class="aa"/><path d="m758.08 216.49 21.65 26.39 16.59-9.35 12.39-24.26-29.16-4.41-21.47 11.63z" class="cc"/><path d="m733.81 146.3-14.55 40.65 12.7 9.44 14.22-18.83-12.37-31.26z" class="ag"/><path d="m729.85 176.44 28.23 40.05 11.2-7.22 13.98 3.63 25.45-3.63-7.91-47.1-70.95 14.27z" class="bm"/><path d="m734.23 143.13-4.38 33.31 20.53 5.98 1.31-4.86 6.08 7.01 36.53-9.24 6.5-13.16-9.83-21.84-24.24-3.7-10.19 1.12-22.31 5.38z" class="bf"/><path d="m744.07 144.31 15.24-2.13 7.42-5.55v-14.74l-11.88-10.24-8.84 13.42-1.94 19.24z" class="am"/><path d="m759.31 142.18-13.54-14.74-1.7 16.87 7.38 3.75 7.86-5.88z" class="ag"/><path d="m699.11 138.84-4.21 9.22-4.39-12.5 4.3-.73 4.3 4.01z" class="bo"/><path d="m689.3 96.82 17.07-15.74 42.86 11.23-14.46 19.34-16.46 3.85-29.01-18.68z" class="ay"/><path d="m718.31 115.5 5.18 11.94 14.96-1.1 16.4-14.69-5.62-19.34-30.92 23.19z" class="ac"/><path d="m723.49 127.44-5.18 10.33 8.02 4.41 17.74 2.13 10.78-32.66-31.36 15.79z" class="bm"/><path d="m722.06 137.04-22.95 1.8 5.27 13.18 39.69-7.71-22.01-7.27z" class="am"/><path d="m690.78 105.11 2.71 16.78 13.61 5.94 16.39-.39 8.47-17.56-8.79-7.32-7.02 3.17-5.52 3.04-2.56-5.29-14.64-5.19-2.65 6.82z" class="bf"/><path d="m706.23 103.48-.68 10.39 2.52 3.28 4.86-1.65 4.47-10.75-11.17-1.27z" class="ay"/><path d="m689.3 96.82 18.15-1.57 3.88 8.81-20.55 1.05-1.48-8.29zM719.92 96.83l-8.59 7.23 20.63 5.82 2.27-6.32-14.31-6.73z" class="j"/><circle cx="721.71" cy="113.16" r="2.55" class="ax"/><circle cx="699.84" cy="110.09" r="2.55" class="ax"/><path d="m717.4 137.94-.84 4.24-4.22 2.13-2.39-4.93 2.39-2.75 5.06 1.31z" class="bo"/><path d="m693.49 121.89 19.76 3.13 10.24 2.42-1.43 9.6-18.21 3.52-1.46-1.97-3.26.2-8.62-3.23 2.98-13.67z" class="ac"/><path d="m705.55 113.87-12.06 8.02 8.17 3.83 11.59-.7-.32-9.52-7.38-1.63z" class="bo"/><path d="m703.85 140.56-.35-6.5-4.39 4.78 4.74 1.72z" class="bc"/><path d="m693.49 121.89 10.01 12.17 9.75-9.04-19.76-3.13z" class="j"/><path d="m751.45 148.06 6.32 36.51-7.39-2.15 1.07-34.36z" class="t"/><path d="m757.77 184.57.31 31.92 25.18-3.59-25.49-28.33z" class="ag"/><path d="m731.96 196.39-8.18-22.06-5.47-1.1-3.72 3.21-1.83 15.89 19.2 4.06z" class="bq"/><path d="m779.73 242.88 9.07 18.17 14.99 3.19 9.13-40.98-4.21-13.99-28.98 33.61z" class="bf"/><path d="m702.39 163.57 1.99-11.55 5.57-2.85 3.13 1.16 5.23-2.27 3.28.62-1.05 16.48-8.55 1.15-9.6-2.74z" class="ay"/><path d="m713.08 150.33-1.09 15.98-2.97-.84 4.06-15.14z" class="t"/><path d="m723.78 174.33-3.24-9.17-18.15-1.59 12.2 12.87 9.19-2.11z" class="bf"/><path d="m704.38 152.02 4.64-7.49 4.06 5.8-8.7 1.69zM721.59 148.68l-3.28-5.07-5.23 6.72 8.51-1.65z" class="an"/><path d="m766.73 136.63 14.25-1.8.68-7.54-10.04-19.75-4.89-4.06-11.88 8.17 11.88 24.98z" class="v"/><path d="m781.66 127.29 25.11 6.77-5.97 17.96-9.83-5.72-24.24-9.67 14.93-9.34z" class="bm"/><path d="m790.97 146.3 3.33 29.03 3.96 11.94h20.28l-11.77-53.21-15.8 12.24z" class="ag"/><path d="m794.3 175.33-16.33 21.06 1.58 8.47 7.59 4.17 31.4-21.76-24.24-11.94z" class="am"/><path d="m821.14 226.08-47.42-23.79-18.32 10.41 53.15 30.18 12.59-16.8z" class="an"/><path d="m773.72 202.29-26.89-1.76-23.75 21.16L743.14 234h16.49l14.09-31.71z" class="j"/><path d="m759.63 234 2.08 21-7.63-.73-6.4-4.95-24.6-27.63L759.63 234z" class="an"/><path d="m761.71 255-22.24 12.76 8.21-18.44 14.03 5.68z" class="j"/><path d="m737.87 214.21 12.57 9.29 4.96-3.53-13.9-7.95-3.63 2.19z" class="ay"/><path d="m737.18 220.87 12.16-9.77 4.74 2.41-12.54 10.67-4.36-3.31z" class="bo"/><path d="m777.97 196.39-13.23 11.53 5.78 8.57 11.68.78 4.94-8.24-9.17-12.64z" class="bf"/><path d="m764.74 207.92.58 13.26 5.2 1.92 1.45-1.48 1.45 2.56 6.31 2.33 2.47-9.24-17.46-9.35z" class="ay"/><path d="m773.35 212.53-2.83 10.57 2.9 1.08-.07-11.65z" class="t"/><path d="m769.28 275.21-6.8 8.38-2.78 5.91 4.4 1.4h2.89l3.78-2.46 2.65 2.46h6.31l3.27-10.77-13.72-4.92zM800.8 280.72l-5.44 7.72-1.63 5.97 3.82 1.76h3.25l3.25-1.05 3.11 1.05h5.76l2.05-9.77-14.17-5.68z" class="bf"/><path d="m764.1 290.9-1.62-7.31-5.94 7.31h7.56zM773.42 290.9l-1.45-7.31-4.98 7.31h6.43zM789.91 296.17l5.45-7.73 2.19 7.73h-7.64zM800.8 296.17l4.92-6.67 1.44 6.67h-6.36zM713.22 94.15l-6.85-13.07 12.79-11.12 27.48 1.76v6l8.76.24.79 5.61 5.13 5.4-12.09 3.34-24.97 1.28-2.73-2.79-8.31 3.35z" class="j"/><path d="m749.23 92.31 6.17-14.35 18.02 12.84-24.19 1.51zM746.64 71.72 729.85 93.3l25.55-15.34-8.76-6.24zM713.22 94.15l16.63-23.51-5.59 22.95-11.04.56z" class="an"/><path d="m749.23 92.31 23.38-17.84 3.33 17.84-21.09 19.34-5.62-19.34z" class="bf"/><path d="m772.61 74.47-17.76 37.18 16.77-4.11L784 83.8l-11.39-9.33z" class="bq"/></g><g id="e"><path d="m553.74 208.21 7.71 37.35 10.77 18.07 18.54-8.52 5.53-12.23-10.61-20.9-31.94-13.77z" class="by"/><path d="m553.74 208.21 31.85 30.17 15.44-2.03 19.95-22.46-15.17-12.14-52.07 6.46z" class="aj"/><path d="m585.59 238.38 5.17 16.73 17.34 12.39 11.86-15.22 4.09-35.79-7.27-2.09-11.8 9.07-19.39 14.91z" class="ae"/><path d="m590.76 255.11 29.2-2.83-1.99 17.46-7.57 6.46-16.22-10-3.42-11.09z" class="u"/><path d="m558.67 135.04-17.96 37.71 19.94 14.47 3.32-21.07-5.3-31.11z" class="bi"/><path d="m574.81 131.55-16.14 36 29.1 10.01 29.83-5.38 3.13-26.04-2.25-9.51-6.94-1.19-36.73-3.89z" class="q"/><path d="m558.67 167.55-2.75 40.68 65.06 5.66-3.38-41.71-58.93-4.63z" class="an"/><path d="m639.12 140-20.64-3.37-2.19 15.39-9.85 19.29 9.85 6.64 11.7-3L639.12 140z" class="bq"/><path d="m606.44 171.31-.86 41.24 18.47 3.94 3.94-41.54-21.55-3.64z" class="v"/><path d="m574.81 131.55-.57 4.09-5.97 18.91 1.35 13.86-6.87 6.92-6.83-7.78 2.75-32.51 16.14-3.49z" class="bq"/><path d="m569.62 168.41-1.74 40.86-14.14-1.06 2.18-40.66 13.7.86z" class="v"/><path d="m535.08 39.57 7.82 35.6 6.9 13.35-1.8 9.9 2.95 4.14-1.34 3.17 1.91 8.72 2.38 1.74-2.57 2-.82 16.53 34.09 1.32 9.11 6.14 15.06-10.9 2.18-31.3 6.53-1.98 1-7.72-8.92-4.36-14.26-43.18-60.22-3.17z" class="z"/><path d="m589.66 138.84 5.64-2.41.99-93.69 18.42 43.58 8.52-.6-1.78 17.04-7.13-.6-1.73 2.61.93 6.88-1.98 23.79-19.21 10.7-2.67-7.3zM545.19 85.63l9.3-2.09 5.55 2.09 4.75 4.94 5.55-4.65 7.72-1.78 12.68 3.36-13.27 11.1-5.15-3.17-3.57 7.13-9.51-9.51L548 98.42l-2.81-12.79zM587.77 97.81l-8.32 6.73 5.75 1.19 2.57-7.92z" class="af"/><path d="m548 98.42 5.9 4.96-4.29 2.35-1.61-7.31z" class="af"/><path d="m560.04 85.63 10.3.29-1.59 16.64-4.94 1.78-4.96-2.18 1.19-16.53zM560.65 80.94l-17.75-5.77-2.19 7.05 7.29 2.52 12.65-3.8zM569.62 81.08l14.98-4.67 6.66 7.19-10.72.98-10.92-3.5z" class="bh"/><path d="m558.85 102.16 4.95 5.22 4.95-4.82-9.9-.4zM551.52 114.45l12.28-2.8 14.01 4.45-1.03 3.25-12.98-4.58-12.47 3.42.19-3.74zM584.6 136.04l10.7.39 10.28-4.88-13.25 14.59-7.73-10.1zM614.32 102.16l-7.23-.56 6.43 10.05.8-9.49zM612.02 98.09l.57-7.2 6.63-.09-7.2 7.29z" class="x"/><circle cx="576.71" cy="90.86" r="1.9" class="cb"/><circle cx="554.03" cy="90.42" r="1.9" class="cb"/><path d="m538.14 53.52-3.06-13.95 34.68-11.13 50.22 2.15-7.2 47.13-4.17-2.55-12.39-25.96-33.66 9.18-24.42-4.87z" class="by"/><path d="m596.22 49.21 5.63-17.22 18.13-1.4-5.27 55.73-9.13 1.38V68.82l-4.98-1.61-4.38-18z" class="aj"/><path d="m541.42 86.8 18.62-1.17.61-4.69-19.94 1.28.71 4.58zM570.34 85.92l20.4 1.58.52-3.9-21.64-2.52.72 4.84z" class="by"/><path d="m590.74 34.13-6.14 18.25-7.89-16.54 14.03-1.71zM562.56 58.39l3.41-17.54 7.24 14.64-10.65 2.9zM554.03 56.69l-2.7-16.27-6.14 14.51 8.84 1.76z" class="aj"/><path d="m535.08 39.57 30.89 1.28 54.01-10.26-51.23-7.45-33.67 16.43z" class="ae"/><path d="m610.7 32.35-10.1 34.86 4.98 20.49 5.12-55.35z" class="by"/><path d="m596.09 61.3-55.64 2.72 25.27 3.19 30.37-5.91z" class="af"/><path d="m549.95 62.03 1.01 5.81 2.78.38-.47-7.13-3.32.94zM565.72 67.21l-1.14-6.04-2.35.25.71 6.57 2.78-.78zM577.06 60.33l.68 6.88 2.65-.12.13-6.45-3.46-.31zM612.88 119.34l8.32-.62-2.02 6.35-11.08-1.52 4.78-4.21z" class="cf"/><path d="m608.1 123.55 4.15 3.34 8.21.55.27-3.79-2.82-.95-9.81.85z" class="ay"/><path d="m621.2 118.72 2.85 3.98-3.59 4.74-2.55-4.74 3.29-3.98z" class="bf"/><path d="m574.24 135.64-12.56 17.8 7.94 14.97 4.62-32.77zM618.48 136.63l4.3 20.66-16.34 14.02 12.04-34.68z" class="aa"/><path d="m625.15 204.86-8.92 9.96-.99 4.59 6.68 5.57 3.43-12.32-.2-7.8z" class="af"/><path d="m603.45 177.56 1.53 45.91 5.34-1.62 1.4-3.56.09-43.96-8.36 3.23zM654.67 181.57l-6.59 49.68-7.44-6.43 2.4-2.9 4.06-43.58 7.57 3.23z" class="aa"/><path d="m603.45 165.16 49.89 3.25 4.55 6.54-54.44-.22v-9.57z" class="bx"/><path d="m606.44 171.31 51.45 3.64-3.22 6.62-51.22-4.01-.32-4.47 3.31-1.78z" class="cc"/><path d="m603.45 165.16-4.5 5.56 4.5 6.84 2.99-6.25-2.99-6.15z" class="br"/><path d="m604.98 223.47 11.96 42.09 4.04 1.68 1.8-3.28-10.97-45.44-6.83 4.95zM648.08 231.25l-18.43 33.45-3.54 1.79-.98-2.25 15.61-40.02 7.34 7.03z" class="aa"/><path d="m611.72 218.29 31.32 3.63 5.04 9.33-43.1-7.78 6.74-5.18z" class="at"/><path d="m617.97 269.74 5.26-2.5 6.42-2.54-1.78 29.84-3.23 3.91-3.23-2.54-3.44-26.17z" class="aa"/><path d="m616.94 265.56 5.6-2.61 7.11 1.75-11.68 5.04-1.03-4.18z" class="at"/><path d="m621.41 295.91 6.46-1.37-.51 7.93-5.79-.07-.16-6.49z" class="bx"/><path d="m639.12 140 10.28 49.4-9.94 4-7.81-6.13-8.42-20.82L639.12 140z" class="bi"/><path d="m629.38 193.4-4.23 11.46 12.96 4.41 4.86-8.56-4.86-9.99-8.73 2.68z" class="af"/><path d="m631.65 187.27-2.27 6.13 13.59 7.31 6.43-11.31-17.75-2.13z" class="bq"/><path d="m625.15 204.86-6.8 14.19 9.64 4.7 10.28-2.38-.16-12.1-12.96-4.41z" class="z"/><path d="m618.35 219.05.62 9.33 12.64-.1 6.66-6.91-19.92-2.32zM540.71 172.75l28.41 7.39 3.1 10.22-3.79 6.03-14.01-.94-13.71-22.7zM569.12 180.14l9.36-2.58 7.2 7.43-3.98 1.96-3.92-.97-8.66-5.84z" class="af"/><path d="m569.12 180.14 16.56 4.85-9.6 17.69-7.65-6.29.69-16.25z" class="z"/><path d="m585.68 184.99 8.89 7.65-7.84 9.37-10.65.67 9.6-17.69z" class="af"/><path d="m561.45 245.56 29.31 9.55-3.85 8.52-9 3.87-13.63-8.19-2.83-13.75z" class="aj"/><path d="m596.67 274.26-7.33 18.95 14.47 3.38 14.47-3.38-1.5-13.08-10.73-6.96-9.38 1.09z" class="bw"/><path d="M589.34 293.21h28.93v6.76h-28.93zM594.18 266.2l9.04 1.56 2.55 2.52 2.68-1.63 9.52 1.09-1.19 10.39-20.11-5.87-2.49-8.06z" class="bg"/><path d="m603.22 267.76 5.23.89-.88 8.79-1.52 1.87-2.24-2.97-.59-8.58z" class="ak"/><path d="m603.81 276.34-1.93 8.34 4.58.88 1.11-8.12-3.76-1.1z" class="ba"/><path d="M582.65 272.21v13.89l-15.92 2.18-22.69-2.18 13.16-11.16 11.04-7.38 10.05 2.62 4.36 2.03z" class="bw"/><path d="M582.65 292.86h-9.29l-1.9-3.38-9.09 3.38h-18.33v-6.76h38.61v6.76z" class="bg"/><path d="m582.65 272.21-12.3-3.47-3.81-6.93 2.67-1.56 17.7 3.38-4.26 8.58z" class="bb"/><path d="m564.28 259.31 4.93.94 1.14 8.49-3.02 1.35-1.35-2.59-1.7-8.19z" class="ak"/><path d="m570.35 268.74-8.49 8.23-4.66-2.03 8.78-7.44 4.37 1.24z" class="ba"/></g><g id="f"><path d="m455.17 203.29-4.77 76.02 45.7 8.15 40.61-7.33-12.57-58.28-68.97-18.56z" class="bz"/><path d="m461.63 176.14-20.15 12.57-2.49 6.96 4.1 9.05 12.08-1.43 9.42-8.78-2.96-18.37z" class="ag"/><path d="m461.4 288.8-12.7 8.87 13.41 1.4 12.97-1.4-6.23-9.82-7.45.95z" class="j"/><path d="M448.7 297.67h26.83v2.81H448.7z" class="bz"/><path d="m455.17 203.29 9.42 24.59 12.52 7.43 34.01-15.13-3.62-11.04-23.14-5.85h-29.19z" class="ag"/><path d="m461.63 176.14-6.46 27.15 52.33 5.85 9.62-24.84-20.19-4.17-21.41-3.8-13.89-.19z" class="bq"/><path d="m484.36 194.51-2.9 11.72-2.1 2.91-2.25-3.4 2.79-14.84h4.46v3.61z" class="ae"/><path d="m481.46 206.23 2.9 8.89-5 1.35-2.25-10.73 4.35.49z" class="u"/><path d="m468.85 238.99-7.45 49.81 14.12 11.68 13.58 1.78 23.95 2.81 5.49-.96-4.9-76.23-27.49 3.01-17.3 8.1z" class="bq"/><path d="m468.85 238.99 6.67 61.49 10.63-69.59-17.3 8.1z" class="ag"/><path d="m497.16 293.46 8.9-64.75-19.91 2.18 11.01 62.57z" class="ag"/><path d="m468.85 238.99 44.79-11.11-2.52-7.7-46.53 7.7 1.49 3.89 2.77 1.83-1.16 2.37 1.16 3.02z" class="bg"/><path d="m512.12 223.24-46.04 8.53 1.61 4.2 44.43-12.73z" class="bz"/><path d="m497.16 293.46-8.06 8.8 8.45 2.14 15.5-2.14-15.89-8.8z" class="j"/><path d="M489.1 302.26h23.95l1.96 1.41-1.96 1.4H489.1v-2.81z" class="bz"/><path d="m510.4 184.3-2.9 24.84 8.26 3.72h7.43l-6.07-28.56h-6.72z" class="ag"/><path d="m461.63 176.14 18.27 14.76h5.75l5.76 1.41 25.71-8.01-6.72-4.17h-4.34v-2.69l-5.64-3.5-24.9-2.79-3.83 1.38-1.83 2.16-3.1-.39-5.13 1.84z" class="bg"/><path d="m489.76 187.08 16.3-9.64 4.34 2.69-20.64 6.95zM471.69 172.53l11.7 14.19-16.63-12.42 4.93-1.77z" class="bz"/><path d="m479.9 190.9 8.04-9.62 3.47 11.03-7.05 2.2-4.46-3.61z" class="r"/><path d="m493.08 22.95 22.68 22.4-27.09-4.77 4.41-17.63z" class="bk"/><path d="m435.13 134.1 9.76 10.28 8.45-9.36-5.12-8.22-13.09 7.3z" class="av"/><path d="m435.13 134.1 11.69-19.13 1.93 16.29-13.62 2.84z" class="ah"/><path d="m441.48 188.71-8.55-2.48-1.57 1.21-1.57-2.12-3.5-1.02-4.13 8.81 12.97 8.64 2.87-.78 2.88 2.92 2.21.83-1.61-16.01z" class="at"/><path d="m426.29 184.3-.7 6.54-.71 7.07-3.35-14.99 4.76 1.38zM429.79 185.32v14.59l3.14-13.68-3.14-.91zM437.11 187.44l3.77 16.45-5.75-2.14 1.98-14.31z" class="ac"/><path d="m450.51 103.4-6.5 16.16-3.13 43.55 30.91 5 15.6 9.78 11.61-7.16 2.43-16.07 12.21-30.75-18.17-23.21-29.01-5.1-15.95 7.8z" class="ce"/><path d="m484.36 173.66 1.47-3.39 9.18-51.68 7.07-9.44 11.56 14.76-8.44 34.81-4.78 15.22-12.48 7.34-3.58-7.62z" class="s"/><path d="m471.79 168.11 14.04 2.16 11.1-2.16-8.99 13.17-16.15-13.17z" class="bp"/><path d="m481.46 126.8-19.22 15.38-13.86-20.19 4.77-2.57 6.43 1.74 2.75 4.5.83 3.21 2.57-2.84 3.85-3.4 6.06-.09 5.82 4.26z" class="s"/><path d="m465.73 126.03-2.39 5.01-1.1 11.14-2.39.37-2.32-1.1 1.65-11.08 3.15-4.71 3.4.37z" style="fill:#f7e6dc;stroke-width:0"/><path d="m457.53 141.45 2.23 2.93 2.48-2.2-4.71-.73z" class="bp"/><path d="m448.75 131.26-3.86 1.47 1.19 2.29 2.67-3.76zM477.11 135.02l4.5 1.56-1.56 2.48-2.94-4.04z" class="s"/><path d="m450.77 149.52 8.35 6.61 12.67-4.04-12.95-.73-8.07-1.84z" class="bf"/><path d="m450.77 149.52 5.78-.09 3.12-.64 3.03 1.74 9.09 1.56-12.58.74-8.44-3.31z" class="bq"/><path d="m448.38 121.99 11.2-.83-2.85-2.94-7.98 1.2-.37 2.57zM469.58 122.63l2.94-2.52 8.26 3.8.68 2.89-11.88-4.17z" class="ah"/><circle cx="471.69" cy="133.83" r="1.84" class="cb"/><circle cx="453.34" cy="130.89" r="1.84" class="cb"/><path d="m479.36 108.91 15.65 9.68 14.77-2.3 11.24-11.93L499 97.39l-19.64 11.52z" class="ah"/><path d="m521.02 104.36-1.65 20.51-8.85 1.93-15.51-8.21 26.01-14.23z" class="av"/><path d="m495.01 118.59 22.11 21.51-12.83 21.51-9.28-43.02z" class="av"/><path d="m527.22 146.95-7.71 10.02-15.22 4.64 8.25-18.69 4.58-5.88 10.1 9.91z" class="ad"/><path d="m495.01 118.59 12 3.1 10.11 6.58 10.1 18.68-14.68-4.03-17.53-24.33z" class="ah"/><path d="m490.5 102.38 14.64 10.67 2.88 2.53 4.24-6.43L499 97.39l-8.5 4.99z" class="av"/><path d="m505.14 113.05 1.87 8.64 8.75 5.11 3.61-1.93-7.11-15.72-7.12 3.9z" class="ad"/><path d="m507.01 121.69 20.21 25.26-7.85-22.08-12.36-3.18z" class="ap"/><path d="m444.01 119.56 15.57-15.2-14.6 1.74-.97 13.46z" class="ah"/><path d="m471.79 113.38-56.67-13.72 38.22-7.82 31.02 3.76-5 13.31-7.57 4.47z" class="bq"/><path d="m471.79 113.38 73.18-13.19-33.85-11.09h-18.8l-15.21 13.51-5.32 10.77z" class="v"/><path d="m459.42 73.12 14.11-44.48 15.14 50.22-11.56 23.75-17.69-29.49z" class="v"/><path d="m473.53 28.64 19.55-5.69 13.16 48.86-29.13 30.8 4.35-23.75-7.93-50.22z" class="bi"/><path d="m459.42 73.12 22.04 5.74 2.9 15.16-7.25 8.59-23.77-10.77 6.08-18.72z" class="bg"/><path d="m481.46 78.86 24.78-7.05 4.88 17.29-34.01 13.51 4.35-23.75z" class="bz"/><path d="m535 213.9 3.44 5.4-5.04 6.35-5.38-6.84 6.98-4.91z" class="br"/><path d="m531.18 219.3 2.22 6.35-25.9-3.86-3.21-6.67h14.56l12.33 4.18z" class="cc"/><path d="m535 213.9-27.5-4.76-3.21 5.98 26.89 4.18 3.82-5.4zM518.85 223.48l.05 81.59h-5.85l-1.93-84.89 7.73 3.3z" class="bx"/><path d="m522.96 211.81-15.27-4.27-5.25 7.58 7.77 4.18 9.86-1.73 2.89-5.76z" class="ce"/><path d="m502.44 215.12 1.85 10.36 14.56-2 1.22-5.91-17.63-2.45z" class="s"/></g><g id="g"><path d="m220.99 229.25 10.71 5.09 7.77-13.91-8.08-.35-10.4 9.17z" class="af"/><path d="m203.91 175.23 20.73 30.23-17.87 10.76-2.86-40.99z" class="bk"/><path d="m170.08 282.04 4.68 12.98-10.77 2.28-15.67-2.28.91-9.02 7.91-5.58 12.94 1.62z" class="u"/><path d="M148.32 295.02h26.44v5.05h-26.44z" class="by"/><path d="m161.54 280.97 1.74 7.14-4.56 1.33-1.58-9.02 4.4.55z" class="r"/><path d="M203.56 280.36v9.59l5.51 2.52h21.89l7.73-2.52-11.15-10.93-12.62-9.05-8.2 3.51-3.16 6.88z" class="u"/><path d="M203.56 289.95h35.13V295h-35.13z" class="by"/><path d="m215.97 273.72 7.38 6.64 4.19-1.34-5.8-5.68-5.77.38z" class="r"/><path d="m221.74 273.34-18.18 7.02-11.61-20.78 29.79 13.76z" class="an"/><path d="m153.68 228.63-2.4 30.97 10.62 13.2 15.49-7.22 8.84-21.03-32.55-15.92z" class="bg"/><path d="m151.28 259.6 26.05 5.96-7.25 16.48-20.85 3.96 2.05-26.4z" class="bb"/><path d="m163.75 177.35 3.4 28.11 36.57-9.55-11.4-17.63-8.58-4.5-19.99 3.57z" class="an"/><path d="m163.75 177.35-13.23 6.03 6.62 20.42 11.76 4.9 3.52-12.55-8.67-18.8zM191.95 173.78l11.96 1.45 6.36 19.52-8.7 4.25-3.59-7.6-5.66-13.12-.37-4.5z" class="am"/><path d="m216.21 110.84 4.92 50.58-22.49 3.98-10.18 9.49-23.07-1.52-14.75-29.51-9.6-30.21 15.92-14.28 45.67-4.69 13.58 16.16z" class="z"/><path d="M193.26 169.85h-18.5l-9.84-45.19-17.79-20.38-6.09 9.37 5.62 37.24 5.97 2.1.36 7.7 10.76 16.66 28.57.93.94-8.43z" class="af"/><path d="m198.64 165.4-31.84 5.39 25.52 7.49 6.32-12.88zM146.66 150.89l3.98-7.03 3.75 4.92-1.4 11.91-6.33-9.8z" class="x"/><path d="m172.42 127.59 5.79-6.03 9.49 1.22 5.44 4.04 2.81-6.32 7.2-3.69 8.34 3.16-21.33 21.61-17.74-13.99z" class="af"/><path d="m187.7 122.78 8.25-2.28 5.62 19.32-5.15 2.64-6.26-.88-2.46-18.8z" class="bh"/><path d="m201.57 139.82-4.74 5.56-6.67-3.8 11.41-1.76zM182.43 149.13l15.45 1.7 12.39-5.83-.41 3.34-11.74 5.65-14.29-1.7-1.4-3.16z" class="x"/><circle cx="206.72" cy="129.22" r="2.81" class="cb"/><circle cx="180.14" cy="133.79" r="2.81" class="cb"/><path d="m172.42 127.59-1.53-3.52 12.42-5.03 4.39 3.74-15.28 4.81zM195.95 120.5l1.87-4.27 12.77.35.9 3.39-15.54.53zM187.7 111.72l5.56-6.35 1.37-5.39h3.35l4.65-5.3-21.96-9.13-9.83 2.7-4.04 7.21-12.41-2.7-15.34 4.21 3.51 12.58h9.16l19.12 1.15 3.86-3.9 13 4.92z" class="cc"/><path d="m139.05 96.97-10.89 29.44 19.84 4.57 6.39-1.78-5.86-13.83 3.19-5.82-12.67-12.58zM187.7 111.72l-16.86-23.47-16.45 4.51 16.45 17.94 16.86 1.02zM180.67 85.55l17.31 14.43-4.72 5.39-12.59-19.82z" class="br"/><path d="m154.39 129.2 6.61 16.18-6.61 3.4-7.73-13.59-18.5-8.78 26.23 2.79z" style="fill:#46382d;stroke-width:0"/><path d="m154.39 148.78-13.35 5.18-12.88-27.55 18.5 7.38 7.73 14.99z" class="af"/><path d="m137.76 136.6 6.82 1.99 1.38 8.67-8.2-10.66z" class="x"/><path d="m157.14 203.8 4.33 22.21 26.4 9.41 27.17-13.35-4.77-27.32-12.29-3.35-25.56 4.75-15.28 7.65z" class="bi"/><path d="m168.55 195.26 1.88 5.39-1.76.93-2.11-4.91 1.99-1.41zM161.29 199.01l2.46-1.29 2.34 5.5-2.34.82-2.46-5.03z" class="t"/><path d="m161.47 226.01 3.55 51.11 56.72-3.78-6.7-51.27-53.57 3.94z" class="am"/><path d="m150.52 183.38 10.77 26.53-5.33 11.47-8.27-1.46-6.91-15.79 9.74-20.75z" class="bk"/><path d="m163.28 214.81 8.04 10.48-1.75 8.4-7.38 2.75-8.83-3.59 2.6-11.47 7.32-6.57z" class="z"/><path d="m161.29 209.91-13.6 10.01 5.67 12.93 9.92-18.04-1.99-4.9z" class="am"/><path d="m195.85 250.78 38.74.5 4.88 8.24-49.08-2.95 5.46-5.79z" class="aa"/><path d="m194.97 245.75 31.39 20.36 11.75-2.75-44.97-24.37 1.83 6.76z" class="bo"/><path d="m186.78 246.09 9.07 4.69-4.23 7.24-10.43.7-5.49-10.54 11.08-2.09zM194.63 232.85l-10.74-.71-4.8 8.68 3.63 2.02 12.25 2.91-.34-12.9z" class="ae"/><path d="m176.42 231.94 7.47.2 6.53 5.16-2.37 3.6-8.96-1.91-2.67-7.05zM186.78 246.09l1.91 6.91-4.04 2.11-5.56-7.04 7.69-1.98z" class="af"/><path d="m176.42 231.94 10.36 14.15-15.28 6.11-3.03-13.21 1.28-6.14 6.67-.91z" class="z"/><path d="m176.42 231.94-7.95 7.05-6.28-2.55 9.13-11.15 5.1 6.65zM209.93 252.52l1.82-1.11 1.81 1.7-2.28 1.35-1.35-1.94z" class="t"/><path d="m187.31 197.25 44.61-9.84 36.35 11.42-11.41 13.35-44.09 5.62-25.46-20.55z" class="bg"/><path d="m201.18 205.15-1.26-10.68 5.26-5.37 12.07 9.39-11.26 11.41-4.81-4.75z" class="l"/><path d="m201.18 205.15 1.82-8.78 4.68 3.66-1.69 3.72-.66-3.31-1.69-.41-1 6.53-1.46-1.41z" class="bq"/><path d="m205.18 189.1 30.78-4.21 7.51 6.15-16.36 8.92h-15.04l-6.89-10.86z" class="at"/><path d="m205.99 209.9 7.37 1.57 27.65-11.03 2.46-9.4-31.4 8.92-6.08 9.94z" class="ac"/><path d="m208.58 211.47 8.04-6.32 7.1 4.75-2.64 5.09-9.01 4.84-3.49-8.36z" class="l"/><path d="m216.62 205.15 32.51-8.78 4.39 10.19-32.44 8.43-4.46-9.84z" class="at"/><path d="m187.31 197.25-1.2 26.95 30.46 9.56 5.69-9.88-2.77-12.41-32.18-14.22z" class="bw"/><path d="m216.57 233.76 45.38-12.43 6.32-22.5-48.78 12.64-2.92 22.29z" class="bu"/><path d="m201.09 210.16-.79 4.47-4.65-2.02-.62 4.31 4.57 1.75-.53 4.39 3.52 1.15.79-4.13 4.74 1.84.79-4.3-5.01-1.93.62-4.39-3.43-1.14z" style="fill:#f5f9fb;stroke-width:0"/><path d="m231.7 234.34 15.39-8.94-1.3-11-11.77 3.14-2.32 16.8z" class="z"/></g><g id="h"><path d="m393.36 185.98-7.07-1.14.46 18.45 25.92-1.25 6.04-4.09-2.99-7.11-14.08-1.67-8.28-3.19z" class="bj"/><path d="m378.09 156.97 9.46 1.95 14.09 30.25-14.89 14.12-8.66-25.33v-20.99z" class="az"/><path d="m376.64 264.37-.85 10.43 6.3 11.94 5.69 1.11 2.64-2.51-1.28-15.34-12.5-5.63zM353.52 261.08l4.49 14.29-1.38 16.36-7.19 2.37-1.61-3.23-5.25-20.68 3.43-22.93 7.51 13.82z" class="w"/><path d="m390.42 285.34 7.87 7.26-7.56 8.41-9.22-1.27.58-13 8.33-1.4zM356.63 291.73l5.38 14.26-9.47 1.42-9.38-1.42 4.67-15.12 8.8.86z" class="ci"/><path d="m389.14 270-13.35 4.8-3.36-5.54 8.72-.83 7.99 1.57zM342.58 270.19l15.43 5.18.9-10.78-5.94-.22-10.39 5.82z" class="bs"/><path d="m388.89 181.03-18.45-14.86-11.46-11.3-16.41 6.74.77 30.77 3.69 7.74-6.73 6.04-3.56 8.5-4.93 13.1 21.67-.83h26.66l4.34-15.26-2.21-12.61 9.05-12.61-2.43-5.42z" class="ab"/><path d="m343.34 192.38-3.04 13.78 44.18 5.51 6.84-25.22-47.98 5.93zM373.3 222.99l-7.95 22.53-26.58 9.67-6.96-27.43 14.95-2.26 26.54-2.51z" class="aq"/><path d="m373.3 222.99 10.28 8.77 4.57 24.11-5.04 10.29-40.53 4.03-3.81-15 34.53-32.2z" class="az"/><path d="m342.58 270.19 45.57-14.32.99 14.13-46.56.19zM373.3 222.99l.64 6.57 4.33 4.44 9.88 21.87-3.67-44.2-11.18 11.32z" class="aq"/><path d="m378.09 156.97-19.11-2.1-5.5 29.97 16.8-7.93 18.61 4.12-10.8-24.06z" class="be"/><path d="m421.51 91.84 12.73 12.46-14.86 13.25-.5-13.19 2.63-12.52z" class="cj"/><path d="m354.86 77.85-4.88-5.68-4.42-13.87 56.08-11.74-.6 14.13-1.47 10.33-24.3 7.15-20.41-.32z" class="ab"/><path d="m401.64 46.56 29.03 21.55-9.16 23.73-13.32-9.25-8.62-11.57 2.07-24.46z" style="fill:#94d5d5;fill-rule:evenodd;stroke-width:0"/><path d="m345.56 58.3-3.15 30.01 8.03-4.41 4.42-6.05-9.3-19.55z" style="fill:#1e7678;fill-rule:evenodd;stroke-width:0"/><path d="m401.2 51.8-2.58.39-.68 5.56-5.01.81-.07 3.89 4.48-.62.04 5.4 2.51-.07 1.15-6.47.16-8.89z" class="ci"/><path d="m401.2 51.8 2.15 1.82-.25 4.97 3.29 3.1-.03 3.5-3.28-2.52-.44 6.07-2.75-1.58 1.31-15.36z" style="fill:#318fa6;fill-rule:evenodd;stroke-width:0"/><path d="m421.51 91.84-4.98 60.05-29.89-1.42-15.5 8.25-17.5-19.98-12.95-19.02 12.4-3.78 2.18 3.81 16.17-24.15 10.75-3.73 12.89-2.77 26.43 2.74z" class="bj"/><path d="m371.44 95.6-3.94 54.41 19.14.46-6.95 4.29.17 6.16-9.88 15.22-21.15-40.89-1.1-4.97-2.63-2.24-6.64-12.83 13.1-7.08 2.69 12.62 6.07-10.09 11.12-15.06zM413.45 106.1l-13.76 12.47-6.58 5.78-11.91-19.78 7.14-3.04 5.66 2.11.31 1.55 3.94 2.95 2.2-2.66.3-1.48 5.62-1.06 7.08 3.16z" class="w"/><path d="m399.33 124.79-3.48 3.48-2.74-3.92 3.74-2.3 2.48 2.74zM386.64 150.47l-6.78 10.45-17.88-12.02 24.66 1.57zM353.18 125.06l-4.35 10.19-3.73-7.21 8.08-2.98zM351.22 122.77l-2.49-7.6-5.89 1.97 8.38 5.63z" class="bs"/><path d="m392.44 94.02 5.89-11.01 1.24-11.99-44.71 6.83-24.92 20.78 20.87-.44 20.63-2.59 9.12-.68 11.88-.9z" class="cj"/><path d="m371.44 95.6-16.8 26.63-3.77-10.81-12.41 3.79-8.52-16.58 41.5-3.03z" class="bv"/><path d="m399.57 71.02 21.94 20.82-29.07 2.18 7.13-23z" style="fill:#5f6878;fill-rule:evenodd;stroke-width:0"/><path d="m394 103.64-.44-3.33-6.27-.12-6.09 4.38 6.64-1.68 6.16.75zM400.75 104l5.55.18 7.15 1.92-5.51-4.44-6.61-.96-.58 3.3z" class="cj"/><path d="M356.12 300.48h-6.98l-5.98 5.51v2.24h18.85v-2.24l-5.89-5.51zM398.29 292.6l-10.14 7.14h-6.64v2.16h26.94v-4.89l-10.16-4.41z" class="ch"/><path d="M390.28 113.98c-.33 1.57-1.87 2.58-3.45 2.25s-2.58-1.87-2.25-3.45 1.87-2.58 3.45-2.25 2.58 1.87 2.25 3.45ZM408.63 114.85c-.33 1.57-1.87 2.58-3.45 2.25s-2.58-1.87-2.25-3.45 1.87-2.58 3.45-2.25 2.58 1.87 2.25 3.45Z" class="bv"/><path d="m394.31 105.14-1.2 19.21 6.22.44 1.13-19.37-6.15-.28z" style="fill:#e8cab6;fill-rule:evenodd;stroke-width:0"/><path d="m406.08 135.26-11.57-.91-11.54-1.01 8.03 5 6.01.54 9.07-3.62z" class="be"/><path d="m382.97 133.34 12.23-1.14 10.88 3.06-11.82.15-11.29-2.07z" style="fill:#1c7678;fill-rule:evenodd;stroke-width:0"/><path d="m382.97 133.34 11.04 8.38 12.07-6.46-9.35 2.54-4.62-.5-9.14-3.96z" class="az"/><path d="m421.53 182.92-14.43 11.15 3.68 9.22h6.67l7.89-9.22.25-3.23-4.06-7.92z" style="fill:#efd3c2;fill-rule:evenodd;stroke-width:0"/><path d="m407.1 194.07-1.32 12.18 9.1 3.73 2.57-6.69-10.35-9.22z" style="fill:#d0af96;fill-rule:evenodd;stroke-width:0"/><path d="m421.52 197.07 4.07-6.23 12.48 1.27-2.94 9.64-10.77-.83-2.84-3.85z" class="bj"/><path d="m417.45 203.29 4.07-6.22 13.61 4.68-17.68 1.54z" class="w"/><path d="m342.57 161.61-8.69 13.53-.96 25.28 17.18 3.04-7.53-41.85z" class="az"/><path d="m369.53 215.73 3.77 7.26-4.87 4.83-7.83 1.19-5.57-9.73 9.13-10.14 5.37 6.59z" style="fill:#67acc3;fill-rule:evenodd;stroke-width:0"/><path d="m373.3 222.99 4.97 11.01-6.86 1.69h-9.95l-.86-6.68 12.7-6.02z" style="fill:#a0cbd9;fill-rule:evenodd;stroke-width:0"/><path d="m332.92 200.42 24.13-2.32 3.55 5.52-4.88 4.46-18.98 6.58-3.82-14.24zM357.05 198.1l4.93-4.03 8.29 2.76-6.13 4.92-7.09-3.65z" class="bj"/><path d="m357.05 198.1 4.41.96 8.81-2.23 3.03 9.55-3.77 9.35-13.81-7.65 1.33-9.98z" class="w"/><path d="m370.27 196.83 8.93 3.97-1.11 10.07-8.56 4.86.74-18.9z" class="bj"/><path d="m370.27 196.83-6.52 22.45-4.84 3.71-12.15 2.51 10.29-27.4 13.22-1.27z" class="al"/><path d="m363.75 219.28 7.66 16.41-7.27 6.05-7.09-.38-10.29-15.86 16.99-6.22z" style="fill:#b3d5e1;fill-rule:evenodd;stroke-width:0"/><path d="m371.41 235.69-2.72 20.18-15.21-1.89 3.57-12.62 14.36-5.67z" class="al"/></g><g id="i"><path d="m727.69 296.27 9.04-1.43-11.9-2.42 2.86 3.85z" class="ae"/><path d="m723.91 284.24 3.78 12.03-4.48.64-6.85-13.81 7.55 1.14z" class="u"/><path d="m707.23 284.39 15.19-4.92 1.49 4.77-20.02 5.1 3.34-4.95z" class="ae"/><path d="m657.55 292.04-2.69 8.07 4.66 1.67.84-6.36-.84-2.6-1.97-.78z" class="bu"/><path d="m673.83 291.02-5.98 1.96-4.5-2.09 1.29-2.57 4.13-2.17 5.06 4.87z" class="ac"/><path d="m693.7 298.88-2.06 6.12h-5.53l3.87-7.14.88-1.59 2.84 2.61zM707.23 300.11l-2.2 7.72h-5.83l4.28-9.33 3.75 1.61z" class="bu"/><path d="m661.88 283.1 12.45 10.49 15.65 4.27 3.72-1.53 2.46-9.75-34.28-3.48z" class="cg"/><path d="m659.52 278.79-13.27-4.35-.11-3.34 2.94-1.19 5.13-.76 5.31 3.06v6.58z" class="bq"/><path d="M654.21 269.15v-5.95l5.31-.62 9.85 1.89-6.72 5.58-8.44-.9z" class="ay"/><path d="m669.37 264.47 1.71 11.84-1.53 3.69-7.67 3.1-7.67-13.95 15.16-4.68z" class="cg"/><path d="m644.85 270.53 1.4 3.91 2.83-4.53-4.23.62z" class="bw"/><path d="m654.21 269.15-5.13-9.46 6.42-5.86 4.02 8.75-5.31 6.57zM669.37 264.47l4.67-5.38-4.57-7.28-4.81 8.3 4.71 4.36z" class="by"/><path d="m671.08 276.31 19.72-3.12 8.22 5.6 2.27 8.14-10.75 4.61-28.66-8.44 9.2-6.79z" class="ay"/><path d="m699.02 278.79-8.48 12.75 5.62 4.28 6.94.34 4.13-11.77-8.21-5.6z" class="ac"/><path d="m690.54 291.54-.56 6.32 3.72 1.02v-2.55l-3.16-4.79z" class="ag"/><path d="m690.54 291.54 3.16 7.34 13.53 1.23-4.13-3.95-12.56-4.62z" class="bc"/><path d="m674.33 293.59 5.36-5.25 1.9 15.37-1.95 1.36-1.68-2.24-3.63-9.24z" class="ac"/><path d="m677.96 302.83-4.54 6.36h5.23l2.94-5.48-3.63-.88z" class="bu"/><path d="m657.55 292.04.97-.5h1.51l.33-.97 4.28-2.25 3.21 4.66-1 .32-1.82-.32-.25 1-4.42 1.44-2.81-3.38z" class="ap"/><path d="m662.7 289.34 4.15 3.96-2.07.68-2.08-4.64zM660.36 290.57l2.99 3.88-4.83-2.91 1.84-.97z" class="ak"/></g></svg>